STARTFONT 2.1
FONT -CBS-Song-Medium-R-Normal-Fantizi-40-400-75-75-C-400-CNS11643.1992-7
SIZE 40 80 80
FONTBOUNDINGBOX 40 40 0 -6
STARTPROPERTIES 23
FONTNAME_REGISTRY ""
FOUNDRY "CBS"
FAMILY_NAME "Song"
WEIGHT_NAME "Medium"
SLANT "R"
SETWIDTH_NAME "Normal"
ADD_STYLE_NAME "Fantizi"
PIXEL_SIZE 40
POINT_SIZE 400
RESOLUTION_X 75
RESOLUTION_Y 75
SPACING "C"
AVERAGE_WIDTH 400
CHARSET_REGISTRY "CNS11643.1992"
CHARSET_ENCODING "7"
COPYRIGHT "March 1994 by Central Bureau of Standards, Ministry of Economy, ROC"
WEIGHT 19329
RESOLUTION 110
X_HEIGHT 34
QUAD_WIDTH 40
DEFAULT_CHAR 32382
FONT_ASCENT 34
FONT_DESCENT 6
ENDPROPERTIES
CHARS 6540
STARTCHAR 2121
ENCODING 8481
SWIDTH 903 0
DWIDTH 40 0
BBX 40 40 0 -6
BITMAP
0000300000
00003e0000
00003c0018
000038003c
7ffffffffe
0000380000
0000380000
0300380380
03ffffffc0
0380380380
0380380380
0380380380
03ffffff80
0300380300
100038000c
100038001e
3fffffffff
300000000f
700000000e
e00000018c
efffffffd8
c00701c010
000701c000
000701c000
000701c0c0
0c0701c1e0
0fff01fff0
0e060180f0
0e000000e0
0e000000e0
0e000000e0
0e070180e0
1fff81ffe0
0c0701c0c0
000701c000
000701c000
000701c018
000701c03c
7ffffffffe
0000000000
ENDCHAR
STARTCHAR 2122
ENCODING 8482
SWIDTH 903 0
DWIDTH 40 0
BBX 40 40 0 -6
BITMAP
0000c00000
0000700000
0000380000
000038000c
000018001e
ffffffffff
0000000000
0000000000
00c0000e00
00ffffff00
00e0000e00
00e0000e00
00e0000e00
00fffffe00
00c0000c00
0000000000
00c0000c00
00f0000f00
00e0000e00
01d8001d80
038e0038e0
0707807078
0e03c0e03c
38c1c38c1c
e0f00e0f00
00e0000e00
01d8001d80
038e0038e0
0707807078
0ec3c0ec3c
38f1c38f1c
e0e00e0e00
00e0000e00
00e0000e00
00e0000e00
00e0000e00
00e0000e00
00e0000e00
00e0000e00
00c0000c00
ENDCHAR
STARTCHAR 2123
ENCODING 8483
SWIDTH 903 0
DWIDTH 40 0
BBX 40 40 0 -6
BITMAP
0000c00000
0000700000
0000380000
0000380018
000018003c
7ffffffffe
0001c00000
0003801800
0007000e00
001c000700
00700fff80
01fffc01c0
01ff8001c0
00f00000c0
007000000c
000000001e
ffffffffff
0060381800
0078381e00
0070381c00
1ffffffff8
0070381c00
0070381c00
0070381c00
1ffffffff8
0070381c00
0070381c00
0060381800
7ffffffffc
0000380000
00c0380c00
00f0380f00
00e0380e00
00e6380e18
3fff39fffc
00e0380e00
00e0380e00
00e0380e00
00c0380c00
0000300000
ENDCHAR
STARTCHAR 2124
ENCODING 8484
SWIDTH 903 0
DWIDTH 40 0
BBX 40 40 0 -6
BITMAP
0000c00000
0000700000
0000380000
0000380004
000018000e
ffffffffff
0000000000
0001e00000
0001c00000
00038000c0
0c060001e0
0ffffffff0
0e000000f0
0e0003e0e0
0e003ff0e0
0e3ff800e0
0e003870e0
0e0c3860e0
0e0738c0e0
0e033980e0
0e7ffffee0
0e03b980e0
0e0738e0e0
0e0e3878e0
0e1c383ce0
0e38381ce0
0ee0300ce0
0c003c00c0
0000380004
000070000e
ffffffffff
0000e00000
0001c00000
0003803c00
000e000780
001c0001f0
007000007c
01c000001e
0f0000000f
7800000006
ENDCHAR
STARTCHAR 2125
ENCODING 8485
SWIDTH 903 0
DWIDTH 40 0
BBX 40 40 0 -6
BITMAP
0060018000
007c00e000
0078007000
007040700c
00f040301e
00e0ffffff
00e1c0000f
01c3c6030c
01c38783c8
0383070380
0380070380
078007038c
0781fffffe
0f80070380
0f80070380
1f80070380
3b80fffffc
3380070380
6380070380
c380070386
0383ffffff
0380070180
03800e00c0
03801c0078
038038003f
038070001f
0380ffffee
03839c00e6
038e1c00e0
03801c00e0
03801c00e0
03801fffe0
03801c00c0
03801c0000
03801c0000
03801e0000
03801ffffc
03800ffffe
038003fffe
0300000000
ENDCHAR
STARTCHAR 2126
ENCODING 8486
SWIDTH 903 0
DWIDTH 40 0
BBX 40 40 0 -6
BITMAP
0060180180
007c1e01e0
00781cc1cc
00731ce1ce
00f1dcd9cc
00e0dd8dd8
00e0dd05d0
01c01c01c0
01c03e03b0
038033071c
038061860e
0780c1cc07
078180d803
0f83003000
0f80800018
1f8080003c
3b81fffffe
338380001e
6387800018
c387000190
03800003c0
0381ffffe0
03800381e0
03800381c0
03800381c0
03803381c0
03801b81c0
03800f81c0
03800701c0
03800781c0
038007c1c0
03800ee1c0
03800e71c1
03801c71c1
03803831c3
03807001e6
0380e001ff
0381c000ff
038380003e
030e000000
ENDCHAR
STARTCHAR 2127
ENCODING 8487
SWIDTH 903 0
DWIDTH 40 0
BBX 40 40 0 -6
BITMAP
0060000000
007c00000c
007800001e
0071ffffff
00f001c700
00e001c700
00e001c70c
01c0c1c70e
01c071c71c
038039c718
03801dc730
07800dc764
078181c70e
0f81ffffff
0f81c1c700
1f81c1c700
3b81c1c718
3381c1c73c
6381fffffe
c381c1c71e
0381c1c71c
0381c1c71c
0381c1c71c
0381c1c71c
0381c1c71c
0381fffffc
0381c3c718
0381c3c700
0381c7c780
0381c7c7c0
03838dc760
03838dc770
038319c738
038739c71c
038631c70f
038e61c707
038cc1c702
039981c700
039001c700
0300018600
ENDCHAR
STARTCHAR 2128
ENCODING 8488
SWIDTH 903 0
DWIDTH 40 0
BBX 40 40 0 -6
BITMAP
0180000600
01f00007c0
01e0000780
01c0000730
038000071c
038000070e
0380000706
0700000700
071fffffff
0700000700
0e000c0700
0e000f0700
1e000e0700
1e030e0700
3e03cfe718
3e038e071f
6e038e071e
6e038e071c
ce038e071c
8e1ffff71c
0e0000071c
0e0000071c
0e0000c39c
0e0001e39c
0e1ffff3b8
0e0038f3b8
0e0038c1f0
0e003881f0
0e0c3801e0
0e0f3fc1c0
0e0e3801c0
0e0e3803e1
0e0e380361
0e0f380771
0e1db80633
0e38ffee3b
0e303ffc1e
0e6000381f
0ec000700f
0c0000c006
ENDCHAR
STARTCHAR 2129
ENCODING 8489
SWIDTH 903 0
DWIDTH 40 0
BBX 40 40 0 -6
BITMAP
018000000c
01e000400f
01c000e00e
01dffff00e
0380c6000e
0380c6030e
0380c603ce
0700c6038e
070cc6638e
070ffff38e
0e0cc6638e
0e0cc6638e
1e0cc6638e
1e0cc6638e
3e0cc6638e
3e0cc6638e
6e0fffe38e
6e0c00638e
ce0000038e
8e0000838e
0e0001c38e
0e0fffe38e
0e0000038e
0e0000038e
0e0000438e
0e0000e38e
0e1ffff38e
0e0038038e
0e0038038e
0e0638030e
0e07b9800e
0e0738e00e
0e0e38700e
0e0c38380e
0e1838380e
0e3038181e
0e603803fe
0e403800fc
0e00380038
0c00300030
ENDCHAR
STARTCHAR 212a
ENCODING 8490
SWIDTH 903 0
DWIDTH 40 0
BBX 40 40 0 -6
BITMAP
0060000000
007c001000
0078003800
0077fffc00
00f0e1c00c
00e0e1c61e
00e0e1c7ff
01c0e1c70f
01c0ffc70e
0380e1c70e
0380e1c70e
0780e1c70e
0780e1c70e
0f80ffc70e
0f80e1c70e
1f80e1c70e
3b80e1c7fe
3380e7c70c
6387fdc600
c387e1c000
038381c000
0381818000
03800000e0
0380000ff0
038001fff8
03801f3800
0380003800
0380003800
0380003800
0380003804
038000380e
0381ffffff
0380003800
0380003800
0380003800
0380003800
0380003808
038000381c
0380fffffe
0300000000
ENDCHAR
STARTCHAR 212b
ENCODING 8491
SWIDTH 903 0
DWIDTH 40 0
BBX 40 40 0 -6
BITMAP
0180003000
01e0403c00
01d8e03800
01dff07000
039c706060
039c66c0f0
039c67fff8
071c671c78
071c671c70
071cc71c70
0e1cc71c70
0e1d871c70
1e1d071c70
1e1d87fff0
3e1c871c70
3e1cc71c70
6e1cc71c70
6e1c671c70
ce1c671c70
8e1c671c70
0e1c37fff0
0e1c367700
0e1c307720
0e1c307738
0e1c307730
0e1c307730
0e1c30e734
0e1c70e766
0e1ff0e762
0e1ce1c7fe
0e1cc1c7e2
0e1c038740
0e1c038701
0e1c070701
0e1c070703
0e1c0e0786
0e1c1c07ff
0e1c3803ff
0e1c7001fe
0c18c00000
ENDCHAR
STARTCHAR 212c
ENCODING 8492
SWIDTH 903 0
DWIDTH 40 0
BBX 40 40 0 -6
BITMAP
0060008004
007c01c00e
0079ffe7ff
00700e00e0
00f00e00e0
00e01f01f0
00e03b03b0
01c0738738
01c0c78c78
03818d98d8
038019c19c
078031c31c
0780c3c63c
0f8307d87c
0f800dc0dc
1f8019c19c
3b8061c31c
338181cc1c
638001c01c
c38003c03c
0380ff8ff8
03801f01f0
03800e00e0
03800c00c0
0380003000
0380003e00
0380003c00
0380003800
0380003830
0380003878
03807ffffc
0380003800
0380003800
0380003800
0380003800
0380003800
038000380c
038000381e
0383ffffff
0300000000
ENDCHAR
STARTCHAR 212d
ENCODING 8493
SWIDTH 903 0
DWIDTH 40 0
BBX 40 40 0 -6
BITMAP
0060006000
007c007c00
0078007800
0070007004
00f000700e
00e1ffffff
00e000e200
01c0c1c306
01c071c10f
03803b819c
03801f00f0
07800e00e0
07801c0078
0f8038003f
0f807fffff
1f80fc007e
3b81dc0076
33871c0070
63801ffff0
c3801c0070
03801c0070
03801c0070
03801ffff0
0380003060
0380003e00
0380003c00
0380003818
038060381e
038038383c
03801c7470
03801c74c0
03800ce600
038001c300
0380038380
03800701c0
03800e00f0
03801c007f
038038003f
0380e0001c
030380000c
ENDCHAR
STARTCHAR 212e
ENCODING 8494
SWIDTH 903 0
DWIDTH 40 0
BBX 40 40 0 -6
BITMAP
0180000300
01f00003e0
01e00003c0
01cc1c0380
038ffe0380
038c1c0384
038c1c038e
070c1dffff
070c1c0380
070c1c0380
0e0c1c0380
0e0c1c0380
1e0c1c0380
1e0c1c0380
3e0ffc0398
3e0ce07ffc
6e00e00060
6e00e00078
ce00e00070
8e00e00070
0e0ce00070
0e0ee00076
0e0ce1ffff
0e0cfe0070
0e0ce00070
0e0ce06070
0e0ce03070
0e0ce03870
0e0ce01c70
0e0ce01c70
0e0ce00c70
0e0ce00070
0e0cff0070
0e0df00070
0e3fc00070
0e3f0000f0
0e1c001ff0
0e0c0007e0
0e000001c0
0c00000180
ENDCHAR
STARTCHAR 212f
ENCODING 8495
SWIDTH 903 0
DWIDTH 40 0
BBX 40 40 0 -6
BITMAP
0060003000
007c003e00
0078603c18
00707c381f
00f078381e
00e070381c
00e070381c
01c070381c
01c070381c
0380fffffc
0380600018
078000c000
078000f000
0f8000e000
0f8001c018
1f8063003c
3b807ffffe
338070381e
638070381c
c38070381c
038070381c
03807ffffc
038070381c
038070381c
038070381c
038070381c
03807ffffc
038061ce60
038001ce70
038001ce64
0380038ec2
0380038ffe
0380070ec2
03800e0e01
03801c0e03
0380380f06
0380700fff
0380e007ff
03838001fe
030e000000
ENDCHAR
STARTCHAR 2130
ENCODING 8496
SWIDTH 903 0
DWIDTH 40 0
BBX 40 40 0 -6
BITMAP
0181800000
01f1f0000c
01e1e0061e
01c1c307ff
0381c7870f
0383ffc70e
038383c70e
070703870e
070707070e
070e06070e
0e0c0c070e
0e1819c70e
1e3fffe70e
1e6e31c70e
3e0e31c70e
3e0e31c70e
6e0e31c70e
6e0e31c70e
ce0e31c70e
8e0fffc70e
0e0e31c70e
0e0e31c70e
0e0e31c70e
0e0e31c70e
0e0e31c70e
0e0e31c70e
0e0fffc70e
0e0e01870e
0e0c00071e
0e000007fe
0e0000073c
0e00010738
0e09108730
0e0988c700
0e198c6700
0e18c66700
0e38c66700
0e30c66700
0e30000700
0c00000600
ENDCHAR
STARTCHAR 2131
ENCODING 8497
SWIDTH 903 0
DWIDTH 40 0
BBX 40 40 0 -6
BITMAP
0180000038
01f00600fc
01e00707fe
01c007ff80
0398070380
038e070380
038707038c
070387039e
070387ffff
0701870380
0e00070380
0e00070300
1e00070300
1e03073638
3e07873ffc
3e7fc73838
6e03c73838
6e03873838
ce03873838
8e07073838
0e06073ff8
0e0e073838
0e0dc73838
0e1fe73838
0e19c73838
0e01c63838
0e01ce3ff8
0e038c3838
0e038c3838
0e03183838
0e07183838
0e06303838
0e0c203ff8
0e1f003030
0e3fe00000
0e78fc0000
0e303fffff
0e0007ffff
0e0001fffc
0c00000000
ENDCHAR
STARTCHAR 2132
ENCODING 8498
SWIDTH 903 0
DWIDTH 40 0
BBX 40 40 0 -6
BITMAP
0000003000
1803001800
1c07801c08
1fffc00c1c
1c03cffffe
1c03800060
1c03818078
1c0380c070
1c038060e0
1fff8070c4
1c0300318e
1c001fffff
1c00000e00
1d81c00e00
1dffe00e10
39c1c00e38
39c1c7fffc
31c1c00e00
71c1c00e00
61c1c00e00
c1ffc00e00
81c1800e00
0180000c00
000c018000
000f81f000
000f01e000
000e01c000
000e01c000
000e01c000
000e01c000
001c01c001
001c01c001
003801c003
007001c003
00e001c006
01c001e00e
038001ffff
0e0000ffff
3800007ffc
e000000000
ENDCHAR
STARTCHAR 2133
ENCODING 8499
SWIDTH 903 0
DWIDTH 40 0
BBX 40 40 0 -6
BITMAP
0000300000
00003c0000
0000380200
0000380700
03ffffff80
0000380000
0000380000
0000380008
000038001c
7ffffffffe
0003838000
0003838000
0007038001
000e038001
001c038003
007003c006
01c003ffff
070001ffff
1c0000fffc
7000000000
00c0000c00
00f8000f00
00f0000e00
00e3000e18
3fff83fffc
00e0000e00
00e0000e00
00e0000e04
00e1800e0e
ffffcfffff
071c0071c0
071c0071c0
071c0071c1
0e1c38e1c1
0e1ce0e1c3
1c1f81c1e6
181f0381ff
301c0700ff
600c0e003e
c000180000
ENDCHAR
STARTCHAR 2134
ENCODING 8500
SWIDTH 903 0
DWIDTH 40 0
BBX 40 40 0 -6
BITMAP
0000000000
01800c0030
03c30e0078
67078ffffc
7c3fce1c3c
7003ce1c38
70038e1c38
70038e1c38
70038e1c38
70038ffff8
70038e1c38
76038e1c38
7f3f8e1c38
70038e1c38
70038e1c38
70038ffff8
70038c3030
7003803e00
7003803c00
7003803818
7fff80383c
673b1ffffe
073800701e
073800701c
073800701c
073800e01c
073800e01c
073801c01c
073803801c
0e3807003c
0e380e3ff8
0e381c03f1
1c383800e1
1c386000c3
1838000007
383c00000e
303fffffff
601fffffff
c007fffffe
8000000000
ENDCHAR
STARTCHAR 2135
ENCODING 8501
SWIDTH 903 0
DWIDTH 40 0
BBX 40 40 0 -6
BITMAP
0000000000
3000000030
3800000078
3ffffffffc
380000003c
3800006038
3818007838
380e007038
380700e038
380380c038
3801c18638
3800c30f38
3bffffffb8
3818380038
381c386038
3838383838
3870380e38
38e0380738
39c03803b8
3b003801b8
3860381c38
387ffffe38
3870c61c38
3870c61c38
3871c61c38
387187fc38
387303fc38
3876001c38
387dff1c38
3871831c38
3871831c38
3871831c38
3871831c38
387ffffc38
3870000038
3860000038
3800000ff8
38000001f8
3800000070
3000000060
ENDCHAR
STARTCHAR 2136
ENCODING 8502
SWIDTH 903 0
DWIDTH 40 0
BBX 40 40 0 -6
BITMAP
000000c000
000000f800
000000f000
600000e008
380000e01c
1c0000fffe
0e0000e000
0f0000e000
070000e030
030300e078
0023fffffc
002380c038
006380f038
004380e038
00c381c038
00c383b838
01838e0e38
0183b8c338
038380f038
030381c038
030383b838
07038e0e38
0603b80338
0e03800038
0e03fffff8
1c0300c030
fc0000f800
7c0000f000
380000e00c
380000e01e
1c1fffffff
1c0000e000
1c00c0e000
1e00f0e300
1e01e0e1c0
1e03c0e0f0
1e0700e078
0c0e00e038
003800e018
000000c000
ENDCHAR
STARTCHAR 2137
ENCODING 8503
SWIDTH 903 0
DWIDTH 40 0
BBX 40 40 0 -6
BITMAP
0001800180
0001e001e0
0001c001c0
6003800380
3803180318
1c063c363c
0e1ffe3ffe
0e1c1e381e
061c1c381c
001c1c381c
001c1c381c
001ffc3b1c
009c1c399c
009c1c39dc
019c1c38dc
019c1c38dc
019c1c381c
031ffc381c
031c1c381c
031c1cffff
061c1c381c
061c1c381c
061c1f381c
0e1dff3b1c
0c7f9e399c
1c7e3c39dc
fc383c38dc
78187c38dc
3800fc381c
3801dc381c
1c039c381c
1c071c381c
1c0e1c701c
1e1c1c701c
1e381c701c
1e701ce03c
1ec3fce7fc
0c003cc078
0000398070
0000310060
ENDCHAR
STARTCHAR 2138
ENCODING 8504
SWIDTH 903 0
DWIDTH 40 0
BBX 40 40 0 -6
BITMAP
0018000018
001f00001f
001e18001e
001c3c001c
1ffffe001c
001c1e181c
001c1c1f1c
001c1c1e1c
ffffff9c1c
001c1c1c1c
001c1c1c1c
001c1c1c1c
1ffffc1c1c
001c181c1c
001c001c1c
001c021c1c
001c071c1c
ffffff9c1c
001c001c1c
031c001c1c
079ce01c1c
0e1c381c1c
1c1c0e1c1c
381c071c1c
e01c031c1c
001c001c1c
1ffffc1c1c
1c1c1c1c1c
1c1c1c1c1c
1c1c1c181c
1ffffc001c
1c1c1c001c
1c1c1c001c
1c1c1c001c
1ffffc001c
180018003c
0000020ffc
00000701f8
ffffff8070
0000000060
ENDCHAR
STARTCHAR 2139
ENCODING 8505
SWIDTH 903 0
DWIDTH 40 0
BBX 40 40 0 -6
BITMAP
0000000018
000006001f
00000f001e
3fffff801c
000700001c
000700181c
0007001f1c
1807071e1c
1fffff9c1c
1c07079c1c
1c07061c1c
1c07041c1c
1cfff81c1c
1c07001c1c
1c07001c1c
1c070c1c1c
1dfffe1c1c
1c00001c1c
1c00041c1c
1c000e1c1c
1fffff1c1c
1c1c001c1c
1c1c001c1c
1c3e0c1c1c
1c770e1c1c
1cc71c1c1c
1d8fb01c1c
1c1de01c1c
1c39c01c1c
3873f0181c
38c7dc001c
3b0fce001c
301dc7001c
7039c7001c
60e1c3001c
6383c0003c
ce7fc00ffc
80078001f8
0007000070
0006000060
ENDCHAR
STARTCHAR 213a
ENCODING 8506
SWIDTH 903 0
DWIDTH 40 0
BBX 40 40 0 -6
BITMAP
0000000018
00c180001f
00ffc0001e
30c1cc001c
3cc18f001c
38c18e181c
38ff8e1f1c
38c18e1e1c
38c18e1c1c
38c18e1c1c
38ff8e1c1c
38c18e1c1c
38c18e1c1c
38c18e1c1c
38ff8e1c1c
38c18e1c1c
38000e1c1c
38000e1c1c
38e30e1c1c
7ff3fe1c1c
30e38c1c1c
00e3801c1c
00e3801c1c
00e3801c1c
30e38e1c1c
3fe3ff1c1c
38e38f1c1c
38e38e1c1c
38e38e1c1c
38e38e181c
38e38e001c
38e38e001c
38e38e001c
30e38e001c
70e38e001c
60e38e003c
60e38e0ffc
c0e38e01f8
80e38c0070
00c3000060
ENDCHAR
STARTCHAR 213b
ENCODING 8507
SWIDTH 903 0
DWIDTH 40 0
BBX 40 40 0 -6
BITMAP
0001800000
0603c00000
07ffe0000c
0701e0001e
0701c3ffff
0701c01c0f
0701c01c0e
0701c01c0e
07ffc01c0e
0601801c0e
0000001c0e
0000181c0e
60c63c1c0e
7fe7fe1c0e
70c61e1c0e
70c61c1c0e
70c61c1c0e
70c61c1c0e
70c61c1c0e
7fc7fc1c0e
70c6181c0e
6030001c0e
003e001c0e
003c001c0e
0038081c0e
00381c1c0e
fffffe1c0e
003800380e
003800380e
063980380e
07b8e0700e
073870701c
0e3838e01c
0c381ce01c
18380dc038
3038038078
6038073ff0
c0380e07e0
00381c01c0
0030300180
ENDCHAR
STARTCHAR 213c
ENCODING 8508
SWIDTH 903 0
DWIDTH 40 0
BBX 40 40 0 -6
BITMAP
0030000018
003e00001f
003c00001e
003808001c
00381c001c
003ffe181c
0038001f1c
0038001e1c
3038181c1c
38383c1c1c
3ffffe1c1c
38301e1c1c
383c1c1c1c
38381c1c1c
38771c1c1c
38c3dc1c1c
3bb0dc1c1c
3e3c1c1c1c
38381c1c1c
38771c1c1c
38e1dc1c1c
3980dc1c1c
3e001c1c1c
38001c1c1c
3ffffc1c1c
3030181c1c
003e001c1c
003c001c1c
00380c1c1c
00381e181c
ffffff001c
003800001c
0c3800001c
0f3980001c
1e38e0001c
1c3878003c
38383c0ffc
70381c01f8
c0380c0070
0030000060
ENDCHAR
STARTCHAR 213d
ENCODING 8509
SWIDTH 903 0
DWIDTH 40 0
BBX 40 40 0 -6
BITMAP
1801800018
1f01f0001f
1e01e0001e
1c21c2001c
1c71c7001c
1ffbff981c
3b03b01f1c
39c31c1e1c
70e70e1c1c
60e60e1c1c
c06c061c1c
8008001c1c
0000301c1c
1800781c1c
1ffffc1c1c
1c003c1c1c
1c00381c1c
1c00381c1c
1c00381c1c
1ffff81c1c
1c00381c1c
1c00381c1c
1c00381c1c
1c00381c1c
1ffff81c1c
1c00381c1c
1c00381c1c
1c00381c1c
1c00381c1c
1c0038181c
1ffff8001c
180030001c
030000001c
03c180001c
0780e0001c
0e0078003c
1c003c0ffc
38001c01f8
70000c0070
c000000060
ENDCHAR
STARTCHAR 213e
ENCODING 8510
SWIDTH 903 0
DWIDTH 40 0
BBX 40 40 0 -6
BITMAP
0600000018
078180001f
0703c0001e
07ffe0001c
0e03e0001c
1c0380181c
1807001f1c
300e181e1c
60183c1c1c
fffffe1c1c
38301e1c1c
383c1c1c1c
38381c1c1c
38771c1c1c
38c1dc1c1c
39b0dc1c1c
3b3c1c1c1c
38381c1c1c
38771c1c1c
38e1dc1c1c
39c0dc1c1c
3b001c1c1c
38001c1c1c
3ffffc1c1c
3030181c1c
003e001c1c
003c181c1c
60381e1c1c
38383c1c1c
1c3870181c
0e38c0001c
067600001c
007380001c
00e1c0001c
01c0f0001c
038078003c
07003c0ffc
0e001c01f8
38000c0070
e000000060
ENDCHAR
STARTCHAR 213f
ENCODING 8511
SWIDTH 903 0
DWIDTH 40 0
BBX 40 40 0 -6
BITMAP
0180000018
03c000001f
07e00c001e
6f001e001c
781fff001c
70038f181c
70038e1f1c
70038e1e1c
70038e1c1c
73038e1c1c
71838e1c1c
70c70e1c1c
77e70e1c1c
7eee1e1c1c
786cfc1c1c
7018381c1c
3030301c1c
0060001c1c
00000c1c1c
fffffe1c1c
01c7001c1c
01c7001c1c
01c7001c1c
01c7181c1c
61c73c1c1c
7fcffe1c1c
71861e1c1c
70001c1c1c
70001c1c1c
70001c181c
70001c001c
71c61c001c
ffe7fc001c
61c718001c
01c700001c
01c700003c
01c7080ffc
01c71c01f8
fffffe0070
0000000060
ENDCHAR
STARTCHAR 2140
ENCODING 8512
SWIDTH 903 0
DWIDTH 40 0
BBX 40 40 0 -6
BITMAP
0180000000
01f00c0030
01e00e0078
01c00ffffc
01c40e003c
01ce0e0038
01ff0e0038
01c00e0038
01c00e0038
01c00ffff8
31ce0e0038
3fff0e0038
380e0e0038
380e0e0038
380e0e0038
380e0ffff8
380e0e0030
3ffe0c0000
380e000000
380e000010
380e000038
380e1ffffc
380e001c00
3ffe001c00
31cc001c00
01c0001c00
01c0001c04
01c0001c0e
01c27fffff
01c7001c00
ffff801c00
01c0001c00
01c0001c00
01c0001c00
01c0001c00
01c0001c00
01c0001c00
01c0001c00
01c0001c00
0180001800
ENDCHAR
STARTCHAR 2141
ENCODING 8513
SWIDTH 903 0
DWIDTH 40 0
BBX 40 40 0 -6
BITMAP
0000300000
00003e0000
00003c0020
0000380070
00003ffff8
0000380000
1800380070
1ffffffff8
1c07038078
1c07038070
1c0e03c070
1c1c01fe70
1c3800fe70
1ce0000070
1800000060
0000000000
03ffffff80
0380000380
0380000380
03ffffff80
0380000380
0380000380
03ffffff80
000000000c
000000001e
ffffffffff
0000380000
0000380000
1800380070
1ffffffff8
1c00700078
1c00e70070
1c01c1e070
1c07007870
1c1c003c70
1cf0001c70
1c00000070
1c00001ff0
1c000000e0
18000000c0
ENDCHAR
STARTCHAR 2142
ENCODING 8514
SWIDTH 903 0
DWIDTH 40 0
BBX 40 40 0 -6
BITMAP
0000000000
180000000c
1c0000001e
1fffffffff
1c00707000
1c00707060
1c607070f0
1c7ffffff8
1c70707078
1c70707070
1c70707070
1c70707070
1c70707070
1c7ffffff0
1c60000000
1c00000000
1c03800060
1c67cf80f0
1c7c18cff8
1c70306078
1c70306070
1c70306070
1c70306070
1c70306070
1c7f3067f0
1c7030e070
1c7018c070
1870198070
18700b8070
38700f0070
38700f0070
307fdf9ff0
306039c060
300070e000
6000e07800
6001c03e00
4007800ffe
c00e0007fe
80380001f0
01e0000070
ENDCHAR
STARTCHAR 2143
ENCODING 8515
SWIDTH 903 0
DWIDTH 40 0
BBX 40 40 0 -6
BITMAP
0000000000
180000000c
1c0000001e
1fffffffff
1c00000000
1c03003000
1c03c03e00
1c43883c00
1c738e3800
1c638c3800
1c638c3800
1cfffc3800
1c43883808
1c0380381c
1c83843ffe
1ce3877070
1cc3867070
1cc3866070
1dfffed070
1c8004d070
1c0c019070
1c07011070
1c03801870
1c018318e0
1dffff98e0
1c0e0008e0
1c0e000ce0
180e180dc0
180e3c07c0
381ffe0780
381c1e0780
301c1c0fc0
30381c0ee0
30381c1c70
60701c3878
60e03c703f
40cff8e01f
c183f1c00e
8300e38006
0600ce0000
ENDCHAR
STARTCHAR 2144
ENCODING 8516
SWIDTH 903 0
DWIDTH 40 0
BBX 40 40 0 -6
BITMAP
0000000000
180000000c
1c0000001e
1fffffffff
1c00300000
1c003c0000
1c003800c0
1c0c6001e0
1c0ffffff0
1c0e0000f0
1c0e0000e0
1c0fffffe0
1c0e0000e0
1c0e0000e0
1c0fffffe0
1c00030000
1c0003c180
1c00e383c0
1c7ff38700
1c00f3ec00
1c01c3b800
1c03839f00
1c070387fe
1c0e0381fe
1c387f8078
1ce0070018
1c00060000
1800000000
1801860000
3801f38000
3811e1c000
3011c0e200
3031c06260
3031c00638
6071c00c1c
60e1e01c0e
41e0fffe07
c1c0fffe07
81803ffc03
0000000000
ENDCHAR
STARTCHAR 2145
ENCODING 8517
SWIDTH 903 0
DWIDTH 40 0
BBX 40 40 0 -6
BITMAP
06003000c0
07c03e00f8
07803c00f0
07003800e0
07003800e0
07003800e0
07003800e0
07003800e0
07003800e0
07003800e0
7ff3ff8ffe
07003800e0
07003800e0
07003800e0
07003800e0
07003800e0
07003800e0
07003800e0
07003800e0
07003800e0
07003800e0
fff7ffdfff
0e007001c0
0e007001c0
0e007001c0
0e007001c0
0e007001c0
0e007001c0
1c00700180
1c00e00380
1880e20388
38c0c3030c
3061c18606
7031818606
63f39fcc7f
fe37f9dfe3
f837c0df83
703380ce03
3001800600
0000000000
ENDCHAR
STARTCHAR 2146
ENCODING 8518
SWIDTH 903 0
DWIDTH 40 0
BBX 40 40 0 -6
BITMAP
0000c00000
0000700000
0000380000
000038000c
000018001e
ffffffffff
0000000000
0000000000
00fffffe00
00e0000e00
00e0000e00
00e0000e00
00e0000e00
00fffffe00
100000000c
100000001e
3fffffffff
300000000f
700000008e
e0000001cc
efffffffe8
c003838000
0003838000
0003838180
06038383c0
07ff83ffe0
07030301e0
07000001c0
07000001c0
07000001c0
07000001c0
07038301c0
0fffc3ffc0
0603838180
0003838000
0003838000
0003838010
0003838038
7ffffffffc
0000000000
ENDCHAR
STARTCHAR 2147
ENCODING 8519
SWIDTH 903 0
DWIDTH 40 0
BBX 40 40 0 -6
BITMAP
0000c00000
0000700000
0000380000
000038000c
000018001e
ffffffffff
000701c000
030701c300
03e701c3e0
03c701c3c0
0387ffc380
0386398380
0380380380
0380380380
07ffffff80
0300380300
0000380000
3000380030
3800380078
3ffffffffc
380070003c
3800700038
3800e00638
39ffffff38
3801c30038
380381c038
380700f038
380e007fb8
3838001fb8
38fffff638
3b9c007038
381c007038
381c007038
381c007038
381ffff038
3818006078
3800000ff8
38000003f0
38000000e0
30000000c0
ENDCHAR
STARTCHAR 2148
ENCODING 8520
SWIDTH 903 0
DWIDTH 40 0
BBX 40 40 0 -6
BITMAP
0c000000c0
0e000001e0
0ffffffff0
0e00380000
0e00380000
0e00380700
0fffffff80
0e00000700
0e00000700
0e00000700
0e00000700
0fffffff00
0e00380600
0e00380000
0e00380030
0e00380078
1ffffffffc
0c00000000
0000300000
00003e0000
00183c0060
183c3860f0
1ffe387ff8
1c1e387078
1c1c387070
1c1c387070
1c1c387070
1c1c387070
1ffc387ff0
1818386000
0000380020
0000380070
1ffffffff8
0000380000
0000380000
0000380000
000038000c
000038001e
ffffffffff
0000000000
ENDCHAR
STARTCHAR 2149
ENCODING 8521
SWIDTH 903 0
DWIDTH 40 0
BBX 40 40 0 -6
BITMAP
0000300000
00003e0000
00003c0030
0000380078
7ffffffffc
0000380000
0180380c00
01e0380f00
01c0380e00
01e0381d80
03b83838e0
071c787070
0e0cfec030
1c01fb8000
3007b9f000
000f387e00
003c381ffe
00f03807fe
03c03801f8
1e00380038
f800380000
0000300000
0fffffffe0
0000000000
0000000180
06000003c0
07ffffffe0
07000001e0
07000001c0
070fffe1c0
070e00e1c0
070e00e1c0
070e00e1c0
070e00e1c0
070fffe1c0
07000001c0
07000001c0
07ffffffc0
07000001c0
0600000180
ENDCHAR
STARTCHAR 214a
ENCODING 8522
SWIDTH 903 0
DWIDTH 40 0
BBX 40 40 0 -6
BITMAP
000000c000
0000007000
0000003800
000020380c
000020181e
60607fffff
70f060000f
7ff8e0c00e
7079c0700c
7071803818
7070003800
707000180c
7070fffffe
7070000000
7070000060
7070180078
70700c00f0
70700600e0
70700701c0
7070038180
7070038304
707001820e
7071ffffff
7070000000
7070000000
7070000030
7070300078
70703ffffc
7ff038003c
7070380038
7060380038
7000380038
60003ffff8
0000380038
0000380038
0000380038
0000380038
00003ffff8
0000380038
0000300030
ENDCHAR
STARTCHAR 214b
ENCODING 8523
SWIDTH 903 0
DWIDTH 40 0
BBX 40 40 0 -6
BITMAP
000000c000
0000007000
0000003800
000020380c
000020181e
60607fffff
70f063030f
7ff8e3c3ce
7079c3838c
7071838388
70707ffffc
7070038380
7070038380
7070038380
70703ffff8
7070038380
7070038380
7070038386
7071ffffff
7070070180
70700e00e0
70701c0078
707038003f
70707fffff
7070ee00ee
7071ce00e6
70770e00e0
70700e00e0
7ff00e01e0
70700effe0
70600e0fc2
70000e0382
60000e0306
00000e0006
00000e000c
00000f001c
00000ffffe
000007fffe
000001fffc
0000000000
ENDCHAR
STARTCHAR 214c
ENCODING 8524
SWIDTH 903 0
DWIDTH 40 0
BBX 40 40 0 -6
BITMAP
0000018000
000000e000
000040700c
000040301e
0000ffffff
6060c3000f
70f1c3c00e
7ffb87818c
707b0703c8
70700fffe0
70701c03c0
70703a0380
7070730700
7071c1ce00
707700fc00
707000fe00
707001ef80
70700383fe
70700e00fe
707038003c
7070e0000c
7073bffff0
7070038000
7070038180
70700700e0
70700e0070
70701c3ff8
70707ff038
7ff07e3e18
7070383c00
7060003820
7000003870
60007ffff8
0000003800
0000003800
0000003800
0000003808
000000381c
0001fffffe
0000000000
ENDCHAR
STARTCHAR 214d
ENCODING 8525
SWIDTH 903 0
DWIDTH 40 0
BBX 40 40 0 -6
BITMAP
000000c000
0000007000
0000003800
000020380c
000020181e
60607fffff
70f0e1c70f
7ff9e1c70c
7079c38708
7071870700
70700e0780
70701c03fe
70703800fe
7070e00000
7070000060
70701800f0
70701ffff8
70701c0078
70701c0070
70701c0070
70701c0070
70701c0070
70701ffff0
70701c3060
7070183e00
7070003c00
7070003808
707000381c
7ff0fffffe
7070003800
7060183800
70001e38c0
60003c3870
000038383c
000070381e
0000e0380e
0001c03806
0003003800
0000003800
0000003000
ENDCHAR
STARTCHAR 214e
ENCODING 8526
SWIDTH 903 0
DWIDTH 40 0
BBX 40 40 0 -6
BITMAP
00000000c0
00000390f0
0003ffd1c0
0000039b80
0000038e0c
60c3030c1e
71e1870638
7ff0c60670
70f0ee03c0
70e07c0180
70e03801c0
70e03000e0
70e0600078
70e0c0003f
70e187181f
70e3ff9fee
70e60718e6
70ec0718e0
70e00718e0
70e00718e0
70e18718e0
70e1ff38fc
70e1c6307e
70e1c0603e
70e380c000
70e3800000
70e3870070
70e7ffbff8
7fe3071078
70e0071870
70c0070870
7000070ce0
60000707c0
00000f0380
00000e07c0
00001e0ef0
0007fc1c7f
000078383f
000070e01e
0000638006
ENDCHAR
STARTCHAR 214f
ENCODING 8527
SWIDTH 903 0
DWIDTH 40 0
BBX 40 40 0 -6
BITMAP
0000000300
00000003d8
000000038e
0000000387
0000000387
60c0000383
71e0000380
7ff7ffffff
70f0000380
70e0000380
70e0000380
70e000c380
70e1ffe380
70e0000380
70e0000380
70e0006380
70e3fff380
70e0000380
70e0000380
70e180e380
70e1fff380
70e1c0e380
70e1c0e380
70e1c0e1c0
70e1ffe1c0
70e1c0e1c0
70e1c0e1c0
70e1c0e1c0
7fe1ffe0e1
70e1c0e0e1
70c1c0e0e1
7001c0e073
6001ffe073
0000c00076
0001e1803e
0001c0e03e
000380701e
000700381f
000e00380f
0018001806
ENDCHAR
STARTCHAR 2150
ENCODING 8528
SWIDTH 903 0
DWIDTH 40 0
BBX 40 40 0 -6
BITMAP
0000000000
0000c06018
0000f8703c
0000f07ffe
0000e0701e
60c0e0701c
71e0e0701c
7ff0e0701c
70f0e0701c
70e0e07ffc
70e0e4701c
70effe701c
70e0e0701c
70e0e0701c
70e0e0701c
70e0e07ffc
70e0e06018
70e0e00000
70e0e00004
70e0e0000e
70e0e1ffff
70e0e00380
70e0e00380
70e0e00380
70e0e06380
70e0e07b80
70e0e0738c
70e0e073fe
7fe0e07380
70e0ee7380
70c0f86380
7001f0f380
601fc0d380
001f01db80
000e018f80
0006038780
00000303ff
00000601fe
00000c007c
0000180000
ENDCHAR
STARTCHAR 2151
ENCODING 8529
SWIDTH 903 0
DWIDTH 40 0
BBX 40 40 0 -6
BITMAP
0001800600
0001f007b0
0001e0071c
0001c0070e
0001c00706
60c1c7ffff
71e1c00700
7ff1c00700
70f1c1871c
70e1c1fffe
70e1d9c71c
70effdc71c
70e1c1c71c
70e1c1c71c
70e1c1fffc
70e1c1c71c
70e1c1c71c
70e1c1c71c
70e1c1c71c
70e1c1fffc
70e1c1c71c
70e1c1c71c
70e1c1c7fc
70e1c1c638
70e1c18070
70e1c00070
70e1c00076
70e1c7ffff
7fe1c00070
70e1c18070
70c1c0e070
7001c07070
6001c07070
0001c03070
0001c00070
0001c000f0
0001c03ff0
0001c007e0
0001c001c0
0001800180
ENDCHAR
STARTCHAR 2152
ENCODING 8530
SWIDTH 903 0
DWIDTH 40 0
BBX 40 40 0 -6
BITMAP
0000000000
0000000004
000000000e
0001ffffff
000001c700
606001c700
70f001c718
7ff861c73c
70787ffffe
707071c71e
707071c71c
707071c71c
707071c71c
707071c71c
707071c71c
70707ffffc
7070603018
7070003e00
7070003c00
7070003820
7070003870
70703ffff8
7070003800
7070003800
7070003804
707000380e
7071ffffff
7070000000
7ff0003000
7070003e00
7060003c20
7000003870
60003ffff8
0000003800
0000003800
0000003800
0000003804
000000380e
0001ffffff
0000000000
ENDCHAR
STARTCHAR 2153
ENCODING 8531
SWIDTH 903 0
DWIDTH 40 0
BBX 40 40 0 -6
BITMAP
0000c00000
0000f800c0
0000f001e0
0000e1fff0
0000e038f0
6000e038e0
71dffe38e0
7fe0e038e0
71c0e038e0
71c0e038e0
71c0e038e0
71c0e038e0
71ffff38e0
71c318fee0
71c31838e0
71c31838e0
71c31838e0
71c31c38e0
71c60fb8e0
71c6c7b8e0
71ccf038e0
71d8e0fee0
71f0e038e0
71c0e038e0
71c0ec38e0
71cffe38e0
71c0e038e0
71c0e038e0
7fc0e038e0
71c0e038e0
7180e030e0
7000e070e1
6000ff60e1
003fc060e3
003f00c0e3
001c00c0f6
000c0180ff
000003007f
000006001e
00000c0000
ENDCHAR
STARTCHAR 2154
ENCODING 8532
SWIDTH 903 0
DWIDTH 40 0
BBX 40 40 0 -6
BITMAP
0000003000
0000003e00
0000003c00
0000003804
000000380e
6061ffffff
70f0003800
7ff8003800
7078003860
70701838f0
70701ffff8
70701c0078
70701c0070
70701c0070
70701c0070
70701ffff0
7070186060
7070003000
7070003808
707000181c
7070fffffe
7070000180
70700601e0
70700301c0
7070018380
707001c304
707000c60e
7071ffffff
7ff0003800
7070003800
7060003810
7000003838
60007ffffc
0000003800
0000003800
0000003800
0000003800
0000003800
0000003800
0000003000
ENDCHAR
STARTCHAR 2155
ENCODING 8533
SWIDTH 903 0
DWIDTH 40 0
BBX 40 40 0 -6
BITMAP
0000300600
00003c07c0
00003c0780
0000380730
000038071c
60c039870e
71e7ffc70e
7ff0380706
70f0380700
70e0380700
70e3380704
70e3ff870e
70e383ffff
70e3838700
70e3838700
70e3838700
70e3838700
70e3ff8718
70e383871f
70e383871e
70e383871c
70e383871c
70e3838738
70e3ff8738
70e33b0738
70e0380770
70e0380770
70e03883e0
7fe039c3e0
70efffe3c0
70c03803c0
70003807c1
60003807e1
0000380ee3
0000381c73
000038387e
000038703e
000038e01f
00003b800f
0000300006
ENDCHAR
STARTCHAR 2156
ENCODING 8534
SWIDTH 903 0
DWIDTH 40 0
BBX 40 40 0 -6
BITMAP
0000003000
0000003e00
0000003c00
0000003804
000000380e
6061ffffff
70f0003800
7ff8183860
70781e3878
70701c3870
70701c3870
70703b38e8
707031b8cc
707060b986
7070c07d02
707180fe00
707001fb00
707003b9c0
70700738f0
70701c387f
707038383f
7070e0380e
7073803806
7070003830
7070303078
70703ffffc
707038003c
7070380038
7ff0380038
7070380038
7060380038
70003ffff8
6000380038
0000380038
0000380038
0000380038
0000380038
00003ffff8
0000380038
0000300030
ENDCHAR
STARTCHAR 2157
ENCODING 8535
SWIDTH 903 0
DWIDTH 40 0
BBX 40 40 0 -6
BITMAP
0000600000
00007c6018
000078703c
0000707ffe
000070701e
60c070701c
71e070701c
7ff076701c
70f7ff701c
70e0707ffc
70e070701c
70e070701c
70e070701c
70e070701c
70e070701c
70e0707ffc
70e0706018
70e0700000
70e0770004
70e07c000e
70e0f1ffff
70eff00380
70eff00380
70e7700380
70e3706380
70e0707b80
70e070738c
70e07073fe
7fe0707380
70e0707380
70c0706380
700070f380
600070d380
000071db80
0000718f80
0000738780
000ff303ff
0003f601fe
0000ec007c
0000c80000
ENDCHAR
STARTCHAR 2158
ENCODING 8536
SWIDTH 903 0
DWIDTH 40 0
BBX 40 40 0 -6
BITMAP
0000000030
0000000078
0003fffffc
0000070000
00000e0300
60601c01c0
70f03800e0
7ff8700070
7078e07ff8
7071fff038
7071f87018
7070e07000
7070007018
7071fffffc
7070007000
7070007000
7070007000
7070007006
7077ffffff
7070000000
7070000010
7070000038
7073fffffc
7070070000
70700e0300
70701c01c0
70703800e0
7070700070
7ff0e07ff8
7071fff038
7061f87018
7000e07000
6000007018
0001fffffc
0000007000
0000007000
0000007004
000000700e
0007ffffff
0000000000
ENDCHAR
STARTCHAR 2159
ENCODING 8537
SWIDTH 903 0
DWIDTH 40 0
BBX 40 40 0 -6
BITMAP
0000000000
000000000c
000000001e
0007ffffff
000000e000
606000c000
70f0018030
7ff8c30078
7078fffffc
7070e38e3c
7070e38e38
7070e38e38
7070e38e38
7070e38e38
7070e38e38
7070e38e38
7070e38e38
7070e38ff8
7070e30c70
7070c00060
7070000004
707000000e
7077ffffff
707000e000
707000c000
7070018030
7070c30078
7070fffffc
7ff0e38e3c
7070e38e38
7060e38e38
7000e38e38
6000e38e38
0000e38e38
0000e38e38
0000e38e38
0000e38e38
0000e38ff8
0000e30c70
0000c00060
ENDCHAR
STARTCHAR 215a
ENCODING 8538
SWIDTH 903 0
DWIDTH 40 0
BBX 40 40 0 -6
BITMAP
00030000c0
0c078301e0
0fffc3fff0
0e03c380f0
0e038380e0
0e038380e0
0e038380e0
0e038380e0
0e038380e0
0fff83ffe0
0e030300c0
0c00000000
0000000000
0003000060
0007800078
3fffce00f0
0003c381e0
000380f3c0
0003803f80
1fff801f00
0003803fc0
00038071f0
000381e07c
3fff83801e
00030e000e
3000380000
3e00000060
3c0c060078
383e0300f0
39ff0181c0
3f8000e380
3800007700
3800003e00
3800003e00
3c00007f80
3fff00f7f0
1fff83c1ff
07ff8f007f
00003c003c
0000f0000c
ENDCHAR
STARTCHAR 215b
ENCODING 8539
SWIDTH 903 0
DWIDTH 40 0
BBX 40 40 0 -6
BITMAP
00030000c0
0c078301e0
0fffc3fff0
0e03c380f0
0e038380e0
0e038380e0
0e038380e0
0fff83ffe0
0e030300c0
0c00000000
0000000030
0000000078
7ffffffffc
0001c00000
0003800000
0003000600
0186000f00
01ffffff80
01c0000780
01c0000700
01c0000700
01c0000700
01ffffff00
01c0000700
01c0000700
01c0000700
01c0000700
01ffffff00
01c0000700
01c0000700
01c0000700
01c0000700
01ffffff00
0180000600
001800f000
003e001f00
00fc0007e0
03e00001fc
0f0000007e
780000001e
ENDCHAR
STARTCHAR 215c
ENCODING 8540
SWIDTH 903 0
DWIDTH 40 0
BBX 40 40 0 -6
BITMAP
0000000000
00030000c0
0c078301e0
0fffc3fff0
0e03c380f0
0e038380e0
0e038380e0
0e038380e0
0e038380e0
0fff83ffe0
0c030300c0
0000000000
0000001800
0060003c00
007ffffe00
0070001e00
0070001c00
0070001c00
0070001c00
0070001c00
0070001c00
0070001c00
007ffffc00
0060001800
0000000000
0000000000
3003030030
3807838078
3fffc3fffc
3803c3803c
3803838038
3803838038
3803838038
3803838038
3803838038
3803838038
3803838038
3fff83fff8
3803038030
3000030000
ENDCHAR
STARTCHAR 215d
ENCODING 8541
SWIDTH 903 0
DWIDTH 40 0
BBX 40 40 0 -6
BITMAP
0000000000
000000000c
0000c0001e
0000ffffff
0000e1c70f
6060e1c70e
70f0e1c70e
7ff8e1c70e
7078e1c70e
7070e1c70e
7070fffffe
7070c00000
7070000000
707000000c
707000001e
7071ffffff
7070007800
707000f000
707001e018
707003b01e
707007383c
70701c3c38
7070707c70
7071c0eee0
707001cf80
7070038700
7070070f80
70700e1fc0
7ff01c3f60
7070707730
7061c0e73c
700001c71f
600003870f
00000e0706
0000380700
0000e00f00
000383fe00
0000003c00
0000003800
0000003000
ENDCHAR
STARTCHAR 215e
ENCODING 8542
SWIDTH 903 0
DWIDTH 40 0
BBX 40 40 0 -6
BITMAP
000000c000
000000f800
000000f000
000001e030
000001c078
606003fffc
70f007007c
7ff80ec070
70781c70e0
70707039c0
7071c01b80
7070070f00
70703c1e00
7071f03800
7070e0f000
707061c000
7070073000
70701c1800
7070f01c08
7070000c1c
7070fffffe
70700000c0
70700c00e0
70700601c0
7070030180
7070038304
707001860e
7071ffffff
7ff0000000
7070000060
70601800f0
70001ffff8
60001c0078
00001c0070
00001c0070
00001c0070
00001c0070
00001ffff0
00001c0070
0000180060
ENDCHAR
STARTCHAR 215f
ENCODING 8543
SWIDTH 903 0
DWIDTH 40 0
BBX 40 40 0 -6
BITMAP
0000030600
000003e7c0
000003c780
0000038700
0000038708
606003871c
70f1ff87fe
7ff8038700
7078038700
7070038700
7070038710
7070038738
7070ff87fc
7070038700
7070038700
7070038700
7070038704
707003870e
70700f87ff
70707b8700
7073e38700
7073c38700
7071838700
7070038700
7070030600
7070003000
70700c1800
70700f9c00
7ff00f0e00
70704e0e00
70604e0658
7000ce004c
6000ce00ce
0001ce00c7
00018e0187
00038f0387
000787ffc3
000703ffc0
000600ff80
0000000000
ENDCHAR
STARTCHAR 2160
ENCODING 8544
SWIDTH 903 0
DWIDTH 40 0
BBX 40 40 0 -6
BITMAP
000000c000
000000f000
000000e000
000001c018
000061803c
60607ffffe
70f070001e
7ff870001c
707870001c
707070001c
707070001c
70707ffffc
707070001c
707070001c
707070001c
707070001c
707070001c
70707ffffc
7070603818
7070003800
7070003800
707006380c
7070ff39fe
7070003800
7070003800
707006380c
7070ff39fe
7070003800
7ff0003800
7070003806
7061ffffff
7000003800
6000003800
0000003800
0000003800
0000003800
0000003800
0000003800
0000003800
0000003000
ENDCHAR
STARTCHAR 2161
ENCODING 8545
SWIDTH 903 0
DWIDTH 40 0
BBX 40 40 0 -6
BITMAP
0000000000
00000000f0
00000007f8
0000003ffc
000003fc00
6060ff3800
70f0003800
7ff8003800
7078183860
70701e3878
70701c3870
70701c3870
70703a38e8
70703338cc
707061b98e
7070c1bb06
7071803e06
7070003800
7070183860
70701e3878
70701c3870
70701c3870
70703a38e8
70703338cc
707061b986
7070c1bb06
7071803e00
7070003800
7ff0003830
7070003878
7060fffffc
7000003800
6000003800
0000003800
0000003800
0000003800
000000380c
000000381e
0003ffffff
0000000000
ENDCHAR
STARTCHAR 2162
ENCODING 8546
SWIDTH 903 0
DWIDTH 40 0
BBX 40 40 0 -6
BITMAP
0000001f00
000003ff80
0000ffffc0
003ffe0000
0ffe000300
0000c003c0
0600700780
0380380700
01c0380c00
00e0181800
0060000000
0000001f00
000001ff80
00003fffc0
000ffe0000
07ff000600
0000600780
00c0380f00
00701c0c00
00380c1800
0018003000
0300000380
03ffffffc0
0380300380
03803c0380
0380380380
0380380380
03bffffb80
0380380380
0380380380
038c38e380
038ffff382
038e00e382
038e00e1c6
070e00e1c6
070e00e0ec
0e0fffe07c
1c0c00c03e
380000001e
600000000c
ENDCHAR
STARTCHAR 2163
ENCODING 8547
SWIDTH 903 0
DWIDTH 40 0
BBX 40 40 0 -6
BITMAP
0000003c00
00000fff00
0001ffff80
0fffc00000
0000000c00
0000c00e00
0180701c00
00e0383800
0070186000
0030000000
00fffff000
00e0007000
00e0007000
00e000e700
00ffffff80
01c0000700
01c0000700
01c0000e38
03fffffffc
0380000038
0700003038
0700181c38
0e460e0e38
0cc3870638
18c1c30078
31c0c03ff0
63800001e0
c3000001c0
0000000000
0180000700
01ffffff80
01c0000700
01c0000700
01c0000700
01c0000700
01c0000700
01c0000700
01ffffff00
01c0000700
0180000600
ENDCHAR
STARTCHAR 2164
ENCODING 8548
SWIDTH 903 0
DWIDTH 40 0
BBX 40 40 0 -6
BITMAP
0000003000
0030003c00
001c007800
000e007000
000700e000
000380c000
3003818030
3801830078
3ffffffffc
380030003c
38003e0038
38003c0038
3800381838
387ffffc38
3800380038
3800380038
3800380638
39ffffff38
3800000038
3830003838
383ffffc38
3838003838
3838003838
3838003838
383ffff838
3830e40638
3801f60f38
3803c31c38
380781b038
380f81c038
383b9ce038
38e3f07838
3b83e03e38
3803801e38
3801800c38
3800000038
3ffffffff8
3800000038
3800000030
3000000000
ENDCHAR
STARTCHAR 2165
ENCODING 8549
SWIDTH 903 0
DWIDTH 40 0
BBX 40 40 0 -6
BITMAP
0000000000
3000000030
3800000078
3ffffffffc
380030003c
38003c6038
3818387038
380e38e038
380738c038
3803398038
38fffffe38
3800700038
3800700038
3800e00638
39ffffff38
3801c30038
380381c038
380730f038
380e607fb8
381cc31fb8
3839878f38
38e0ce0338
3b8078c038
3800e06038
3801803038
38070ff838
381ffc1838
381fdcc038
380c1c7038
380e1c3838
381c1c1c38
38381c1c38
3871fc0c38
38c0380038
3800300038
3800000038
3ffffffff8
3800000038
3800000030
3000000000
ENDCHAR
STARTCHAR 2166
ENCODING 8550
SWIDTH 903 0
DWIDTH 40 0
BBX 40 40 0 -6
BITMAP
0000000000
3000000030
3800000078
3ffffffffc
380000003c
3800038038
38001fe038
3801fff038
387f800038
3800606038
3860307838
3838387038
381c186038
380c00c038
3860009c38
387ffffe38
3871c71c38
3871c71c38
3871c71c38
3871c71c38
387ffffc38
3860006038
3800007838
3800007038
39ffffff38
3800007038
3818007038
380e007038
3807007038
3807007038
380300f038
38003ff038
380007e038
380001c038
3800018038
3800000038
3ffffffff8
3800000038
3800000030
3000000000
ENDCHAR
STARTCHAR 2167
ENCODING 8551
SWIDTH 903 0
DWIDTH 40 0
BBX 40 40 0 -6
BITMAP
00000000c0
00000001e0
1ffffffff0
00000000f0
00000000e0
0c000000e0
0fffffffe0
0e000000c0
1c00000000
1c0000001c
3ffffffffe
180000001e
000000001c
03ffffe01c
0380c0e01c
03998ce01c
038718e01c
038ce0e01c
0398d8e03c
038180e038
03ffffe078
0300301ff0
00003c01e0
00003801c0
0000380180
07ffffffc0
0000380000
0000380000
0000380030
3ffffffff8
0000300000
00003c0000
0000380000
0000380180
07ffffffc0
0000380000
0000380010
0000380038
3ffffffffc
0000000000
ENDCHAR
STARTCHAR 2168
ENCODING 8552
SWIDTH 903 0
DWIDTH 40 0
BBX 40 40 0 -6
BITMAP
0000018000
060000e000
07c0007000
078080700c
070080301e
0701ffffff
0703838e0f
0707038e0e
0707070e0c
07060e0e18
07301c0f00
fff83807fc
07007001fc
0701c06000
0700007c00
0700607800
0700787000
0700707020
0700707070
07007ffff8
0700e07000
0700c07000
0701807000
0703007008
070000701c
0703fffffe
0700000000
0700000000
0738000060
07e06000f0
07807ffff8
1f00700078
fc00700070
f800700070
7000700070
3000700070
0000700070
00007ffff0
0000700070
0000600060
ENDCHAR
STARTCHAR 2169
ENCODING 8553
SWIDTH 903 0
DWIDTH 40 0
BBX 40 40 0 -6
BITMAP
0000000000
0300000018
03e000003c
03c07ffffe
038000001e
038000001c
03801fff1c
038000e01c
038000e01c
038000e31c
038c3fff9c
fffe00001c
038000001c
03807ffffc
0380700000
0380700000
038071fff0
0380700e00
0380700e00
0380e00e30
0380e3fff8
0380e00000
0380e0000e
0381ffffff
0380c0000e
038000000e
038030070e
03803fff8e
038e38070e
03f838070e
03e038070e
0f803fff0e
fe0030060e
fc0000001e
700000001c
300000003c
000003fff8
0000000ff0
00000001e0
00000001c0
ENDCHAR
STARTCHAR 216a
ENCODING 8554
SWIDTH 903 0
DWIDTH 40 0
BBX 40 40 0 -6
BITMAP
0000000000
060000000c
07c000001e
0787ffffff
0700038e00
0700038e00
0700038e00
0700038e18
0701838e3c
0701ff8ffe
0731c38e1e
fff9c38e1c
0701c38e1c
0701c38e1c
0701c38e1c
0701c38e1c
0703ff8ffc
0701838e18
0700038e00
0700038e00
0700038e00
0700038e30
0700c38e78
0700fffffc
0700e0703c
0700e07038
0700e07038
0700e07038
0738e07038
07e0e07038
0780fffff8
1f00e07038
fc00e07038
f800e07038
7000e07038
3000e07038
0000e07038
0000fffff8
0000e00038
0000c00030
ENDCHAR
STARTCHAR 216b
ENCODING 8555
SWIDTH 903 0
DWIDTH 40 0
BBX 40 40 0 -6
BITMAP
0000000c00
06000c0f80
07c61e0f00
0787ff0e04
07070f0e0e
07070effff
07070c1c00
07071c1c00
0707181c00
070718380c
0727303ffe
fff73071c0
07076061c0
070760c1c0
07072181c0
07073301c6
070718ffff
07071c0000
07070c0000
07070e301c
07070e3ffe
070707381c
070707381c
0707073e1c
0707073b9c
07070739dc
07070738dc
07070f381c
0707ff381c
07771e387c
07c71c71dc
1f07187f9c
fe0700771c
f80700631c
700700e01c
300700c03c
000701c7fc
0007018078
0007030070
0006060060
ENDCHAR
STARTCHAR 216c
ENCODING 8556
SWIDTH 903 0
DWIDTH 40 0
BBX 40 40 0 -6
BITMAP
0001800000
0601f0c030
07c1e0e078
0781c0fffc
0701c0e03c
0701c0e038
0701c0e038
0701cce038
071ffee038
0701c0fff8
0761c0e038
fff1c0e038
0701c0e038
0701c0e038
0701c0e038
0701c0fff8
0701c0c030
0701c00000
0701ce0004
0701f8000e
0703e3ffff
073fc00700
073fc00700
071dc00700
070dc18700
0701c1f708
0701c1e71c
0701c1c7fe
0739c1c700
07e1c1c700
0781c1c700
1f01c1c700
fc01c3a700
f801c3b700
7001c31f00
3001c70f00
003fce07ff
000fcc03ff
00039800fe
0003100000
ENDCHAR
STARTCHAR 216d
ENCODING 8557
SWIDTH 903 0
DWIDTH 40 0
BBX 40 40 0 -6
BITMAP
0000000000
030000000c
03e000001e
03c1ffffff
0380007000
0380006000
038000c018
038061803c
03807ffffe
038071c71e
038c71c71c
fffe71c71c
038071c71c
038071c71c
038071c71c
038071c71c
038071c71c
038071c7fc
0380718638
0380600030
0380000000
0380000006
0381ffffff
0380007000
0380006000
038000c018
038061803c
03807ffffe
038e71c71e
03f871c71c
03e071c71c
0f8071c71c
fe0071c71c
fc0071c71c
700071c71c
300071c71c
000071c71c
000071c7fc
0000718638
0000600030
ENDCHAR
STARTCHAR 216e
ENCODING 8558
SWIDTH 903 0
DWIDTH 40 0
BBX 40 40 0 -6
BITMAP
0000000000
0600030018
07c1878c3c
0781ffcffe
0701c3ce1e
0701c38e1c
0701c38e1c
0701c38e1c
0701c38e1c
0701ff8ffc
0731830c18
fff80000c0
07003000f0
07001c01e0
07000e0180
070007030c
070003061e
0707ffffff
0700007000
0700007000
0700c07030
0700f8703e
0700f0703c
0700e07038
0700e07038
0700e07038
0700e07038
0700e07038
0738e07038
07e1fffff8
0780c07038
1f0000e030
fc0000e000
f80001c000
7000038000
3000070000
00000e0000
00001c0000
0000700000
0001c00000
ENDCHAR
STARTCHAR 216f
ENCODING 8559
SWIDTH 903 0
DWIDTH 40 0
BBX 40 40 0 -6
BITMAP
0000300000
00003e0000
00003c0180
00003803c0
0fffffffe0
0000380000
0000380000
0000380018
000038003c
7ffffffffe
0000000000
0000000000
00c0000e00
00ffffff00
00e0380e00
00e0380e00
00e0380e00
00fffffe00
00e0380e00
00e0380e00
00e0380e00
00fffffe00
00d8006000
001e007800
001c007040
001c0070e0
0fffc7fff0
001c007000
001c007000
001c007008
001800601c
7ffffffffe
0000000000
0018007000
003e001e00
0078000780
01e00001c0
07800000f0
1c00000078
7000000038
ENDCHAR
STARTCHAR 2170
ENCODING 8560
SWIDTH 903 0
DWIDTH 40 0
BBX 40 40 0 -6
BITMAP
0000300000
00003e0000
01803c0600
01e03807c0
01c0380780
01c7ffc700
01c0380700
01c0380700
01c0380700
01c0380700
01c0386700
01dffff700
01c0000700
01c0000700
01c0000700
01ffffff00
01c0000700
0180000600
0000000000
0000000000
00c0000c00
00f0000f00
60e1860e18
78e1e78e1e
70e1c70e1c
77fdc77fdc
70e1c70e1c
70e1c70e1c
70e1c70e1c
70e1c70e1c
70e1c70e1c
70e5c70e5c
7fffc7fffc
7001c7001c
7001c7001c
7001c7001c
7fffc7fffc
7001c7001c
7001c7001c
6001860018
ENDCHAR
STARTCHAR 2171
ENCODING 8561
SWIDTH 903 0
DWIDTH 40 0
BBX 40 40 0 -6
BITMAP
00000000e0
06000003f0
07c0003ff8
078007fc00
0701fe7000
0700007000
0700007000
07003070c0
07003c70f0
07003870e0
07303870e0
fff87471d0
0700667198
0700c6730c
070183760e
0703037c06
0700007000
07003070c0
07003c70f0
07003870e0
07003870e0
0700747190
0700667198
0700c67318
070183760c
0703037c0c
0700007000
0700007010
0738007038
07e1fffffc
0780007000
1f00007000
fc00007000
f800007000
7000007000
3000007000
0000007004
000000700e
0007ffffff
0000000000
ENDCHAR
STARTCHAR 2172
ENCODING 8562
SWIDTH 903 0
DWIDTH 40 0
BBX 40 40 0 -6
BITMAP
00000000e0
0600001ff0
07c007fff8
0781fe7000
0700007000
07003070c0
07003c70f0
07003870e0
07003471d0
0700667198
0730c3730c
fff983760c
0703007c00
07003070c0
07003c70f0
07003870e0
07003871d0
07006c7198
0700c6730c
070187760c
0703037c00
0700007004
070000700e
0707ffffff
070001c000
070001c000
0700038018
070003803c
073807fffe
07e003001e
078000001c
1f0000001c
fc0000001c
f80000001c
700000001c
300000003c
0000003ff8
00000003f0
00000000e0
00000000c0
ENDCHAR
STARTCHAR 2173
ENCODING 8563
SWIDTH 903 0
DWIDTH 40 0
BBX 40 40 0 -6
BITMAP
0000300000
00003e0000
00003c0180
00003803c0
0fffffffe0
0000380000
0000380000
0000380018
000038003c
7ffffffffe
0000000000
0300300000
03e03c0018
03c038003c
07803ffffe
0700380000
0e00700000
1c60600070
387cfffff8
70799c0070
c0f31c0070
00e01ffff0
01e01c0070
03c01c0070
03801ffff0
07800c0000
0f800f0060
1f800e00f0
3b81cffff8
73807c00f8
c3803801e0
03807703c0
0380e18700
038380ee00
038e007e00
038000ffc0
038003c7ff
03800f00ff
038078003e
0307c0000e
ENDCHAR
STARTCHAR 2174
ENCODING 8564
SWIDTH 903 0
DWIDTH 40 0
BBX 40 40 0 -6
BITMAP
00006060c0
06007878f0
07c07070e0
0780e0e1c0
0700c0c180
0701818300
0703030600
0701818300
0700e0e1c0
07007070e0
07303870e0
fff8183060
0700000000
0700000180
07001803c0
07001fffe0
07001c61e0
07001c71c0
07001c61c0
07001cd9c0
07001ccdc0
07001d8dc0
07001d05cc
07031c01de
0703ffffff
070380000f
070380000e
070386070e
073b87ff8e
07e387070e
078387070e
1f0387070e
fc0387070e
f80387ff0e
700386060e
300380001e
00038007fe
00038000fc
0003800038
0003000030
ENDCHAR
STARTCHAR 2175
ENCODING 8565
SWIDTH 903 0
DWIDTH 40 0
BBX 40 40 0 -6
BITMAP
0030003000
003e003e00
003c003c20
0038003870
1ffffffff8
0038003800
0038003800
0038003800
003ffff800
0000000004
000000000e
ffffffffff
0000000000
0000000000
01ffffff00
01c0380700
01c0380700
01c0380700
01ffffff00
01c0380700
01c0380700
01c0380700
01ffffff00
0030000000
007c003800
00f0000f00
01c03003c0
07003e00f0
1c003c0078
7000380038
0000380100
0000380380
07ffffffc0
0000380000
0000380000
0000380000
0000380018
000038003c
7ffffffffe
0000000000
ENDCHAR
STARTCHAR 2176
ENCODING 8566
SWIDTH 903 0
DWIDTH 40 0
BBX 40 40 0 -6
BITMAP
3018000180
383c0003c0
3ffe7fffe0
383e0001e0
38380001c0
38700001c0
38c03fffc0
39800001c0
38c00001c4
38600001ce
3833ffffff
383800f000
381c01e030
381c03b078
381c0738e0
381c1c7d80
381c70ef00
383dc1ce00
3ffc071f00
39f81c3f80
3870707ee0
3861c0ee78
380f038e3c
38000e0e1e
3800381e0e
3801e3fe00
380f003c00
3800303800
30003e3000
00003c0000
0000380080
00003801c0
07ffffffe0
0000380000
0000380000
0000380000
000038000c
000038001e
ffffffffff
0000000000
ENDCHAR
STARTCHAR 2177
ENCODING 8567
SWIDTH 903 0
DWIDTH 40 0
BBX 40 40 0 -6
BITMAP
0c060180c0
0f0781e0f0
0e0701c0e0
0e0701c0e0
0e0701c0e0
0fff03ffe0
0e060180e0
0e000000e0
0e000000e0
0fff83ffe0
0e000000e0
0e000000e0
0e000000e0
0fffffffe0
0c000000c0
0000000000
0000000030
0fff83fff8
0070000e00
0070000e00
0070000e00
0070000e0c
3fffc7fffe
0070000e00
0070000e00
00e0000e00
00c0000e00
0180300e00
03003e0e00
06003c0c00
0000380040
00003800e0
0ffffffff0
0000380000
0000380000
0000380000
000038000c
000038001e
ffffffffff
0000000000
ENDCHAR
STARTCHAR 2178
ENCODING 8568
SWIDTH 903 0
DWIDTH 40 0
BBX 40 40 0 -6
BITMAP
0300000300
03e00703e0
03c7ff83c0
0380078380
03800e0380
0381980384
0380f0038e
fff8703fff
0780318380
078fffc780
0fc071c7c0
0fe0718fe0
1fb0730fe0
1bb8721fb0
3b9c701bb8
339c703b9c
738c70738e
638070638f
c38070c387
8387f18380
0380f30380
0380e00380
0380c00380
0300000300
0000300000
00003e0000
00003c0000
0000380000
00003800c0
00003801e0
0ffffffff0
0000380000
0000380000
0000380000
0000380000
0000380000
000038000c
000038001e
ffffffffff
0000000000
ENDCHAR
STARTCHAR 2179
ENCODING 8569
SWIDTH 903 0
DWIDTH 40 0
BBX 40 40 0 -6
BITMAP
0000300000
00003e0000
00003c0030
0000380078
3ffffffffc
0000380000
0000380000
00003800c0
0fffffffe0
0000000000
000000000c
000000001e
7fffffffff
000030000f
00003c000e
018038070c
01ffffff98
01c0380700
01c0380700
01c0380700
01ffffff00
0180380600
0000380004
000038000e
ffffffffff
0000000300
00000003c0
1807000384
1fff80038e
1c073fffff
1c07000380
1c070c0380
1c07070380
1c07038380
1c07038380
1fff018380
1c07003f80
1c06000780
1800000700
0000000600
ENDCHAR
STARTCHAR 217a
ENCODING 8570
SWIDTH 903 0
DWIDTH 40 0
BBX 40 40 0 -6
BITMAP
0000300000
00003e0000
00003c0000
000038000c
7ffffffffe
0000380000
0000380000
0000380060
0ffffffff0
0000000000
0000000000
01ffffff80
01c0000380
01c0000380
01c0000380
01ffffff80
100000000c
100000001e
1fffffffff
300000000f
730001830e
e3cc03c3cc
e3838f0398
c380fc0390
0381ef0380
038701e380
039c006380
0380000380
07ffffff80
0300300300
00003e0000
00003c0000
0000380180
07ffffffc0
0000380000
0000380000
0000380004
000038000e
ffffffffff
0000000000
ENDCHAR
STARTCHAR 217b
ENCODING 8571
SWIDTH 903 0
DWIDTH 40 0
BBX 40 40 0 -6
BITMAP
0600000000
07c00000c0
07800301e0
071803fff0
0e3c0380f0
0ffe0380e0
1c1e0380e0
181c0380e0
30380398e0
6c38039fe0
c670039ce0
0370039ce0
03e0039ce0
01c0039ce0
0380039ce0
0700039ce0
0e00339cee
1c003fffff
398038000e
71e038000e
c1c638000e
038f38000e
03ffb8c38e
0707b8ffce
070738e38e
0e0738e38e
1c0e38e38e
3b0e38e38e
71dc38e38e
c0f838ff8e
007838e30e
007038c00e
00e038000e
01c038000e
038038000e
070038001e
0e003803fe
1c003800fc
3800380038
6000300030
ENDCHAR
STARTCHAR 217c
ENCODING 8572
SWIDTH 903 0
DWIDTH 40 0
BBX 40 40 0 -6
BITMAP
0000300000
00003e0000
00003c0020
0000380070
1ffffffff8
0000380000
0000380000
0000380180
03ffffffc0
0000700000
0000700004
0000e0000e
ffffffffff
0001c0c000
0003806000
0007003800
000e301e00
003c3e0780
00703c03ff
01c03800ff
076038183c
3c78381e0c
e0f0381c00
01cc383b00
03873871c0
0e63b8c070
3879bb9e30
0070381c00
00ec383b00
01c73871c0
0703b8e0e0
1c01bb8060
0000380000
3ffffffffc
0000380000
0000380000
0000380000
0000380000
0000380000
0000300000
ENDCHAR
STARTCHAR 217d
ENCODING 8573
SWIDTH 903 0
DWIDTH 40 0
BBX 40 40 0 -6
BITMAP
0000300000
00003c0018
000038003c
7ffffffffe
0000380000
0000380000
03ffffff80
0380380380
0380380380
0380380380
03ffffff80
100038000c
100038001e
3fffffffff
300000000f
700000030e
e3ffffff8c
e000300018
c0003c0310
000e380780
1fff3e0e00
001f3b9800
003c39e000
0078387800
00e0381f00
0387f807f8
0e003801f8
7800300060
0000600000
0000780000
000070000c
0000e0001e
ffffffffff
0003800000
000700f000
001e001f00
00780003f0
03e000007c
1f0000001f
f800000007
ENDCHAR
STARTCHAR 217e
ENCODING 8574
SWIDTH 903 0
DWIDTH 40 0
BBX 40 40 0 -6
BITMAP
0000001800
0006001f00
000f031e00
7fff83dcc0
0707839c70
0707071c3c
0707061c1e
07070c1c0e
0707181c06
0707301c00
0707001c00
0707301c0e
0e073fffff
0e07381c0e
1c07381c0e
1c0f381c0e
39fe381c6e
301e3e1c7e
601c3b1cee
c018399cce
818039dd8e
01f038dc0e
01e0381f0e
01c0383d8e
01c2387cee
01c739dc7e
ffffbf9c3e
01c03f1c0e
01c03b1c0e
03b0381c0e
0398381c0e
070c381c0e
070e381c0e
0e07381c0e
0c03b81c0e
1803b81c0e
3001b81c0e
60003818fe
c00038001c
0000300018
ENDCHAR
STARTCHAR 2221
ENCODING 8737
SWIDTH 903 0
DWIDTH 40 0
BBX 40 40 0 -6
BITMAP
0180000000
01f0000180
01e00003c0
01c01fffe0
01c201c1e0
01c701c1c0
ffff81c1c0
03b001c1c0
071c01c1c0
060e01c1c0
0c0701c1c0
198381cdc0
31f1dfffc0
61e0c1c1c0
c1c001c1c0
01c301c1c0
ffff81c1c0
01c001c1c0
01c001c1c0
61c701c1c0
7fff81cdc0
70071fffc0
700701c1c0
700701c1c0
7fff01c1c0
700701c1c0
700701c1c0
700701c1c0
7fff0381c0
63060381c0
03c00381c0
07800381c1
07180701c1
0e0e0701c3
1c070e01c3
387f8c01e6
ffc39801ff
fe01b000ff
700060003e
3000c00000
ENDCHAR
STARTCHAR 2222
ENCODING 8738
SWIDTH 903 0
DWIDTH 40 0
BBX 40 40 0 -6
BITMAP
0000600000
0000780000
0000f00000
0000e00018
0001c0003c
7ffffffffe
000700c000
000e006000
001c003000
0038001c00
0070000f00
00e03007e0
01de1c01ff
071c0e00ff
0e3806063e
383fffff0e
e0700e0000
00f00e0000
01f00e0c00
037ffffe00
06700e0000
00700e0000
00700e0c00
007ffffe00
00700e0000
00700e0000
00700e0300
007fffff80
0060300000
00003c0020
0000380070
3ffffffff8
0000380000
0030380000
007c387800
01f8380f00
07c03803e0
1e003800f8
f000380038
0000300000
ENDCHAR
STARTCHAR 2223
ENCODING 8739
SWIDTH 903 0
DWIDTH 40 0
BBX 40 40 0 -6
BITMAP
0060000000
007c000180
00780003c0
0070cfffe0
3fffe0e1e0
007000e1c0
007000e1c0
fffff0e1c0
038707fdc0
038700e1c0
070700e1c0
0e67f0e1c0
1c7bf7fdc0
387000e1c1
e07001c1c1
1fffc1c1c3
00700381c3
00700301e6
00700601ff
ffffec00ff
ff8018003e
7006300000
3007800000
0007003000
0007003c00
000e003804
000e00380e
ffffffffff
001c007000
0038007000
003800e000
007001c000
00ff038000
0063ff0000
00003fe000
000078fc00
0001e01f80
000f0007e0
00f80001f0
3f80000070
ENDCHAR
STARTCHAR 2224
ENCODING 8740
SWIDTH 903 0
DWIDTH 40 0
BBX 40 40 0 -6
BITMAP
0000000000
0003000030
0007800078
7fffc7fffc
0000000000
0000000000
1803830070
1fffc3fff8
1c03838070
1c03838070
1c03838070
1fff83fff0
1c03838070
1c03838070
1c03838070
1fff83fff0
1c03838070
1c03838070
1c03838070
1fff83fff0
1c00030060
1806000000
0007800000
0007003000
0007003c00
000e003804
000e00380e
ffffffffff
001c007000
0038007000
003800e000
007001c000
00ff038000
0063ff0000
00003fe000
000078fc00
0001e01f80
000f0007e0
00f80001f0
3f80000070
ENDCHAR
STARTCHAR 2225
ENCODING 8741
SWIDTH 903 0
DWIDTH 40 0
BBX 40 40 0 -6
BITMAP
0000c00180
0000f001f0
0001e001e0
00039c01c0
000f0781c0
0038c1e1c0
01e0f061c0
0001e001c0
00039c01c0
000e0781c0
003801e1c0
01e000e1c0
06000001c0
07ffffffc0
0700000180
0700000000
070fffffc0
070e0001c0
070e0001c0
070fffffc0
070e0001c0
070e0001c0
070fffffc0
070e0001c0
070e0001c0
070fffffc0
070cc00000
0700f00600
0700e00788
0700e0071c
077ffffffe
0e01c00e00
0e03801c00
0e07003800
1c0ffcf000
1c063fe000
38000ffe00
30007e1fc0
6007f001f8
c0ff000078
ENDCHAR
STARTCHAR 2226
ENCODING 8742
SWIDTH 903 0
DWIDTH 40 0
BBX 40 40 0 -6
BITMAP
0006300000
000f3e0180
063fbc03c0
07e039ffe0
07003801e0
07003801c0
07003801c0
07fe38ffc0
07003801c0
07003801c0
07003801c0
07ffffffc0
0600380180
0000380008
000038001c
7ffffffffe
0000300000
00003c0000
06003801c0
07ffffffe0
07003801e0
07003801c0
07003801c0
07ffffffc0
0600380180
000c380000
000f303000
000e003c0c
000e00381e
ffffffffff
0038007000
007000e000
00e001c000
03ff838000
0181ffc000
00003ff800
0000f07f80
0007800fe0
007c0001f0
1fc0000070
ENDCHAR
STARTCHAR 2227
ENCODING 8743
SWIDTH 903 0
DWIDTH 40 0
BBX 40 40 0 -6
BITMAP
0003000000
060f800180
073fc003c0
07e007ffe0
07000001e0
07000001c0
07000001c0
07ff83ffc0
07000001c0
07000001c0
07000001c0
07ffffffc0
0607018180
000e00e000
001c007800
0038301e00
00703e07c0
00e03c03ff
03803800ff
0fffffffbc
3b8038038c
e380380380
0380380380
0380380380
03ffffff80
0300380300
0006380000
0007b06030
0007007078
3ffffffffc
000e007000
001c00e000
003800e000
007fc1c000
0030ff8000
00001ff000
0000f8fc00
0007c01f00
007e0007c0
07e00001c0
ENDCHAR
STARTCHAR 2228
ENCODING 8744
SWIDTH 903 0
DWIDTH 40 0
BBX 40 40 0 -6
BITMAP
0000006000
0c00003000
0f80003804
0f0000180e
0e01ffffff
0e00060180
0e000301c0
0e30018380
0e3821c30c
0e3820c61e
0efe7fffff
fff8e0300f
ff39e03c0c
6e39c03818
0e39803810
0e383ffff8
0e38383838
1c38383838
1c38383838
1c38383838
1c38383838
3870383bf8
3870383870
3870303860
7070003800
70e0003000
7ce0300038
0fc03ffffc
03c038003c
03e0380038
07f0380038
0778380038
0e3c380038
0c1c380038
180c380038
3000380038
60003ffff8
c000380038
0000380030
0000300000
ENDCHAR
STARTCHAR 2229
ENCODING 8745
SWIDTH 903 0
DWIDTH 40 0
BBX 40 40 0 -6
BITMAP
0000000000
180180000c
1f01c0001e
1e01ffffff
1c01c0000f
1c01c0000e
1c01c0000e
1ce1c0000e
1ce1fffffe
1ce1c00000
1cf9c00070
ffe1c003f8
fce1c07ffc
7ce1c7ee00
1ce1c00e00
1ce1c00e00
1ce1c60e1c
38e1c7fffe
38e1c70e1c
38e1c70e1c
30e1c70e1c
70e1c70e1c
71c1c7fffc
61c1c00e00
e1c1cc0e00
c1c1ce0e0e
fb81ffffff
1f81ce0e0e
07c1ce0e0e
07e1ce0ece
0671ce0e6e
0e39ce0fee
0c3b8efc6e
1c1b8ee06e
18030e600e
30070e000e
60060e000e
c00c0e01fe
00180e001c
00000c0018
ENDCHAR
STARTCHAR 222a
ENCODING 8746
SWIDTH 903 0
DWIDTH 40 0
BBX 40 40 0 -6
BITMAP
0000000000
0c0000000c
0f8000001e
0f01ffffff
0e00007000
0e00006000
0e0000c018
0e3061803c
0e387ffffe
0e3871c71e
0efe71c71c
fff871c71c
ff3871c71c
6e3871c71c
0e3871c71c
0e3871c71c
0e3871c71c
1c3871c7fc
1c38718638
1c38600030
1c38000000
3870000006
3871ffffff
3870007000
7070006000
70e000c018
7ce061803c
0fc07ffffe
03c071c71e
03e071c71c
07f071c71c
077871c71c
0e3c71c71c
0c1c71c71c
180c71c71c
300071c71c
600071c71c
c00071c7fc
0000718638
0000600030
ENDCHAR
STARTCHAR 222b
ENCODING 8747
SWIDTH 903 0
DWIDTH 40 0
BBX 40 40 0 -6
BITMAP
0000000000
0c00001800
0f80001f00
0f00001e00
0e00001c00
0e00181c00
0e001f1c00
0e301e1c08
0e381c1c1c
0e381c1ffe
0efe1c1c00
fff81c1c00
ff381c1c00
6e381c1c00
0e381c1c00
0e381c1c04
0e381c1c0e
1c3bffffff
1c38000000
1c38000060
1c380c007c
38700f8078
38700f0070
38700e0070
70700e0070
70e0ce0670
7ce0ee0770
0fc0cfe67e
03c0ce0670
03e0ce0670
07f0ce0670
0778ce0670
0e3cce0670
0c1cce0670
180cce0670
3000cfe670
6007fc0670
c007e03fff
0003800000
0001800000
ENDCHAR
STARTCHAR 222c
ENCODING 8748
SWIDTH 903 0
DWIDTH 40 0
BBX 40 40 0 -6
BITMAP
00000000f0
0c00000ff8
0f8001fffc
0f007ff000
0e00000018
0e0000c01e
0e0060703c
0e30383838
0e381c3860
0e380e18c0
0efe060000
fff80000e0
ff387ffff0
6e380001f0
0e38030780
0e3801dc00
0e38007000
1c3800380c
1c38c0181e
1c38ffffff
1c38e0c00f
3870e0e60e
3870e1c38e
3870e381ce
7070e7ffee
70e0e7c0ee
7ce0e3006e
0fc0e0038e
03c0e7ffce
03e0e103ce
07f0e0c70e
0778e06e0e
0e3ce07c0e
0c1ce0ee0e
180ce1c70e
3000e3830e
6000ee000e
c000e001fe
0000e0003c
0000c00038
ENDCHAR
STARTCHAR 222d
ENCODING 8749
SWIDTH 903 0
DWIDTH 40 0
BBX 40 40 0 -6
BITMAP
0000006018
0c0000781f
0f8000701e
0f0000701c
0e0000f81c
0e0001ce1c
0e0003871c
0e3007039c
0e381c619c
0e3800781c
0efe00701c
fff800701c
ff3800f81c
6e3801ce1c
0e3803871c
0e3807039c
0e381c019c
1c38c0001c
1c38fffffc
1c38e00000
1c38e00000
3870e3001c
3870e3fffe
3870e3801c
7070e3801c
70e0e3801c
7ce0e3801c
0fc0e3fffc
03c0e3801c
03e0e3801c
07f0e3801c
0779c3801c
0e3dc3fffc
0c1d83801c
180f83801c
300303801c
600703801c
c00603fffc
000c03801c
0008030018
ENDCHAR
STARTCHAR 222e
ENCODING 8750
SWIDTH 903 0
DWIDTH 40 0
BBX 40 40 0 -6
BITMAP
0000006000
0c00007c00
0f80007800
0f0000f000
0e0000ec00
0e0001c600
0e00038380
0e300701e0
0e380e00f8
0e381c003f
0efe3fffdf
fff870000e
ff38e00006
6e3b980070
0e381ffff8
0e381c0070
0e381c0070
1c381c0070
1c381c0070
1c381ffff0
1c38180060
3870000000
387000000c
3870c0001e
7070ffffff
70e0e1c70f
7ce0e1c70e
0fc0e3870e
03c0e707fe
03e0ee03fe
07f0f8000e
0778e0000e
0e3cefffee
0c1ce0380e
180ce0380e
3000e0380e
6000e039fe
c000e0381e
0000e0301c
0000c00018
ENDCHAR
STARTCHAR 222f
ENCODING 8751
SWIDTH 903 0
DWIDTH 40 0
BBX 40 40 0 -6
BITMAP
0030000000
007c00000c
00f800001e
01e0ffffff
0780003c00
1e00003800
f018007000
003e006030
007c18c078
01f01ffffc
07801c003c
1e001c0038
f0181c0038
003e1c0038
007c1c0038
00f01c0038
01c01ffff8
07801c0038
1e001c0038
f0001c0038
0c001c0038
0f301c0038
0e3c1c0038
0e381ffff8
0e381c0038
ffff1c0038
1c381c0038
1c381c0038
1c381c0038
38701c0038
38701ffff8
7060000030
7ce0060000
07c00780c0
03e00f0070
07781c003c
0e3c38001e
1c1c70000f
380ce00007
e003800003
ENDCHAR
STARTCHAR 2230
ENCODING 8752
SWIDTH 903 0
DWIDTH 40 0
BBX 40 40 0 -6
BITMAP
0000600000
0000380000
08001c0000
08001c000c
18000c001e
1fffffffff
380000001f
730001801c
f3e000e018
e3c0007030
c380007020
0380003018
0381fffffc
0380000180
03c03001e0
13e01c01c0
13b00e0180
33b80e0380
339c070300
739c070600
638c03041c
e383fffffe
e380000000
c3800000c0
03803001e0
03803ffff0
03803800f0
03803800e0
03803800e0
03803800e0
03803800e0
03803fffe0
03803800e0
03803800e0
03803800e0
03803800e0
03803800e0
03803fffe0
03803800e0
03003000c0
ENDCHAR
STARTCHAR 2231
ENCODING 8753
SWIDTH 903 0
DWIDTH 40 0
BBX 40 40 0 -6
BITMAP
0000600000
0000380000
08001c0000
08001c000c
18000c001e
1fffffffff
380000001f
700030001c
f0001c0018
e0000e0030
c600060020
07fffffff0
07000c0000
07000f8000
07000f0300
07000e0780
073fffffc0
07000e03c0
07000e0380
07fffffffc
07000e0380
07000e0380
073fffff80
07000e0600
07180e0780
070e0e0f00
07070e1c00
07030e3010
07000e0038
07fffffffc
0e000e0000
0e060e0000
0e078e3800
0c0f0e0e00
1c1c0e0780
18380e01c0
38700e00e0
31c00e0060
60000e0000
c0000c0000
ENDCHAR
STARTCHAR 2232
ENCODING 8754
SWIDTH 903 0
DWIDTH 40 0
BBX 40 40 0 -6
BITMAP
0000e00000
0000780000
00003c0000
10001c000c
100018001e
3fffffffff
300000001f
700060001c
e118380618
e11e1e0390
c31c0e09e0
071c0608f0
071c001878
0e1e003038
0c0ffff818
0007fff800
0000600000
0000780080
00007001c0
00007fffe0
0000700000
0300700000
03ffffff80
0380000380
0380000380
03ffffff80
0380000380
0380000380
03ffffff80
00c0000000
00f0000200
00e0000700
00ffffff80
00e0000000
00e0000020
00e0000020
00f0000030
007ffffff0
001fffffe0
0000000000
ENDCHAR
STARTCHAR 2233
ENCODING 8755
SWIDTH 903 0
DWIDTH 40 0
BBX 40 40 0 -6
BITMAP
0000c00000
0000700000
100038000c
100018001e
3fffffffff
300000000f
700070600c
e11838f818
e11e19e310
c31c0381c0
071c0704f0
0f1c1c0478
0e1c380c38
0c1ee01818
000ffffc00
0007fffc00
001d800000
0071e00000
03c1c00300
1e03800780
03ffffffc0
03800003c0
0380000380
0380000380
03ffffff80
0380000380
0380000380
0380000380
03ffffff80
0300000000
03c0000000
0380000300
03ffffff90
0380000010
0380000030
0380000030
03c0000060
01fffffff0
00fffffff0
0000000000
ENDCHAR
STARTCHAR 2234
ENCODING 8756
SWIDTH 903 0
DWIDTH 40 0
BBX 40 40 0 -6
BITMAP
0000600000
0000380000
08001c0000
08001c000c
18000c001e
1fffffffff
380c00c01f
700f00f01c
f00e00e318
e7ffffffb0
c00e00e020
000e30e000
000c3cc000
0000780000
0000f70000
0001c1e000
0007803c00
001e000780
00f00001f0
0f8c00c07c
7c0f00f01c
000e00e300
07ffffff80
000e00e000
000e30e000
000c3cc000
0000780000
0000f70000
0001c1e000
0007803c00
001e300780
00f03c01f0
0f8078007c
7c00f6001c
0001c38000
000780f000
001e003e00
00f0000ffc
0f800003fc
7c00000070
ENDCHAR
STARTCHAR 2235
ENCODING 8757
SWIDTH 903 0
DWIDTH 40 0
BBX 40 40 0 -6
BITMAP
0000600000
0000380000
08001c0000
08001c000c
18000c001e
1fffffffff
380000001f
700000001c
f030003018
e03e003e30
c03c003c20
0039803818
7fffc7fffc
0038003800
0038003800
0030003000
0000000060
1ffffffff0
0000380000
0060381800
0078381e00
0070381c18
7fffbbfffc
0070381c00
0070381c00
0060381800
0000380018
7ffffffffc
0000380000
0000380000
0000380000
0000380180
07ffffffc0
0000380000
0000380000
0000380000
0000380000
0000380000
0000380000
0000300000
ENDCHAR
STARTCHAR 2236
ENCODING 8758
SWIDTH 903 0
DWIDTH 40 0
BBX 40 40 0 -6
BITMAP
0000600000
0000380000
08001c0000
08001c000c
18000c001e
1fffffffff
380000001f
700000001c
f00c006018
ec0f807c30
cf8f007800
0f0e007060
0e0e3070f0
0e0e1c71c0
0e0e0e7300
0e0e06ec00
0e0e00e700
0e0e01c1c0
0e0e0380f0
1ffe070078
0c0e0e003c
000e1c001c
000e38600c
000e607c00
180e007800
1ffe007030
1c0ec0703c
1c0e707078
1c0e3c70e0
1c0e1c71c0
1c0e0ceb00
1c0e00ec00
380e01c700
380e038380
300e0701c0
700e0e00f0
600e1c007f
c00e38003f
800e70001c
000dc0000c
ENDCHAR
STARTCHAR 2237
ENCODING 8759
SWIDTH 903 0
DWIDTH 40 0
BBX 40 40 0 -6
BITMAP
0000600000
0000380000
08001c000c
08000c001e
1fffffffff
180000000f
38c000000c
70f0ffffd8
f0e00001d0
e0e00001c0
c0e7fffff8
01c00001c0
01c00001c0
01c0ffffc0
0380000000
0382000038
0703fffffc
070601c03c
0f0e01c030
0f0e01c020
1f0dffffc0
3701c1c1c0
6701c1c1c0
c701c1c1c0
0701c1dfc0
0701c1c380
070181c300
0700018000
07000001c0
0703ffffe0
07006003e0
0700300780
07001c0e00
0700073800
070003f000
070003fe00
07000f1ffc
07003c07fc
0701e001f8
061f000038
ENDCHAR
STARTCHAR 2238
ENCODING 8760
SWIDTH 903 0
DWIDTH 40 0
BBX 40 40 0 -6
BITMAP
0000600000
0000300000
080038000c
080018001e
1fffffffff
180000001f
386000001c
7078000018
f073fffff0
e0e001c000
c0e0018000
01c00300c0
03c06601e0
07c07ffff0
07c07000f0
0dc07000e0
19c07000e0
31c07000e0
01c07fffe0
01c07000e0
01c07000e0
01c07000e0
01c07000e0
01c07fffe0
01c00000c0
0180c00000
0000700000
0000380000
0000380030
0000180078
7ffffffffc
0000000000
0018000000
001f007000
003e001e00
0078000780
01e00001e0
0380000070
0e00000038
3800000018
ENDCHAR
STARTCHAR 2239
ENCODING 8761
SWIDTH 903 0
DWIDTH 40 0
BBX 40 40 0 -6
BITMAP
0000000060
618c70007c
7fcff80078
718c700070
718c700070
718c700070
718c700070
718c700070
718c700072
718c77ffff
7f8ff00070
6060600070
007c000070
0078000070
0070000070
0070c06070
3fffe03070
0070003870
0070001c70
0070001c70
0070200c70
0070700c70
fffff80070
0060000070
007c000070
0078000070
0070400070
0070e00070
7ffff00070
0070000070
0070000070
0070000070
0070000070
0070000070
0070000070
007ff800f0
fff0003ff0
ff000007e0
78000001c0
3800000180
ENDCHAR
STARTCHAR 223a
ENCODING 8762
SWIDTH 903 0
DWIDTH 40 0
BBX 40 40 0 -6
BITMAP
0060001800
0078001e00
0070801c04
0071c01c0e
ffffe7ffff
0070001c00
0070001c00
0060001800
06000001c0
07ffffffe0
07030301c0
0703c3c1c0
07038381c0
073ffff9c0
07038381c0
07038381c0
07038381c0
077ffffdc0
07038381c0
07038381c0
07030301c0
07ffffffc0
0600000180
0000000000
0000000000
0fffffffe0
0000003800
000000380c
000000381e
ffffffffff
0060003800
0038003800
001e003800
000f003800
0007003800
0003007800
00003ff800
000003f000
000000e000
000000c000
ENDCHAR
STARTCHAR 223b
ENCODING 8763
SWIDTH 903 0
DWIDTH 40 0
BBX 40 40 0 -6
BITMAP
0000000180
06000003c0
07ffffffe0
07038381e0
07038381c0
070703ffc0
070e01ffc0
071c0001c0
07700001c0
0707ffc1c0
070701c1c0
070701c1c0
070701c1cc
7ffffffffe
000e00e000
000e00e002
001c00e002
003800e006
007000f00c
00e000fffe
0380307ffe
1e003c3ffc
f000380000
0000380000
00003fffc0
0000380000
0000380008
000038001c
7ffffffffe
0000380000
00c0380000
00f0383800
01e0380f00
01c03803c0
03803800f0
0700780078
0e1ff80038
3803f00018
e000e00000
0000c00000
ENDCHAR
STARTCHAR 223c
ENCODING 8764
SWIDTH 903 0
DWIDTH 40 0
BBX 40 40 0 -6
BITMAP
01c0001800
00e0001f00
0070201e60
0030701c38
fffff81c1c
0000001c0e
0000001c0e
1801c01c06
1fffe01c00
1c01e01c00
1c01c01c04
1c01c01c0e
1c01cfffff
1c01c01c00
1fffc01c00
0000001c00
0000001c00
3000e01c00
3ffff01c00
3800f01f00
3800e03bc0
3800e03b80
3800e03b80
3800e03b80
3fffe07380
3060c07380
0078007380
007000e380
187300e380
1e7180e380
1c70c1c380
1c70e1c381
3870738381
3070738383
6070370383
c0700e03c6
00701c03ff
0ff03801ff
00e07000fe
00c1c00000
ENDCHAR
STARTCHAR 223d
ENCODING 8765
SWIDTH 903 0
DWIDTH 40 0
BBX 40 40 0 -6
BITMAP
0300006000
03e0003000
03c0003820
0380001870
03803ffff8
03800000c0
03800600e0
03800301c0
0380018180
0380018318
03867ffffc
ffff000000
0380000000
03800c00e0
03800ffff0
03800e38f0
03800e38e0
03800e38e0
03800fffe0
03b00e38e0
03bc0e38e0
03b80e38e0
07380fffe0
07380c38c0
0738003800
0738003800
07381ffff0
0e38003800
0e38003800
0e38003800
0c38003818
1c387ffffd
1c38000001
1838000003
3838000003
303c000006
703fffffff
601fffffff
c00ffffffe
8000000000
ENDCHAR
STARTCHAR 223e
ENCODING 8766
SWIDTH 903 0
DWIDTH 40 0
BBX 40 40 0 -6
BITMAP
03000000e0
03e00007f0
03c0007ff8
03801ff800
0380003800
0380003808
038000701c
03807ffffe
038000e180
038001c0c0
0386038070
ffff07ffff
03800fc1df
03801dc1ce
038039c1c6
0380e1c1c0
038001ffc0
0380018180
0380000000
03b00c0038
03bc0ffffc
03b80e003c
07380e0038
07380e7f38
07380e6338
07380e6338
07380e6338
0e380e7f38
0e380e0038
0e380e0038
0c380e03f9
1c380e0071
1c380c0063
1838000003
3838000006
303c00000e
703fffffff
601fffffff
c00ffffffe
8000000000
ENDCHAR
STARTCHAR 223f
ENCODING 8767
SWIDTH 903 0
DWIDTH 40 0
BBX 40 40 0 -6
BITMAP
0000000000
1800000030
1c00000078
1ffffffffc
1c0000003c
1c00000038
1c00000038
1c00000038
1c00000038
1ffffffff8
1c00000038
1c00060030
1c0607c600
1c07878780
1c07070700
1c07070700
1c0ec70ec0
1c1c670c60
1c38371830
1c70173010
1cc0076000
1c00070000
1dfffffffc
1c00000000
1c06000600
1c07800780
1c07000700
1cc718c718
1ce71cc71c
38c718c718
38c718c718
38c718c718
31fff9fff8
70c718c718
6007000700
600e000700
c00c000700
c018000700
8030000700
0060000600
ENDCHAR
STARTCHAR 2240
ENCODING 8768
SWIDTH 903 0
DWIDTH 40 0
BBX 40 40 0 -6
BITMAP
1800000018
1c0000003c
1ffffffffe
1c0000001e
1c0000001c
1c0000001c
1c0000001c
1ffffffffc
1c00000018
1c0c003800
1c0f003000
1c1e066070
1c1c07fff8
1c38070070
1c30077070
1c63071c70
1cc3c70070
1d87bffffe
1d07070070
1c0e073870
1c0e070670
1c1c0e0070
1c1c0c0ff0
1c3c1800e0
1c7c3300c0
1cdc63e000
1d9c03c060
1d1c0380f0
1c1c07fff8
381c0700f8
381c0e80e0
381c1cc1c0
301c386380
701c603700
601c003e00
601c007b80
c01c00e1e0
c01c0380ff
801c1e003e
0018f0000e
ENDCHAR
STARTCHAR 2241
ENCODING 8769
SWIDTH 903 0
DWIDTH 40 0
BBX 40 40 0 -6
BITMAP
0000300000
0c003e00c0
0f803c00f8
0f003800f0
0e003800e0
0e003800e0
1fffffffe0
0c007000e0
0000e000c0
0001c00000
0007000000
003c000180
06000003c0
07ffffffe0
07003801e0
07003831c0
07303839c0
071c3871c0
070e3861c0
070738c1c0
07033981c0
07003901c0
07ffffffc0
0600380000
0000380000
0000380060
0ffffffff0
0000380000
0000380000
0000380008
000038001c
7ffffffffe
0000000000
04000000c0
040c060070
0c07038038
1c0381c01c
3801c0e00e
7800c0600e
7000000006
ENDCHAR
STARTCHAR 2242
ENCODING 8770
SWIDTH 903 0
DWIDTH 40 0
BBX 40 40 0 -6
BITMAP
0000300000
0c003e00c0
0f003c00f0
0e003800e0
0e003800e0
1fffffffe0
0c007000e0
0000e000c0
0003800000
000e000000
00c0000c00
30f3030f30
3ce3c3ce3c
38e3838e38
38e3838e38
38e3838e38
7fff87fff8
31c3030e30
0380000e00
0700600e00
1c007c0c00
7000780060
0c00700078
0f00700070
0e00e00070
0e01c00070
1ffffffff0
0c07006060
000e303000
001c3e1c00
00383c0f00
00e03807e0
01c03801ff
077ffffeff
1c0038003e
f00038000e
0000380000
0000380000
0000380000
0000300000
ENDCHAR
STARTCHAR 2243
ENCODING 8771
SWIDTH 903 0
DWIDTH 40 0
BBX 40 40 0 -6
BITMAP
0000300000
0c003c00c0
0f803800f8
0f003800f0
0e003800e0
0e003800e0
0e007000e0
1fffffffe0
0c01c300c0
000381c000
000700e000
000e307800
001c3e1e00
00783c0fc0
00e03803ff
03803800ff
0e00380c3c
38fffffe0c
e000380000
0000380000
0000380000
0000380000
0000380000
0000380000
0000300000
00c0030018
61e3078c3c
7ff3ffcffe
70f383ce1e
70e3838e1c
70e3838e1c
70e3838e1c
70e3838e1c
70e3838e1c
70e3838e1c
70e3838e1c
70e3838e1c
7fe3ff8ffc
70e3838e1c
60c3030c18
ENDCHAR
STARTCHAR 2244
ENCODING 8772
SWIDTH 903 0
DWIDTH 40 0
BBX 40 40 0 -6
BITMAP
00030000c0
0c078301e0
0fffc3fff0
0e03c380f0
0e038380e0
0e038380e0
0fff83ffe0
0c030300c0
0000000000
06000001c0
07ffffffe0
07003801c0
07003801c0
07003801c0
07ffffffc0
07003801c0
07003801c0
07003801c0
07ffffffc0
0600380180
0000380018
000038003c
7ffffffffe
0000380000
0000380000
0000380000
0000380000
0000300000
00003e0000
00003c0000
0c003800c0
0f803800f8
0f003800f0
0e003800e0
0e003800e0
0e003800e0
0e003800e0
1fffffffe0
0c000000e0
00000000c0
ENDCHAR
STARTCHAR 2245
ENCODING 8773
SWIDTH 903 0
DWIDTH 40 0
BBX 40 40 0 -6
BITMAP
0000300000
0c003e00c0
0f803c00f8
0f003800f0
0e003800e0
0e003800e0
0e003800e0
1fffffffe0
0c000000c0
0000000000
0000000180
0c006003c0
07007fffe0
03807001e0
03907001c0
01907001c0
60107fffc0
30307001c0
38307001c0
1c607001c0
1c607fffc0
0cc0600180
00c000000c
018000001e
018fffffff
0300700000
0700700030
0e00e00078
1c00fffffc
fc01c71c3c
3c03871c38
1c070e1c38
1e0e0e3838
0e381c3838
0f00387038
0f0070e078
0f00e1dff0
0f038381e0
060e0e01c0
0000380180
ENDCHAR
STARTCHAR 2246
ENCODING 8774
SWIDTH 903 0
DWIDTH 40 0
BBX 40 40 0 -6
BITMAP
0000000000
060003000c
0783078c1e
0703ffcfff
070383ce0f
0703838e0e
0703838e0e
0703838e0e
0703ff8ffe
6733838e0e
6733838e0e
6733838e0e
6733838e0e
6733ff8ffe
6733830c0e
673380000e
673380000e
673380060e
6733860f0e
673387ff8e
673387078e
673387070e
673387070e
673387ff0e
673387070e
673387070e
673387070e
673387ff0e
673387070e
673387070e
fff386070e
60338e070e
00338c7f0e
0003980e0e
0003b00c0e
000380001e
00038003fe
000380003c
0003800038
0003000030
ENDCHAR
STARTCHAR 2247
ENCODING 8775
SWIDTH 903 0
DWIDTH 40 0
BBX 40 40 0 -6
BITMAP
0000000000
0c0000000c
0f0000001e
0e0003ffff
0e00000700
0e00000700
0e00180e00
0e07fc0c18
0e00e0183c
ce60e0fffe
ce60e0e01e
ce60e0e01c
ce60e0e01c
ce60e0e01c
ce60e0e01c
ce60e0e01c
ce60e0fffc
ce60e0e01c
ce60e0e01c
ce60e0e01c
ce60e0e01c
ce60e0e01c
ce60e0e01c
ce60e0fffc
ce60e0e01c
ce60e0e01c
ce60eee01c
ce60f8e01c
ce6fe0e01c
ce6f80e01c
ffe700fffc
c063000018
0060006000
0000007830
000000f01c
000000e00e
000001c007
0000038007
0000070003
00000c0000
ENDCHAR
STARTCHAR 2248
ENCODING 8776
SWIDTH 903 0
DWIDTH 40 0
BBX 40 40 0 -6
BITMAP
0000300000
0c003e0c0c
0f003c0e1e
0e00380fff
0e00380e0f
0e0038ce0e
0e07ffee0e
0e00380e0e
0e00380e0e
ce60380e0e
ce60380e0e
ce63398e0e
ce63ffce0e
ce63018ffe
ce63018e0e
ce63018e0e
ce63018e0e
ce63018e0e
ce63ff8e0e
ce63018e0e
ce63018e0e
ce63018e0e
ce63018e0e
ce63018ffe
ce63ff8e0e
ce63398e0e
ce60380e0e
ce60380e0e
ce60380e0e
ce60380e0e
ffe0399c0e
c06fffdc0e
0060381c0e
000038180e
000038380e
000038301e
00003871fe
000038603c
000038c038
0000318030
ENDCHAR
STARTCHAR 2249
ENCODING 8777
SWIDTH 903 0
DWIDTH 40 0
BBX 40 40 0 -6
BITMAP
0000300000
0c003e00c0
0f803c00f8
0f003800f0
0e003800e0
0e003800e0
1fffffffe0
0c000000e0
00000000c0
00c0000c00
00f8000f80
00f0800f00
00e1c00e00
7fffe00e08
01c0000e1c
03d8000ffe
038e000e00
0707000e00
0e03800e00
1c01800e30
7000000e78
000067fffc
fffff0807c
0003808070
000380c070
30e38040e0
3ff38060e0
38e38061c0
38e38031c0
38e3801b80
38e3801f00
3fe3800e00
38c3801f00
3003803b80
00038071c0
000780e0f0
01ff81c07f
000f07003f
000e1c001c
000c70000c
ENDCHAR
STARTCHAR 224a
ENCODING 8778
SWIDTH 903 0
DWIDTH 40 0
BBX 40 40 0 -6
BITMAP
0000000000
0300000060
03e01800f0
03c01ffff8
03801c0078
03801c0070
03801c0070
03801ffff0
0380180060
638c00000c
638cc1c61e
638cffe7ff
638ce1c70f
638ce1c70e
638ce1c70e
638cffc7fe
638cc1860c
638c000000
638c000018
638c7ffffc
638c000000
638c000000
638c000006
638dffffff
638c0e0000
638c0e0000
638c1c0030
638c1c0078
638c3ffffc
638c18003c
fffc000038
600c000038
000c000038
0000000078
0000000070
00000000f0
000007ffe0
0000003fc0
0000000780
0000000700
ENDCHAR
STARTCHAR 224b
ENCODING 8779
SWIDTH 903 0
DWIDTH 40 0
BBX 40 40 0 -6
BITMAP
00c0000c00
00f0000f00
30e3030e30
3ce3c3ce3c
38e3838e38
38e3838e38
38e3838e38
7fff87fff8
3003030030
0000000000
00030000c0
0c078301e0
0fffc3fff0
0e03c380f0
0e038380e0
0e038380e0
0e038380e0
0fff83ffe0
0c030300c0
0000000000
00000000c0
0fffffffe0
0000000000
000000000c
000000001e
ffffffffff
0038000000
0038000300
0070000780
00ffffffc0
00600003c0
0000000380
0000000380
0000000380
0000000380
0000000780
00001fff00
0000007e00
0000001c00
0000001800
ENDCHAR
STARTCHAR 224c
ENCODING 8780
SWIDTH 903 0
DWIDTH 40 0
BBX 40 40 0 -6
BITMAP
0000300000
0c003e00c0
0f803c00f8
0f003800f0
0e003800e0
0e003800e0
1fffffffe0
0c000000c0
00c0000c00
00f0000f00
30e3030e30
3ce3c3ce3c
38e3838e38
38e3838e38
38e3838e38
7fff83fff8
30033c0030
0000780000
0000f60000
0001e38000
000380e000
000f3c7800
001c781f00
0078f607ff
00e1e381ff
038380e07c
1e0f00781c
f01c003f00
007bffcfff
00e00003ff
03800018f8
1e00003c38
f03ffffe00
0000003e00
0000003800
0000007000
0000006000
000000c000
0000018000
0000030000
ENDCHAR
STARTCHAR 224d
ENCODING 8781
SWIDTH 903 0
DWIDTH 40 0
BBX 40 40 0 -6
BITMAP
0000300000
0c003e00c0
0f003c00f0
0e003800e0
0e003800e0
1fffffffe0
0c003000c0
00c03e0c00
00f03c0f00
00e0380e00
01f0381f80
039c3838e0
070e387070
0ec738e638
38f33b8798
00e0380700
01f0380f80
039c381ce0
070e383870
1c07387038
700339c018
0000380180
07ffffffc0
0000000000
0000000004
000000000e
ffffffffff
01c0000000
01c0000000
03800001c0
07ffffffe0
03000001e0
00000001c0
00000001c0
00000003c0
0000000780
00001fff00
0000007e00
0000001c00
0000001800
ENDCHAR
STARTCHAR 224e
ENCODING 8782
SWIDTH 903 0
DWIDTH 40 0
BBX 40 40 0 -6
BITMAP
0000300000
0c003e00c0
0f803c00f8
0f003800f0
0e003800e0
0e003800e0
1fffffffe0
0c000000e0
00018000c0
0003e00000
0007807000
000e001c00
0038000f00
00ffffff80
00ffe003c0
00700001c0
0330001800
0380001c00
07300038c0
0e1c007070
1c0e30e038
7fff3dfffc
38077ce01c
1803e6600c
0001c38000
000700e000
000e607c00
00387c1fc0
00e07807ff
03807001ff
1e0070003e
f04071830e
004070e1c0
00c07070e0
01c0703870
03c0703870
0380701830
031ff00000
0000e00000
0000c00000
ENDCHAR
STARTCHAR 224f
ENCODING 8783
SWIDTH 903 0
DWIDTH 40 0
BBX 40 40 0 -6
BITMAP
000000c000
060000f000
07c000e000
078001c018
070061803c
07007ffffe
070070001e
070070001c
070070001c
c7187ffffc
c71870001c
c71870001c
c71870001c
c7187ffffc
c71870001c
c71870001c
c71870001c
c7187ffffc
c718603018
c718003e00
c718003c00
c718023804
c718ff39fe
c718003800
c718003800
c718023804
c718ff39fe
c718003800
c718003800
c718003806
fff9ffffff
c018003800
0018003800
0000003800
0000003800
0000003800
0000003800
0000003800
0000003800
0000003000
ENDCHAR
STARTCHAR 2250
ENCODING 8784
SWIDTH 903 0
DWIDTH 40 0
BBX 40 40 0 -6
BITMAP
0006006000
601f007c00
71ff807800
7f38007000
703800e000
703800e018
7038c0e03c
7fffe1fffe
701c018070
701c13c070
738e334070
7e076660e0
7803e420e0
7001e031c0
3000c01b80
3fff800f80
3803800f00
3803801f80
3803803de0
3fff8078f8
380380f07f
380381e03f
380383801c
3fff87000c
38030c0000
3000300000
00003e0000
00003c0000
0000380000
0c003800c0
0f803800f8
0f003800f0
0e003800e0
0e003800e0
0e003800e0
0e003800e0
0e003800e0
1fffffffe0
0c000000e0
00000000c0
ENDCHAR
STARTCHAR 2251
ENCODING 8785
SWIDTH 903 0
DWIDTH 40 0
BBX 40 40 0 -6
BITMAP
0000180000
06001e3000
07c01c1c00
07801c0e04
070038060e
07003fffff
0700381c00
0700781c00
0700781c00
c718f81c18
c718fffffc
c719b81c00
c71b381c00
c71a381c00
c718381c18
c7183ffffc
c718381c00
c718381c00
c718381c04
c718381c0e
c7183fffff
c718300000
c718000000
c71800000c
c71860c31e
c7187fe3ff
c71870c30f
c71870c30e
c71870c30e
c71870c30e
fff871ff0e
c01870c30e
001870000e
000070000e
000070000e
000070001e
00007007fe
000070003c
0000700038
0000600030
ENDCHAR
STARTCHAR 2252
ENCODING 8786
SWIDTH 903 0
DWIDTH 40 0
BBX 40 40 0 -6
BITMAP
0000300000
00003c000c
000038001e
ffffffffff
0000380000
0000380000
1ffffffff8
0000000000
0000000000
1ffffffff0
1c00380070
1c00380c70
1cfffffe70
1c00380070
1c00380070
1c7ffffc70
1c70381c70
1c70381c70
1c7ffffc71
3870381c71
3870381c3b
307ffffc3b
700038001e
600038031f
c3ffffff8f
8000380006
0000380000
03003800c0
03c01e00f0
03801c00e0
07003801c0
0e00700380
1c00e00700
3801c00e00
1c00e00700
0f007803c0
07803c01e0
03c01e00f0
01c00e0070
00c0060030
ENDCHAR
STARTCHAR 2253
ENCODING 8787
SWIDTH 903 0
DWIDTH 40 0
BBX 40 40 0 -6
BITMAP
00000007e0
000003fff0
000ffffff8
0ffe380000
0000380000
00c0380600
00f0380780
00e0380700
01f0380f80
039c381ce0
070e383870
0e07387038
380339c018
00c0380600
00f0380780
00e0380700
01f0380f80
039c381ce0
070e383870
0e07387038
380339c018
0000380000
0000380006
ffffffffff
0070000000
0070000000
0070000020
00e0000070
00fffffff8
01c0070000
01c0070000
0380070000
0700070000
0e00070000
1c00070000
380007000c
e00007001e
1fffffffff
0000000000
0000000000
ENDCHAR
STARTCHAR 2254
ENCODING 8788
SWIDTH 903 0
DWIDTH 40 0
BBX 40 40 0 -6
BITMAP
0000000000
0003000030
3007830078
3fffc3fffc
3803c3803c
3803838038
3803838038
3803838038
3fff83fff8
3803038030
3800438004
3800438004
3800c3800c
3c0183c018
3fffc3fffc
1fffc1fffc
0fff80fff8
0000000000
0000000000
0001800018
7fffc7fffc
00e0000e00
00e0000e00
00e0000e00
00e3000e30
3fff83fff8
00e0000e00
00e0000e00
00e0000e04
00e0000e0e
ffffffffff
0000000000
0030000000
007c000e00
00f00003c0
01c00000f0
070000003c
0e0000001e
380000000f
e000000007
ENDCHAR
STARTCHAR 2255
ENCODING 8789
SWIDTH 903 0
DWIDTH 40 0
BBX 40 40 0 -6
BITMAP
0000300000
00003e0000
00003c0018
000038003c
7ffffffffe
0000380000
0300380380
03ffffffc0
0380380380
0380380380
03ffffff80
100038000c
100038001e
3fffffffff
700000000f
f00000018c
e7ffffffd8
c00e000010
001c000000
0038000e00
007fffff00
00f8000e00
01b8000e00
0738000e00
1c3ffffe00
0030300c00
00003e0000
00003c0180
06003803c0
07ffffffe0
07003801e0
07003801c0
07003801c0
07003803c0
070039ffc0
0700381f80
0700380700
0600380600
0000380000
0000300000
ENDCHAR
STARTCHAR 2256
ENCODING 8790
SWIDTH 903 0
DWIDTH 40 0
BBX 40 40 0 -6
BITMAP
0003000000
3007806000
3fffc07c00
3803c07830
380380f078
380380fffc
3fff81c07c
3803838070
38038700e0
38038ec1c0
3fffb87380
3003003700
0000001e00
0000003800
000300ec00
3fff838f80
00001e0f00
0000000e00
0000c00e18
ffffe60e3c
00c007fffe
00f8070e1e
00f0070e1c
00e1870e1c
60e3c70e1c
7fffe70e1c
70e1e70e1c
70e1c70e1c
70e1c70e1c
70e1c70e1c
70e1c70e1c
70e1c70ffc
70e1c70e3c
70ffc70e38
70e3c60e30
70e3800e00
60e3000e00
00e0000e00
00e0000e00
00c0000c00
ENDCHAR
STARTCHAR 2257
ENCODING 8791
SWIDTH 903 0
DWIDTH 40 0
BBX 40 40 0 -6
BITMAP
0300006000
03e0003800
03c0003804
038000180e
0381ffffff
0380018000
038001c000
638c0380e0
7ffe07fff0
638c0f01f0
638c1d83c0
638c38ef00
638ce07c00
638c00f300
638c03c798
638c1e0e3c
638cf03ffe
638c00f03e
638c01dc78
638c0f0ee0
638c7807c0
638c000f00
638c003c00
638c01e000
638c0f8000
638cfd8800
638c01e80c
638c03cc1e
63fc078438
639c0f0660
63981e03c0
03803e0180
03807e0180
0380ee00c0
03838e1860
038e0e7078
03800fc03f
03800f801f
038007000e
0300030006
ENDCHAR
STARTCHAR 2258
ENCODING 8792
SWIDTH 903 0
DWIDTH 40 0
BBX 40 40 0 -6
BITMAP
0300000000
03e0000018
03c000003c
03803ffffe
038000001e
038000001c
03800fff1c
638c00701c
7ffe00701c
638c00731c
638c1fff9c
638c00001c
638c00001c
638c3ffffc
638c380000
638c380000
638c38fff0
638c380e00
638c380e00
638c700e30
638c71fff8
638c700000
638c70000e
638cffffff
638c60000e
638c00000e
638c18070e
638c1fff8e
63fc1c070e
639c1c070e
63981c070e
03801fff0e
038018060e
038000001e
038000001c
038000003c
038007fff8
0380000ff0
03800001e0
03000001c0
ENDCHAR
STARTCHAR 2259
ENCODING 8793
SWIDTH 903 0
DWIDTH 40 0
BBX 40 40 0 -6
BITMAP
0300060000
03e0078000
03c0070300
03800e0780
03800fffc0
03801c03c0
0380180700
638c300c18
7ffe60183c
638cfffffe
638c70381e
638c70381c
638c70381c
638c70381c
638c70381c
638c7ffffc
638c607800
638c00f000
638c01f00c
638c03981f
638c071c3c
638c0e3e70
638c3877c0
638ce0e380
638c01c380
638c038780
638c070fc0
638c0e1fe0
63fc383bf8
639ce073bf
639800e39f
038001c38e
0380070386
03800e0780
0380380700
0380e00f00
038007fe00
038000fc00
0380003800
0300003000
ENDCHAR
STARTCHAR 225a
ENCODING 8794
SWIDTH 903 0
DWIDTH 40 0
BBX 40 40 0 -6
BITMAP
030001800c
03e003c01e
03c1ffefff
038031e18f
038031c18e
038031c18e
038031c18e
038031c18e
638c31c18e
738e31c30e
638c61c30e
638c6fc37e
638c63861c
638cc30c18
7ffc801800
638d003000
638c000000
638c01800c
638c7fc3fe
638c0e0070
638c0e0070
638c0e0070
638c0e0070
638c0e0070
7ffc0e0070
638c0e0076
638dffe7ff
638c0e0070
638c0e0070
638c0e0070
638c0e0070
638c0e0070
638c1c0070
638c1c0070
638c180070
7ffc380070
600c300070
600c600070
6000c00070
0001800060
ENDCHAR
STARTCHAR 225b
ENCODING 8795
SWIDTH 903 0
DWIDTH 40 0
BBX 40 40 0 -6
BITMAP
0000000000
00c0018030
00f001e03e
01e003c03c
0380070038
0f061e0c38
0e0f1c1e38
031c063838
01b8037038
00e001c038
01c8039838
030c060c38
0e060c0638
1fff3fff38
1f873f0738
0e031c0338
06000c0038
0000000038
3ffffffff8
0000000038
00c0018038
00f001e038
01e003c038
0380070038
0f061e0c38
0e0f1c1e38
031c063838
01b8037038
00e001c038
01cc039838
0306060c38
0e060c0638
1fff3fff38
1f873f0738
0e031c0338
06000c0038
0000000038
7ffffffff8
0000000038
0000000030
ENDCHAR
STARTCHAR 225c
ENCODING 8796
SWIDTH 903 0
DWIDTH 40 0
BBX 40 40 0 -6
BITMAP
0000300000
00003e0000
00603c1800
6070381c18
78e038381f
70c638719e
7187b8c3dc
730f38e71c
719c383e1c
70f838181c
706238321c
70c338631c
7181b8c19c
77ffbbffdc
77e1bbf8dc
7381b9c0dc
718038c01c
700038001c
fffffffffc
600000001c
00c0001818
00f0001e00
01e0003c00
01c0003800
0380007000
070c00e180
0e0f01c1e0
0e1e01c3c0
031c006380
01b8003700
00f0001e00
00e0001c00
01c3003860
0381807030
0700c0e018
0e3fe1c7fc
3fe0e7fc1c
3f00e7e01c
1c0063800c
0c00018000
ENDCHAR
STARTCHAR 225d
ENCODING 8797
SWIDTH 903 0
DWIDTH 40 0
BBX 40 40 0 -6
BITMAP
00c0000c00
00f8000f80
18f3000f00
1ce3800e00
18e3000e00
18e3000e04
30e3000e0e
36e6600fff
67e6700e00
66ec600e00
76eec00e00
1ce3800e00
0ce3000e00
18e3400e18
14e6600e3c
32ec31fffe
637ff0001e
ff7e30003c
e376300038
6370000070
00718000e0
0070c000e0
6070c001c0
7ffff00380
7038000700
7038c00e00
7038f01c00
7c1ce03800
761cc07000
771d80e000
739d81c001
738f11c001
718e138003
700f338003
701fb38006
603be3c00e
6071e3ffff
c0c0f1ffff
8380707ffe
0e00200000
ENDCHAR
STARTCHAR 225e
ENCODING 8798
SWIDTH 903 0
DWIDTH 40 0
BBX 40 40 0 -6
BITMAP
0000300000
00001c0000
00000e0000
00000e000c
180006001e
1fffffffff
1c00000000
1c00060000
1c0007c300
1c06078380
1c03870700
1c01c70600
1c00e70c00
1c00671860
1c1ffffff0
1c00070000
1c00070000
1c000e000c
1cfffffffe
1c001c1800
1c00380e00
1c00700380
1c00e600e0
1c01c38078
1c0381c11e
1c0e00c38e
1c3bffffc6
1de0180000
38001e8060
38003cc0f0
3800384380
3800706c00
3000f03000
3001f01c00
7003f1ce00
6007770780
600e7c03f8
c0187801f8
80007000e0
0000300060
ENDCHAR
STARTCHAR 225f
ENCODING 8799
SWIDTH 903 0
DWIDTH 40 0
BBX 40 40 0 -6
BITMAP
0000300000
00001c0000
00000e0000
00000e000c
180006001e
1fffffffff
1c00000000
1c00000000
1c00000018
1c0000003c
1cfffffffe
1c00383800
1c00383800
1c00383830
1c30383878
1c3ff83ffc
1c3838383c
1c38383838
1c38383838
1c38383838
1c3ff83ff8
1c30383830
1c00383800
1c00383860
1c183030f0
1c1ffffff8
1c1c038078
1c1c038070
381c038070
381c038070
381c038070
381ffffff0
301c038070
301c038070
701c038070
601c038070
601c038070
c01ffffff0
801c000070
0018000060
ENDCHAR
STARTCHAR 2260
ENCODING 8800
SWIDTH 903 0
DWIDTH 40 0
BBX 40 40 0 -6
BITMAP
0000300000
00001c0000
00000e0000
00000e000c
180006001e
1fffffffff
1c00000000
1c06000000
1c07806070
1c07187ff8
1c07fc7070
1c07007070
1c07007070
1c67387070
1c7ffc7070
1c70387070
1c70386070
1c7038e078
1c7ff8c03f
1c7039801f
1c703b0000
1c70380000
1c7ff9fff8
1c00302038
1c60003038
1c7c003038
1c78201870
1c70701870
387ff80ce0
3870000ce0
38700007c0
3870000780
3078000780
307ff80fc0
703ffc1de0
601ffc38f8
600000707f
c00000e03f
800003801c
00001e000c
ENDCHAR
STARTCHAR 2261
ENCODING 8801
SWIDTH 903 0
DWIDTH 40 0
BBX 40 40 0 -6
BITMAP
0000300000
00001c0000
00000e0000
00000e000c
180006001e
1fffffffff
1c00000000
1c00030000
1c0063e000
1c00f3c030
1c33c38078
1c3e038ffc
1c3803803c
1c38038038
1c38038038
1c3fe38ff8
1c38038038
1c38038038
1c38038038
1c3fe7cff8
1c300e6030
1c001c3000
1c00381c00
1c00700e00
1c00e00780
1c01c303f0
1c0703e0ff
1c0e03c07f
383803801e
39e0038006
3803038700
3807c381c0
300f0380f0
301c038078
703803803c
607003801c
61c003800c
c001ff8000
8000070000
0000060000
ENDCHAR
STARTCHAR 2262
ENCODING 8802
SWIDTH 903 0
DWIDTH 40 0
BBX 40 40 0 -6
BITMAP
0000600000
0000380000
00001c0000
00001c000c
18000c001e
1fffffffff
1c00000000
1c000c0000
1c000f8000
1c001f0000
1c001cc000
1c00386000
1c00703800
1c00e01c00
1c01c00f00
1c038003fe
1c07fff9fe
1c1c000078
1c70000018
1dc6000700
1c07ffff80
1c07000700
1c07000700
1c07000700
1c07000700
1c07000700
1c07ffff00
1c06000600
3800000000
3800300060
386078c0f0
387ffcfff8
30703ce078
307038e070
707038e070
607038e070
607038e070
c07ff8fff0
807038e070
006030c060
ENDCHAR
STARTCHAR 2263
ENCODING 8803
SWIDTH 903 0
DWIDTH 40 0
BBX 40 40 0 -6
BITMAP
0000300000
00001c0000
00000e0000
00000e000c
180006001e
1fffffffff
1c00000000
1c00000000
1c00000018
1c0000003c
1c061ffffe
1c07801c00
1c0f001800
1c0e003030
1c1c066078
1c3807fffc
1c7007003c
1cc0070038
1d81870038
1c01e70038
1c03c7fff8
1c07070038
1c0e070038
1c1c070038
1c38070038
1c7007fff8
1ce0070038
1d80c70038
3800e70038
3801c70038
380387fff8
3807060030
300e00c180
301c00f0e0
703801e070
6070038038
60c007001c
c1800e000e
800038000e
0000e00006
ENDCHAR
STARTCHAR 2264
ENCODING 8804
SWIDTH 903 0
DWIDTH 40 0
BBX 40 40 0 -6
BITMAP
000000c000
000c01e000
060ffff180
078e00f1f0
070e00e1e0
070e00e1c0
070fffe1c0
07000001c0
07000001c0
0fffffffc0
0600000180
0000000000
00fffffe00
00e0000e00
00e0000e00
00e0000e00
00fffffe00
0000000000
06000001c0
07ffffffe0
07000001e0
07000001c0
07000001c0
07ffffffc0
07000001c0
07000001c0
07000001c0
07ffffffc0
0618003180
001e003c00
001c00380c
001c00381e
ffffffffff
001c003800
0038003800
0070003800
00e0003800
01c0003800
0380003800
0e00003000
ENDCHAR
STARTCHAR 2265
ENCODING 8805
SWIDTH 903 0
DWIDTH 40 0
BBX 40 40 0 -6
BITMAP
0003001800
1803c01f00
0c03801e00
0607001c60
0306001c38
038c601c1c
6198f01c0e
7ffff81c0e
7070781c06
7070701c00
7072701c00
7473f01c0c
7673701c1e
727277ffff
7376701c00
7174701c00
7174701c00
7070701c00
7070701c00
7ffff01c00
6000601c00
0000001c00
0003001c00
0c07800e00
0fffc00e00
0e03c00e00
0e03800e00
0e03800700
0e03800700
0e03800701
0fff800381
0e03800381
0e038001c3
0e038001e3
0e038000f6
0e0380007e
0e0380003e
0fff80001f
0e0380000f
0c03000006
ENDCHAR
STARTCHAR 2266
ENCODING 8806
SWIDTH 903 0
DWIDTH 40 0
BBX 40 40 0 -6
BITMAP
0000000000
0300040004
07800e000e
ffdfff3fff
03c0e001c0
0380e001c0
0380e001c0
0380e001c0
0380e001c0
0380e001c0
0380e001c0
6398e331c6
7f9fffbfff
7398e331c6
7318e331c6
7018e331c6
7018e331c6
7018e331c6
e018e331c6
e318d331a6
e799933326
ffd99b3336
c3d99b3336
039b1b3636
039a133426
039e033c06
039c033806
0398033006
0398033006
0398033006
0398033006
0398033006
0398033006
039fff3ffe
0398033006
0718033006
ff18003000
1e00000000
1c00000000
1800000000
ENDCHAR
STARTCHAR 2267
ENCODING 8807
SWIDTH 903 0
DWIDTH 40 0
BBX 40 40 0 -6
BITMAP
0000000000
00c0010004
01e003800e
fff3ffcfff
00f01c0070
00e01c0070
00e01c0070
00e01c0070
00e03800e0
00e03800e0
00e07001c0
30e3638d8e
3fe3ffcfff
38c3838e0e
3803838e0e
3803838e0e
3803838e0e
7003838e0e
70c3838e0e
71e3838e0e
fff3838e0e
60f3838e0e
00e3838e0e
00e3838e0e
00e3ff8ffe
00e3838e0e
00e3838e0e
00e3838e0e
00e3838e0e
00e3838e0e
00e3838e0e
00e3838e0e
00e3838e0e
01e3838e0e
01c3838e0e
03c3838e0e
ff83ff8ffe
3f03838e0e
0e03830e0c
0c03000c00
ENDCHAR
STARTCHAR 2268
ENCODING 8808
SWIDTH 903 0
DWIDTH 40 0
BBX 40 40 0 -6
BITMAP
00f0000000
00e0000030
00c0c00078
3181e3fffc
3ffff0003c
3800f00038
3800e00038
3800e00038
3fffe1fff8
3800e00038
3800e00038
3800e00038
3fffe00038
3000c7fff8
0006000038
0007800030
000f00c000
000e01e000
001ffff000
003801f000
00ec03c000
03870f0000
1e03bc0000
0001f00000
0007be0000
003c3c0300
07e0380780
000c3c0f00
001e3e1c00
7fff3b3000
001f39c000
003c38e000
0078387c00
00f0383f00
01e0380fff
03807803ff
0e1ff800fc
3800f0001c
e000e00000
0000c00000
ENDCHAR
STARTCHAR 2269
ENCODING 8809
SWIDTH 903 0
DWIDTH 40 0
BBX 40 40 0 -6
BITMAP
0030000000
003e000018
003c00001e
003800003c
0038300038
0038780070
003ffc00e0
00380001c0
0038000380
0038000700
3038380e00
3ffffc1c00
3800387000
3800380018
3ffff8001e
380038003c
3800380038
3ffff80070
38003800e0
38003801c0
3ffff80380
3038300700
0038000e00
0c39801c00
0f38c03800
1e3870e00c
1c3838000f
38381c001e
30381c001c
60380c0038
c639800070
07b8e000e0
0f387001c0
0e38380380
1c381c0700
38381c0e00
70380c1c00
c038003800
003800e000
0030038000
ENDCHAR
STARTCHAR 226a
ENCODING 8810
SWIDTH 903 0
DWIDTH 40 0
BBX 40 40 0 -6
BITMAP
0000300000
00003e0000
00603c1c00
00f8380700
01e03801c0
03803838f0
070031fc78
1c000fc038
70007e0000
0003e00000
001f600000
00f8700000
0f80e00300
f801c00780
01ffffffc0
01c00003c0
01c0000380
01ffffff80
01c0000380
01c0000380
01ffffff80
018c000300
000f00000c
000e00001e
ffffffffff
0038006600
007001f300
00e00781c0
01c01e00f0
0700f0187f
0e07807e3f
38fc01f01e
e0000f8306
00007807c0
000fc01f00
01f8007800
000003c000
00003e0000
0007e00000
03fc000000
ENDCHAR
STARTCHAR 226b
ENCODING 8811
SWIDTH 903 0
DWIDTH 40 0
BBX 40 40 0 -6
BITMAP
0000000060
00c00000f0
00f07ffff8
01e0000078
03c0000070
0700000072
0e03ffffff
1c00000070
3800000070
7000000070
c0007ffff0
0000000000
0000000000
0060000c1c
0078018ffe
00f1ffce1e
00e01c0e1c
01c01c0e1c
03801c0e1c
07001c0e1c
0e001feffc
1c03ff0000
3803f80180
7001c001f0
c000c001e0
00180001c0
001e0001c6
003dffffff
00780001c0
00703001c0
00e01c01c0
01c00f01c0
03800701c0
07000301c0
0e000001c0
1c000003c0
380001ffc0
e000001f80
0000000700
0000000600
ENDCHAR
STARTCHAR 226c
ENCODING 8812
SWIDTH 903 0
DWIDTH 40 0
BBX 40 40 0 -6
BITMAP
0000000060
00c01800f0
00f01ffff8
01e01c0078
03c01c0070
07001c0070
0e001c0070
1c001ffff0
38001c0070
70001c0070
c0001c0070
00001c0070
00001ffff0
0060186060
0078003000
00f0003804
00e000180e
01c1ffffff
0380000000
0700000000
0e00180070
1c001ffff8
38001c0078
70001c0070
c0001c0070
00181c0070
001e1c0070
003c1ffff0
0078001c60
0070001c00
00e0181c00
01c01e1c30
03801c1c18
0700381c0c
0e00301c0e
1c00603c07
3800c7fc07
e001807803
0003007000
0000006000
ENDCHAR
STARTCHAR 226d
ENCODING 8813
SWIDTH 903 0
DWIDTH 40 0
BBX 40 40 0 -6
BITMAP
00600000c0
00780600f0
00f00300e0
00e00181c0
01c001c184
01c000c30e
0380ffffff
070000c300
060000c300
0c0030c31c
18183ffffe
301e38c31e
603c38c31c
003838c31c
00703983fc
00f03b01fc
00e03e001c
01c038001c
03c038019c
03c03bffdc
07c038001c
0fc038001c
0dc03ffffc
19c03000e0
31c00000e0
61c00000e6
c1c0ffffff
01c00000e0
01c00c00e0
01c00700e0
01c003c0e0
01c001c0e0
01c000c0e0
01c00000e0
01c00000e0
01c00001e0
01c000ffe0
01c0000fc0
01c0000380
0180000300
ENDCHAR
STARTCHAR 226e
ENCODING 8814
SWIDTH 903 0
DWIDTH 40 0
BBX 40 40 0 -6
BITMAP
0060000000
0078000008
00f000001c
00e3fffffe
01c0007000
01c0006000
038030c0e0
07003ffff0
06003800e0
0c003800e0
18183fffe0
301e3800e0
603c3800e0
00383fffe0
0070b800e0
00f0b800ee
00e1ffffff
01c380000f
03c780008c
03c70001c8
07c67fffe0
0fc0060000
0dc0078000
19c0070060
31c0ce00f0
61c06ffff8
c1c03c00f8
01c01c00e0
01c03e01c0
01c0730380
01c0e1c700
01c1c0ee00
01c7007c00
01c000fe00
01c001e780
01c00383e0
01c00f01ff
01c03c007f
01c0f0001e
0187800006
ENDCHAR
STARTCHAR 226f
ENCODING 8815
SWIDTH 903 0
DWIDTH 40 0
BBX 40 40 0 -6
BITMAP
0060000c00
0078000f80
00f0000f00
00e00c0e00
01c00f0e08
01c00e0e1c
03800e0ffe
07000e0e00
06000e0e00
0c000e0e04
18180e0e0e
301effffff
603c000000
0038000030
00700c0078
00f00ffffc
00e00e003c
01c00e0038
03c00e0038
03c00ffff8
07c00e0038
0fc00e0038
0dc00e0038
19c00ffff8
31c00c1800
61c0001f00
c1c0001e00
01c0181c30
01c01f1c18
01c01e1c0c
01c0381c6e
01c0701cf7
01c0e01dc7
01c1801f03
01c0003c00
01c000f000
01c003c000
01c00f0000
01c0780000
0183e00000
ENDCHAR
STARTCHAR 2270
ENCODING 8816
SWIDTH 903 0
DWIDTH 40 0
BBX 40 40 0 -6
BITMAP
00600000f0
0078001ff8
00f003fffc
00e07f0000
01c0000030
01c000603c
0380303038
0700183830
06001c1860
0c000c00c0
1818000000
301e3ffff0
603c038070
0038038070
0070038070
00f00380e0
00e00700e0
01c007fffc
03c007001c
03c007001c
07c00e001c
0fc00e0038
0dc01c0038
19c01fffff
31c0380007
61c0380007
c1c0700007
01c07000c7
01c0e01867
01c1c30c77
01c3918e77
01c311ce37
01c631c607
01cc30c00f
01d870000e
01c070001e
01c0601ffc
01c00001f8
01c0000070
0180000060
ENDCHAR
STARTCHAR 2271
ENCODING 8817
SWIDTH 903 0
DWIDTH 40 0
BBX 40 40 0 -6
BITMAP
0000c00030
0000e00078
1800fffffc
0e00e07000
0780e07000
0388e07060
0188fffff0
0018e07000
0018e07000
0030e07060
0070fffff0
0060e07000
00e0e0700c
01c0e0701e
0180ffffff
038060300e
0700783c0e
0e0070380e
7e0070398e
3c0fffffce
1c0070380e
0e0070381e
0e0070381c
0f0070383c
0f00603078
0f00007ff0
0600000fe0
00003003c0
00301c0300
003e0e0000
083c070000
0838070260
1838030238
183800061c
383c00060e
703e000c0f
f01ffffe07
e00ffffe07
c003fffc03
0000000000
ENDCHAR
STARTCHAR 2272
ENCODING 8818
SWIDTH 903 0
DWIDTH 40 0
BBX 40 40 0 -6
BITMAP
0000000000
1800300030
1c00780078
1ffffcfffc
1c003c403c
1c00384038
1c00386038
1ffff86038
1c00303070
1c00003070
1c7fe030e0
1c000018e0
1c000019c0
1dfff80dc0
1c0c000f80
1c0f980f80
1b0f1c1f80
398e181dc0
31ce3038e0
70dd603078
601d80603f
c038e0c01f
807071800e
01c03b0006
07003e0000
3c00180000
0000000000
0000380000
00301e0000
083e0f0000
083c070060
1838030238
183800021c
383800060e
703c000607
f03e000c07
e01ffffe03
c00ffffe00
0003fffc00
0000000000
ENDCHAR
STARTCHAR 2273
ENCODING 8819
SWIDTH 903 0
DWIDTH 40 0
BBX 40 40 0 -6
BITMAP
0060006000
007c007c00
0078207800
0070707000
7ffff87000
007000e00e
207000ffff
207071e070
7ffff9a070
e00079a070
e000733070
cfff633070
00074630e0
000e0418e0
00180018c0
0070000dc0
007fc00f80
7ff0000700
7e70000f80
3070001dc0
00700038e0
00f0007078
1ff001c03f
01e007001f
01c01c000e
0180000006
0000380000
00301e0000
083e0f0000
083c078060
1838038238
183801821c
383800060e
303800060f
703c000c07
f03e001c07
e01ffffe03
c00ffffe00
0003fffc00
0000000000
ENDCHAR
STARTCHAR 2274
ENCODING 8820
SWIDTH 903 0
DWIDTH 40 0
BBX 40 40 0 -6
BITMAP
006000c000
007c00f800
007880f000
0071c0e000
3fffe1c000
007001c00c
007001c01e
007003ffff
00704380e0
0070e300e0
fffff780e0
038e0680e0
038e0cc1c0
338e1861c0
3b8f906380
338ee03380
638e703f00
670e701e00
c70e303f00
860e007bc0
0e0e00f1f0
0c0e01c0ff
19fe03807f
301e0e0038
601c380018
c018e00000
0000000000
0000380000
00301e0000
083e0f0000
083c070060
1838030238
183800021c
383800060e
703c000607
f03e000c07
e01ffffe03
c00ffffe00
0003fffc00
0000000000
ENDCHAR
STARTCHAR 2275
ENCODING 8821
SWIDTH 903 0
DWIDTH 40 0
BBX 40 40 0 -6
BITMAP
0018006000
001f007c00
001e007800
001c007030
001c007078
3ffffffffc
001c007000
001c007000
001c007000
001ffff000
0018386000
00003800c0
0c003801e0
0ffffffff0
0e003800f0
0e183860e0
0e1e3878e0
0e1c3870e0
0e1c3870e0
0e3838ece0
0e3a38c6e0
0e33b986e0
0e61bb00e0
0ec1ba01e0
0e80383fc0
0e00300380
0c00000300
0000380000
00301e0000
083e0f0000
083c070060
1838030238
183800021c
383800060e
703c000607
f03e000c07
e01ffffe03
c00ffffe00
0003fffc00
0000000000
ENDCHAR
STARTCHAR 2276
ENCODING 8822
SWIDTH 903 0
DWIDTH 40 0
BBX 40 40 0 -6
BITMAP
0000003000
0006003e00
600f003c00
7fff803800
71c7803830
71c7003878
71c71ffffc
71c700703c
71c7007038
71c7007038
71c700e038
7fff00e038
71c701e038
71c701c078
71c7038070
71c7030070
71c7061fe0
71c70c03c0
71c7180180
7fff300180
7007080000
60060e0180
01800c01c0
00c00c618c
00600cf19e
0c707ff7ff
0f700c718f
0e300c718e
2e060c718e
2e030c718e
2e018c718e
2e01cc718e
6e05cc718e
6e0cd8730e
ef1818730e
effc30f60e
e7fc37e61e
c1f861ccfc
0000c19838
0001801030
ENDCHAR
STARTCHAR 2277
ENCODING 8823
SWIDTH 903 0
DWIDTH 40 0
BBX 40 40 0 -6
BITMAP
000c00c000
000f00f000
000e00e00c
000e00e01e
fffe00ffff
000e00e000
000e00e000
018c00c700
01ffffff80
01c0000700
01c0000700
01c0000700
01ffffff00
01c0000700
01c0000700
01c0000700
01ffffff00
0183000600
0003c0000c
000780001e
ffffffffff
000e018000
001c00c000
0038007000
0070003c00
00e0001f80
01c00007ff
03803803ff
0e0c1e00fc
390f8f001c
e10f070300
030e0309c0
030e0008e0
070e001870
0e0f001838
1e0f803038
1c07fff818
1803fff800
0000fff000
0000000000
ENDCHAR
STARTCHAR 2278
ENCODING 8824
SWIDTH 903 0
DWIDTH 40 0
BBX 40 40 0 -6
BITMAP
00c0000c00
00f8000f80
60f1860f18
78e1e78e1f
70e1c70e1e
70e1c70e1c
70e1c70e1c
ffffcffffc
61c1861c1c
01c0001c18
0380003800
0700007000
0c0001c000
3180000700
01ffffff80
01c0380700
01c0380700
01c0380700
01c0380700
01ffffff00
01c0380700
01c0380700
01c0380700
01c0380700
01ffffff00
0180000600
0000300000
00001c0000
00300e0000
003e070000
043c070180
04380308e0
0c38000870
0c38001838
1c3800183c
383c00301c
783ffff81c
701ffff80c
6007fff000
0000000000
ENDCHAR
STARTCHAR 2279
ENCODING 8825
SWIDTH 903 0
DWIDTH 40 0
BBX 40 40 0 -6
BITMAP
0c00001800
0f80001f00
0f00001e00
0e0c001c00
0e07001c70
0e0387fff8
0e01c01c70
0e00c01c70
0e00c01c70
0f00001c70
2f80001c76
2ec00fffff
2ee0001c70
6ee0c01c70
6e61e01c70
ee7ff01c70
ee00f01c70
ce00e7fff0
ce01c01c00
0e01801c18
0e03861c3c
0e03039c70
0e0771dcc0
0e0ff8dc00
0e0e701d80
0e0c707ce0
0e0070dc70
0e00739c3c
0e00e71c1c
0e00ee1c0c
0e01cc1c00
0e01c1fc00
0e0380fc00
0e07c03800
0e0ff83000
0e0f7f0000
0e061fffff
0e0003ffff
0e0000fffc
0c00000000
ENDCHAR
STARTCHAR 227a
ENCODING 8826
SWIDTH 903 0
DWIDTH 40 0
BBX 40 40 0 -6
BITMAP
0300000000
03e0020008
03c007001c
0383ff8ffe
03803800e0
03803800e0
03803800e0
03803800e0
03803800e0
03c03980e6
13e3ffdfff
13b03800e0
33b83800f0
339c7c01d8
739c7601cc
738c77038e
e380e38386
e380c38707
c381c1c607
038181cc03
038300d803
0386003000
0380000000
0380007000
0380003c00
0380061e00
0380078e00
0380070600
0380470000
0380470018
0380c7000e
0380c70027
0381c70027
0383c70063
0383870060
03830780c0
038007ffe0
038003ffe0
038001ffc0
0300000000
ENDCHAR
STARTCHAR 227b
ENCODING 8827
SWIDTH 903 0
DWIDTH 40 0
BBX 40 40 0 -6
BITMAP
0300000000
03e00c0060
03c00f807c
03800f0078
03800e0070
0380cec676
0380ffe7ff
0380ce0670
0380ce0670
03c0ce0670
13e18e0c70
13b18e0c70
33b98e4c72
339dffefff
739c1c00e0
738c1f00f8
e3803b01d8
e3803b1998
c380737319
038063c619
0380c38c1f
038181980f
0383003000
0380300038
03803ffffc
0380380038
0380380038
0380380038
0380380038
0380380038
03803ffff8
0380380038
0380380038
0380380038
0380380038
0380380038
03803ffff8
0380380038
0380380030
0300300000
ENDCHAR
STARTCHAR 227c
ENCODING 8828
SWIDTH 903 0
DWIDTH 40 0
BBX 40 40 0 -6
BITMAP
0300000000
03e000000c
03c0c0001e
0380ffffff
0380e1c70f
0380e1c70e
0380e1c70e
0380e1c70e
0380e1c70e
03c0e1c70e
13e0e1c70e
13b0fffffe
33b8e0000e
339cc0c00c
739c007000
738c003800
e38000380c
e38000181e
c380ffffff
0380000000
0380000020
0380000070
03801ffff8
0380000000
0380000020
0380000070
03801ffff8
0380000000
0380000030
0380180078
03801ffffc
03801c003c
03801c0038
03801c0038
03801c0038
03801c0038
03801c0038
03801ffff8
03801c0038
0300180030
ENDCHAR
STARTCHAR 227d
ENCODING 8829
SWIDTH 903 0
DWIDTH 40 0
BBX 40 40 0 -6
BITMAP
0300000000
03e01800c0
03c01f00f8
03801e00f0
03801c00e0
03803b01d8
03803981ce
038071c387
038060c707
03c0c00e03
13e1981cc0
13b11f30f8
33b81e00f0
339c1c00e0
739c3b01d8
738c31818e
e38061c307
e380c0e607
c381806c03
0383001800
0380000060
03803000f0
03803ffff8
0380380078
0380380070
0380380070
0380380070
0380380070
0380380070
03803ffff0
0380380070
0380380070
0380380070
0380380070
0380380070
0380380070
03803ffff0
0380380070
0380380060
0300300000
ENDCHAR
STARTCHAR 227e
ENCODING 8830
SWIDTH 903 0
DWIDTH 40 0
BBX 40 40 0 -6
BITMAP
0300018000
03e001e000
03c0038180
03800700e0
03800e0070
03803ffff8
03801c0038
03800c0018
0380000000
03c03000c0
13e03800e0
13b07301cc
33b8618186
339cc0c303
739fffcfff
738dc0c703
e380c07303
e380007000
c38000f800
038001cc00
0380038700
03800703c0
03800e61f8
03801c7cff
038038783f
038070701e
0381c07006
0387007000
0380107000
0380107318
038030718c
03807070c6
0380f070e7
0380e070e7
0380c07063
038000f000
03801ff000
038001e000
038001c000
0300018000
ENDCHAR
STARTCHAR 2321
ENCODING 8993
SWIDTH 903 0
DWIDTH 40 0
BBX 40 40 0 -6
BITMAP
0300000000
03e0020008
03c007001c
0383ff8ffe
03803800e0
03803800e0
03803800e0
03803800e0
03803800e0
03c03980e6
13e3ffdfff
13b03800e0
33b83800f0
339c7c01d8
739c7601cc
738c73038e
e380e38386
e380c1c707
c381c1c607
038180cc03
0383001860
03863030f0
03803ffff8
0380380078
0380380070
0380380070
0380380070
0380380070
0380380070
03803ffff0
0380380070
0380380070
0380380070
0380380070
0380380070
0380380070
03803ffff0
0380380070
0380380060
0300300000
ENDCHAR
STARTCHAR 2322
ENCODING 8994
SWIDTH 903 0
DWIDTH 40 0
BBX 40 40 0 -6
BITMAP
030000c000
03e000f000
03c000e000
038001c018
038061803c
03807ffffe
038070001e
038070001c
038070001c
03c07ffffc
13e070001c
13b070001c
33b870001c
339c7ffffc
739c70001c
738c70001c
e38070001c
e3807ffffc
c380603018
0380003e00
0380003c00
0380023804
0380ff39fe
0380003800
0380003800
0380003800
0380023804
0380ff39fe
0380003800
0380003800
0380003800
0380003806
0381ffffff
0380003800
0380003800
0380003800
0380003800
0380003800
0380003800
0300003000
ENDCHAR
STARTCHAR 2323
ENCODING 8995
SWIDTH 903 0
DWIDTH 40 0
BBX 40 40 0 -6
BITMAP
0060003000
007c003e60
0078003c38
007020381c
007070380e
fffff8380e
0070003806
0070003800
0070403800
0070e03804
3ffff0380e
00000fffff
2000003800
2000703800
7ffff83800
6000783800
e004603818
e00e40381e
cfff00381c
000000381c
0001801c1c
000fc01c38
007fe01c38
3ff0001c70
0070001c70
0070200ee0
0070700fc0
fffff80fc0
00f0000780
01fc000700
03f7000f81
03f3800f81
0771c01dc3
0e71c039e3
1c70c070f6
387000e07e
707001c03e
c07003801f
00700e000f
0060380006
ENDCHAR
STARTCHAR 2324
ENCODING 8996
SWIDTH 903 0
DWIDTH 40 0
BBX 40 40 0 -6
BITMAP
0018006000
001f007c00
001e007800
001c087300
001c1c71c0
3ffffe70f0
001c007070
001c007030
001c007004
001c00700e
ffffffffff
0000007000
0030007000
003e007000
003c007000
0038307000
3ffff87000
0038007000
0038607000
1ffff07060
007000707c
0070007078
fffffe70f0
00e30038e0
01c18039c0
0380e039c0
0700783b80
0ffffe1f80
3b81de1f00
e381cc1e00
0381c01f01
03ffc03f01
0381c07783
0381c0e3c3
0381c1c1e7
03ffc380f6
03018f007e
00001c003f
000070001f
0001c00006
ENDCHAR
STARTCHAR 2325
ENCODING 8997
SWIDTH 903 0
DWIDTH 40 0
BBX 40 40 0 -6
BITMAP
0018006000
001f007c00
001e007980
001c0c70e0
3ffffe7078
001c00703c
001c00701c
0ffff8700c
001c007000
001c007006
ffffffffff
0030007000
003c007000
00380c7000
fffffe7000
0038007000
1e38787000
1c38707000
1c38707060
3ffff0707c
1838627078
0038027070
00380370f0
003fff38e0
001ffe39c0
00000039c0
0c00e03b80
0ffff01f80
0e00e01f00
0e00e01e00
0e00e01f01
0fffe03f01
0e00e07783
0e00e0e3c3
0e00e1c1e7
0fffe380f6
0e00c7007e
0c001c003f
000070001f
0001c00006
ENDCHAR
STARTCHAR 2326
ENCODING 8998
SWIDTH 903 0
DWIDTH 40 0
BBX 40 40 0 -6
BITMAP
0000000c00
0000000f98
0000000f0e
0000000e07
0000000e03
3000000e00
3fffffffff
3800000e00
3800000e00
38ffff8e00
38e1c00e00
38e1c00e00
38ffff0e00
38e0070e18
38e0070e1f
38ffff0e1e
38e1c00e1c
38e1c08e1c
39ffffce1c
38c0000e1c
3803000e1c
3801800e1c
3800c38e38
38ffffce38
38e0e3c738
38e1f38738
38e1f38770
38e33b8770
38e63f83e0
38ec1f83e0
38f81b83c0
38e00381c1
38e00383e1
38e00387e1
30e0038ef3
70e03f9c7b
70e007383e
60c006701f
c00000e00f
8000038006
ENDCHAR
STARTCHAR 2327
ENCODING 8999
SWIDTH 903 0
DWIDTH 40 0
BBX 40 40 0 -6
BITMAP
0000000c00
6000180f80
7ffffc0f30
7008180e1c
700e180e0e
700d180e0e
700d980e06
700cd80e00
700cd80e00
700c180e04
700c180e0e
7ffff9ffff
700c180e00
700c180e00
700c180e00
700c180e00
746cd80e0c
77ecd80e0f
766cd80e0e
766cd80e0e
766cd8070e
766cd8071c
766d98071c
766d98071c
7665980738
76671803b8
77e71803f0
76675803f0
70035801e0
70775801e0
71c7d803c0
7f0dd803e1
7618d807e1
7030580e73
7020581c3b
704018383e
700018701e
7ffff8e00f
70001b8007
6000060003
ENDCHAR
STARTCHAR 2328
ENCODING 9000
SWIDTH 903 0
DWIDTH 40 0
BBX 40 40 0 -6
BITMAP
0060003000
0078003e60
0070403c38
0070e0381c
007ff0380e
007000380e
3070003806
3870703800
3ffff83800
3860783804
387860380e
38704fffff
3870003800
3fffe03800
3870003800
3870003800
3870003818
387fe0381e
383fe0381c
380000381c
3800c01c1c
3803e01c38
381ff01c38
3bfc001c70
381c601c70
3b1c700ee0
399c600fc0
38dcc00fc0
385c900780
3ffff80700
381c000f81
701c000f81
701c001dc3
701c0039e3
601c0070f6
e03c00e07e
c1fc01c03e
807803801f
00700e000f
0060380006
ENDCHAR
STARTCHAR 2329
ENCODING 9001
SWIDTH 903 0
DWIDTH 40 0
BBX 40 40 0 -6
BITMAP
0060003000
007c003e60
6078603c38
787078381c
707070380e
707070380e
7070703806
fffff03800
6000603800
0000003804
0000c0380e
3001e7ffff
3ffff03800
3800e03800
3800e03800
3800e03800
3800e03818
3fffe0381e
3800e0381c
3800e0381c
3800e01c1c
3800e01c38
3fffe01c38
3060c01c70
007c001c70
0078300ee0
6070380fc0
3870700fc0
1c70e00780
0e71800700
0e73000f81
06e8000f81
00ec001dc3
01c60039e3
03c70070f6
070380e07e
0e01c1c03e
1c01c3801f
7000ce000f
c000380006
ENDCHAR
STARTCHAR 232a
ENCODING 9002
SWIDTH 903 0
DWIDTH 40 0
BBX 40 40 0 -6
BITMAP
0000006000
0000007c00
00000078c0
0000007070
0000007038
000000701c
000000700c
0000007000
ffffffffff
0000007000
0000307000
3000787000
3ffffc7000
38383c7000
3838387000
3838387030
3ffff8703e
383838703c
3838387038
3838387038
3ffff87070
0303007070
03c3c070e0
03839838e0
7ffffc39c0
03838039c0
0383803b80
0383801f00
03838c1f00
fffffe1e00
0301801e01
03c0e03f01
0780707783
0f0038e3c3
1c0019c1e3
38000380f6
e0000e007e
000038003f
0000e0001f
0007000006
ENDCHAR
STARTCHAR 232b
ENCODING 9003
SWIDTH 903 0
DWIDTH 40 0
BBX 40 40 0 -6
BITMAP
0001800038
0007c301fc
181fe38ffe
1cfc03fc00
1fc0038000
1c0003800c
1c0003801e
1c0183ffff
1c03c3800f
1fffe3800e
1c01e3800e
1c01c3800e
1c01c3fffe
1c01c3800c
1c01c38000
1c01c70000
1c01c70000
1fffce0000
1c018c0038
1c001b01fc
1c00338ffe
1c0003fc00
1c00038000
1c0183800c
1c03c3801e
1fffe3ffff
3b81e3800f
3b81c3800e
3b81c3800e
3b81c3800e
7381c3fffe
7381c3800c
6381c38000
6381c70000
c381c70000
c381c60000
83ffcc0000
0381cc0000
0301980000
0000100000
ENDCHAR
STARTCHAR 232c
ENCODING 9004
SWIDTH 903 0
DWIDTH 40 0
BBX 40 40 0 -6
BITMAP
0000600000
0000380000
08001c0018
08000c003c
0ffffffffe
180000001e
3860000018
707c0000d0
7079ffffe0
60f0070000
00e0060180
01c0cc03c0
03c0ffffe0
07c0e001c0
0fc0e001c0
1dc0e001c0
31c0ffffc0
61c0e001c0
01c0e001c0
01c0e001c0
01c0ffffc0
01c0c00180
0180000000
0000003e00
000003ff80
00003fffc0
07fffc0000
00001c0000
00001c0030
1ffffffff8
00001c0000
00001c0006
ffffffffff
00001c0000
00001c0000
00001c0000
000ffc0000
0000780000
0000700000
0000600000
ENDCHAR
STARTCHAR 232d
ENCODING 9005
SWIDTH 903 0
DWIDTH 40 0
BBX 40 40 0 -6
BITMAP
0000180000
00000e0000
0000070000
0c0007000c
0e0003001e
0fffffffff
0e03000300
0e03e003e0
0e03c003c0
0e0398038c
0ffffcfffe
0e07800780
0e0f800fc0
0e0fe01fe0
0e1bb83bb0
0e3b9c739c
0e338ce38f
0e6381c387
0ec3838382
0f83860300
0e03000000
0e00000380
0e00003fe0
0e0003fff0
0e0fff8000
0e00038000
0e00038030
0e3ffffff8
1c00038000
1c00038004
1c0003800e
39ffffffff
3800038000
3000038000
7000038000
6000078000
c003ff8000
80003f0000
00000e0000
00000c0000
ENDCHAR
STARTCHAR 232e
ENCODING 9006
SWIDTH 903 0
DWIDTH 40 0
BBX 40 40 0 -6
BITMAP
0600030000
038003c000
01c1038018
00c383003c
7fffc7fffe
01c0060000
01c00c0000
01c39bc020
01ffb38070
01c383fff8
01c3831c00
0383861c00
03838c1c08
0383801c1c
0703bffffe
0703803800
0e03807380
0c0700e0e0
19ff01c038
307e07001e
601c1c000e
c018700006
0000001f00
00000fff80
000fffffc0
07fc1c0000
00001c0000
00001c0030
1ffffffff8
00001c0000
00001c0006
ffffffffff
00001c0000
00001c0000
00001c0000
00003c0000
000ffc0000
0001f80000
0000700000
0000600000
ENDCHAR
STARTCHAR 232f
ENCODING 9007
SWIDTH 903 0
DWIDTH 40 0
BBX 40 40 0 -6
BITMAP
0000300000
00001c0000
00000e0000
18000e000c
1c0006001e
1fffffffff
1c00000000
1c00c00030
1c30f8003e
1c38f00c3c
1c30e30f38
1c7fff8e38
1c60e00e38
1cc0e00e38
1c80e0ce38
1dffffee38
1c00e00e38
1c30e38e38
1c3fffce38
1c38e38c38
1c38e38038
1c38e38038
1c38ef83f8
1c30e30070
1c00c03e60
1c0003ff00
1c07ff8000
1c00038000
3800038060
383ffffff0
3800038000
380003800c
31fffffffe
3000038000
7000038000
6000038000
6000ff8000
c000078000
8000070000
0000060000
ENDCHAR
STARTCHAR 2330
ENCODING 9008
SWIDTH 903 0
DWIDTH 40 0
BBX 40 40 0 -6
BITMAP
0000000000
0000030018
0018ff8ffc
7ffc1c01c0
03801c01c0
03801c01c0
07001c01c0
07001c01c0
0e381d81cc
0ffdffdffe
1e381c01c0
3e381c01c0
6e381c01c0
ce383801c0
0e383801c0
0e387001c0
0ff86001c0
0e30c001c0
0c01800180
0003000000
0006001f00
00000fff80
000fffffc0
07fc1c0000
00001c0000
00001c0020
00001c0070
1ffffffff8
00001c0000
00001c0000
00001c0006
ffffffffff
00001c0000
00001c0000
00001c0000
00003c0000
001ffc0000
0001f80000
0000700000
0000600000
ENDCHAR
STARTCHAR 2331
ENCODING 9009
SWIDTH 903 0
DWIDTH 40 0
BBX 40 40 0 -6
BITMAP
0180180000
01e01f0000
03c01e0030
07001c0078
1c183ffffc
0c3c30003c
0678600038
03e0d81c38
01c19ffe38
038c1c1c38
06061c1c38
1c3f1c1c38
7fe71ffc38
7e07181838
3803000038
000c000078
0987007ff0
18e38001e0
30718001c0
7030000000
6000001f00
00000fff80
000fffffc0
07fc1c0000
00001c0000
00001c0020
00001c0070
1ffffffff8
00001c0000
00001c0000
00001c0006
ffffffffff
00001c0000
00001c0000
00001c0000
00003c0000
001ffc0000
0001f80000
0000700000
0000600000
ENDCHAR
STARTCHAR 2332
ENCODING 9010
SWIDTH 903 0
DWIDTH 40 0
BBX 40 40 0 -6
BITMAP
0300000000
03e0010004
03c003800e
0383ffdfff
0380700380
0380700380
0380700380
038073839c
03807fc3fe
039863831c
fffce3871c
0380c3861c
0381e38f1c
0381b70db8
03831e18f0
03820e1070
03800c0060
03801800c0
039c300180
03f0600300
03c0c03600
0f81803c00
ff80003800
ff80003800
738000380e
3381ffffff
0380003800
0380003800
0380183800
03801e3860
03803c3830
0380383818
038070381c
038060380e
0380c0380f
0781803807
ff83003807
0f06003803
0e00003800
0c00003000
ENDCHAR
STARTCHAR 2333
ENCODING 9011
SWIDTH 903 0
DWIDTH 40 0
BBX 40 40 0 -6
BITMAP
0300600600
03e03807c0
03c01c0780
03801c0700
03800c6730
0387fff71c
038000070e
038000c70e
038180e706
0398c0c700
fffc61c700
0380718700
0380330704
038036070e
0387ffffff
0380000700
0380000700
0380018700
039d83c700
03f1ffe70c
03c1c1e70f
0f81c1c70e
ff81c1c70e
ff81c1c71c
7381c1c39c
3381c1c3b8
0381ffc3b8
0381c1c3f0
0381c1c3f0
0381c1c1e0
0381c1c1c0
0381c1c3e1
0381c1c3e1
0381ffc773
0381c18e7b
0781801c3e
ff8000381e
0f0000700f
0e0001c007
0c00070003
ENDCHAR
STARTCHAR 2334
ENCODING 9012
SWIDTH 903 0
DWIDTH 40 0
BBX 40 40 0 -6
BITMAP
030000c000
03e0007000
03c0003800
038000380c
038000181e
0383ffffff
0380000000
0380300000
03803ffffc
0398381c00
fffc381c00
0380381c00
03803ffff8
0380381c00
0380381c00
0380381c00
03803ffff8
0380381c00
039c381c00
03f0381c0e
03c03fffff
0f8030000e
ff8006000e
ff8007c0ce
73800780ee
33800f41ce
03800e638e
03801e267e
03801c3c1c
03803c1818
03807c1c00
0380fc0e00
0381dc0700
03839c0380
03861c19e0
07801c70f0
ff801fc07f
0f001f803f
0e000e001c
0c0006000c
ENDCHAR
STARTCHAR 2335
ENCODING 9013
SWIDTH 903 0
DWIDTH 40 0
BBX 40 40 0 -6
BITMAP
0300006000
03e0007c00
03c0007800
0380007030
0380c0707c
03807070f0
03803871c0
03801c7380
03801c7600
03980ce000
fffc00ec00
038001c700
038001c180
03800380e0
0380070078
03800e003c
03801c001e
038038000e
039ce00006
03f3800000
03c0180180
0f801e01e0
ff801c01c0
ff801cc1c6
73831ce1c7
33819cd9ce
0381dccdcc
0380dd8dc8
0380dd0dd0
03801c01c0
03803a01e0
03803b03a0
0380718330
038071c718
0380e1ce18
0780c0dc0c
ff8180380e
0f03007007
0e0600e003
0c0c018000
ENDCHAR
STARTCHAR 2336
ENCODING 9014
SWIDTH 903 0
DWIDTH 40 0
BBX 40 40 0 -6
BITMAP
0300000000
03e0000018
03c000003c
03807ffffe
038000001e
038000001c
03801fff1c
038000e01c
038000e01c
039800e31c
fffc3fff9c
038000001c
038000001c
03807ffffc
0380700000
0380700000
038071fff0
0380700e00
039c700e00
03f0e00e30
03c0e3fff8
0f80e00000
ff80e0000e
ff81ffffff
7380c0000e
338000000e
038030070e
03803fff8e
038038070e
038038070e
038038070e
03803fff0e
038030060e
038000001e
038000001c
078000003c
ff800ffff8
0f00000ff0
0e000001e0
0c000001c0
ENDCHAR
STARTCHAR 2337
ENCODING 9015
SWIDTH 903 0
DWIDTH 40 0
BBX 40 40 0 -6
BITMAP
0300003000
03e0003e00
03c0003c00
0380003808
038000381c
0380fffffe
0380003800
0380003800
0380303838
03983ffffc
fffc38383c
0380383838
0380383838
03803ffff8
0380383838
0380383838
0380383838
03803ffff8
039c303860
03f0003830
03c0003818
0f80003ffc
ff80fffe0e
ff80ff800e
7380700006
3380303000
0380001c00
0380060e00
0380078700
0380070300
0380270030
0380270018
038067004c
038067004e
0380e700c7
0781c78187
ff81c7ffc3
0f0183ffc0
0e0001ff80
0c00000000
ENDCHAR
STARTCHAR 2338
ENCODING 9016
SWIDTH 903 0
DWIDTH 40 0
BBX 40 40 0 -6
BITMAP
0300000000
03e000800c
03c181c01e
0381ffefff
03818e040f
03818e040e
03818e060e
03818e021c
0381ffc31c
039980c318
fffd80c1b8
038180c1f0
038180c0e0
0381ffc1f0
03818e03b8
03818e071c
03818e0e1e
03818e1c0f
039bffb807
03f180e1c3
03c00007e0
0f80003ff0
ff803ff800
ff80003800
7380003800
3380003818
0380fffffc
0380003800
0380003800
0380003806
0383ffffff
0380003800
0380003800
0380003800
0380003800
0780007800
ff803ff800
0f0003f000
0e0000e000
0c0000c000
ENDCHAR
STARTCHAR 2339
ENCODING 9017
SWIDTH 903 0
DWIDTH 40 0
BBX 40 40 0 -6
BITMAP
0300000000
03e000000c
03c000001e
038000ffff
03800001c0
0380040180
03800e0380
0387ff6318
038070763c
0398707ffe
fffc70701e
038070701c
038070701c
038070701c
038070701c
038070701c
0380707ffc
038070701c
039c70701c
03f070701c
03c070701c
0f8070701c
ff8070701c
ff80707ffc
738070701c
338070701c
038070701c
038077701c
03807e701c
0380f8701c
038fe07ffc
038f806018
0387001800
0383001e30
0380003c1c
078000780e
ff8000e007
0f0001c007
0e00030003
0c00060000
ENDCHAR
STARTCHAR 233a
ENCODING 9018
SWIDTH 903 0
DWIDTH 40 0
BBX 40 40 0 -6
BITMAP
0300000000
03e0000004
03c000000e
0381ffffff
038001c700
038001c700
038001c700
038001c70c
0380c1c71e
0398ffc7ff
fffce1c70f
0380e1c70e
0380e1c70e
0380e1c70e
0380e1c70e
0380e1c70e
0381ffc7fe
0380c1c70c
039c01c700
03f001c700
03c001c700
0f8001c718
ff8061c73c
ff807ffffe
738070381e
338070381c
038070381c
038070381c
038070381c
038070381c
03807ffffc
038070381c
038070381c
038070381c
038070381c
078070381c
ff8070381c
0f007ffffc
0e0070001c
0c00600018
ENDCHAR
STARTCHAR 233b
ENCODING 9019
SWIDTH 903 0
DWIDTH 40 0
BBX 40 40 0 -6
BITMAP
0600300000
07c03e000c
07803c061e
07003807ff
070038070f
070038c70e
070fffe70e
070038070e
070038070e
072038070e
fff639c70e
0707ffe70e
070701e70e
070701c7fe
070701c70e
070701c70e
070701c70e
0707ffc70e
076701c70e
07c701c70e
078701c70e
1f0701c70e
ff0701c70e
ff07ffc7fe
770739870e
370638070e
070038070e
0700380e0e
070038ce0e
070fffee0e
0700380e0e
0700380c0e
0700381c0e
0700381c0e
070038180e
070038381e
ff003833fe
0f0038603c
0e0038c038
0c00318030
ENDCHAR
STARTCHAR 233c
ENCODING 9020
SWIDTH 903 0
DWIDTH 40 0
BBX 40 40 0 -6
BITMAP
0c06030000
0f87c3e0c0
0f0783c0f8
0e070380f0
0e070380e0
0e070380e0
0e070380e0
0e070380e6
0e070390ff
0e3fdff8e0
ffc70380e0
0e070380e0
0e070380e0
0e0f0780e0
0e0f0780ee
0e0f87c7ff
0e0fc7e20e
0e1fcfb20e
0e1f6fba0e
0e3f6fba0e
0fb76f9b0e
1e371b830e
fe371b811c
fe371b819c
ee6733819c
6e673380d8
0e472380f8
0e076380f0
0e07438070
0e070380f0
0e070380f8
0e070381d8
0e0703819c
0e0703838c
0e0703870e
0e0703860e
fe07038e07
1e07038c07
1c07039803
1806033000
ENDCHAR
STARTCHAR 233d
ENCODING 9021
SWIDTH 903 0
DWIDTH 40 0
BBX 40 40 0 -6
BITMAP
0300003000
03e0003e30
03c0303c3c
0380183838
03800c3870
0380063860
03802738cc
038023399e
03807fffff
0398e0000f
fffde0000c
0381cc00e8
03818ffff0
03800e00f0
03800e00e0
03800e00e0
03800e00e0
03800e00e0
039c0e00e0
03f00fffe0
03c00c30c0
0f80003e00
ff80003c00
ff8000380c
738000381e
3381ffffff
0380003800
0380003800
0380003800
0380303800
03803c3860
0380383830
0380383818
038070380c
038060380e
0780c03807
ff81803807
0f03003803
0e06003800
0c00003000
ENDCHAR
STARTCHAR 233e
ENCODING 9022
SWIDTH 903 0
DWIDTH 40 0
BBX 40 40 0 -6
BITMAP
0300000000
03e0c1860c
03c0e3c71e
0380ffe7ff
0380e1e70f
0380e1c70e
0380e1c70e
0380e1c70e
0380e1c70e
0398e1c70e
fffce1c70e
0380ffc7fe
0380e1c70e
0380e1c70e
0380e1c70e
0380e1c70e
0380e1c70e
0380e1c70e
039ce1c70e
03f0ffc7fe
03c0e1860e
0f80c0000c
ff80006000
ff80003800
7380001e00
3380060f00
0380078700
0380070300
0380470000
0380470018
0380c7000c
0380c70026
0381c70027
0383c70067
0383870063
07830780c0
ff8007ffe0
0f0003ffe0
0e0001ffc0
0c00000000
ENDCHAR
STARTCHAR 233f
ENCODING 9023
SWIDTH 903 0
DWIDTH 40 0
BBX 40 40 0 -6
BITMAP
0300030300
03e003e3e0
03c003c3c0
0380038386
0381ff83ff
0380038380
0380038380
0380030310
0380000038
03987ffffc
fffc003800
0380003800
0380003804
038000380e
0381ffffff
0380003800
0380003800
0380003800
039c003800
03f0003000
03c000c000
0f80007000
ff80003800
ff80001800
7380fffc06
3380001c0f
0380001c1e
0380061e38
03800f1f60
0383ff9d80
0380079d80
0380071cc0
03800e1ce0
03801c1c78
0380381c3f
0780e03c1f
ff8387fc0e
0f0e007806
0e00007000
0c00006000
ENDCHAR
STARTCHAR 2340
ENCODING 9024
SWIDTH 903 0
DWIDTH 40 0
BBX 40 40 0 -6
BITMAP
0300001800
03e0001f00
03c0001e00
0380301c00
03803e1c10
03803c1c38
0380381ffc
0380381c00
0380381c00
0398381c00
fffc381c04
0380381c0e
0383ffffff
0380000000
0380180000
03801e000c
03801c000f
038018c00e
039c31e30e
03f0fff3ce
03c0e0f38e
0f80e0e38e
ff80fce38e
ff80eee38e
7380e6e38e
3380e0e38e
0380e0fb8e
038fffe38e
038ee0e38e
0386e0e38e
0380fce38e
0380eee38e
0380e6e38e
0380e0e30e
0380c0e00e
0781c0e00e
ff8180e00e
0f031fe1fe
0e0601c01c
0c0c018018
ENDCHAR
STARTCHAR 2341
ENCODING 9025
SWIDTH 903 0
DWIDTH 40 0
BBX 40 40 0 -6
BITMAP
03000c0300
03e00f83e0
03c00f03c0
03800e0380
03800e0380
03801c0760
03801f0738
0380398e1c
038031cc0e
039860d807
fffcc03007
03818c6303
03830fc3e0
03800f03c0
03800e0380
03800e0380
03801c0760
03801f0738
039c398e1c
03f031cc0e
03c060d807
0f80c03007
ff81806003
ff8300c030
7380300078
33803ffffc
038038003c
0380380038
0380380038
0380380038
0380380038
03803ffff8
0380380038
0380380038
0380380038
0780380038
ff80380038
0f003ffff8
0e00380038
0c00300030
ENDCHAR
STARTCHAR 2342
ENCODING 9026
SWIDTH 903 0
DWIDTH 40 0
BBX 40 40 0 -6
BITMAP
0300300300
03e03e03e0
03c03c03c0
0380380380
0380386386
03807ff3ff
0380730730
0380e1861c
0380c1cc0e
039980d806
fffd181000
03801f0000
03801e0000
03801c0018
03803c003c
03803ffffe
038070001e
038060001c
039cc0181c
03f1b03c1c
03c33ffe1c
0f80381e1c
ff80381c1c
ff80381c1c
7380381c1c
33803ffc1c
0380381c1c
0380381c1c
0380381c1c
0380381c1c
03803ffc1c
0380381c1c
038030183c
0380000038
0380000078
07800001f0
ff8001ffe0
0f00000fc0
0e00000380
0c00000300
ENDCHAR
STARTCHAR 2343
ENCODING 9027
SWIDTH 903 0
DWIDTH 40 0
BBX 40 40 0 -6
BITMAP
0600006000
07c0307c00
078c787800
070ffc7000
070e3c7000
070e38e00c
070e38e01e
070e38ffff
070e39c00f
070e39800e
ffee3b180e
070e3a1e0e
070e3c1cce
070ff91cee
070e389cce
070e38dc8e
070e38dd8e
070e385d0e
076e381c0e
07ce381c4e
078e39ffee
1f0e381c0e
ff0ff81c0e
ff0e389d0e
770e38dc8e
370e38dcce
070e38dcce
070e399c6e
070e399c6e
070e391c6e
070e3b1c0e
070e3a1c0e
070c381c0e
071c38180e
071c38001e
071838003e
ff1bf80ffc
0f307803f8
0e30700070
0c20600060
ENDCHAR
STARTCHAR 2344
ENCODING 9028
SWIDTH 903 0
DWIDTH 40 0
BBX 40 40 0 -6
BITMAP
0300000078
03e0000ffc
03c003fffe
0380ff3800
0380003800
0380003800
0380183860
03801e3878
03801c3870
03981c3870
fffc1c3870
03803638d8
038063398c
0380c3bb0e
038181be06
0380003800
0380183860
03801e3878
039c1c3870
03f01c3870
03c01c3870
0f803638d8
ff8063398c
ff80c3bb0e
738181be06
3380003800
0380003800
0380003800
0380003818
03807ffffc
0380003800
0380003800
0380003800
0380003800
0380003800
078000380c
ff8000381e
0f03ffffff
0e00000000
0c00000000
ENDCHAR
STARTCHAR 2345
ENCODING 9029
SWIDTH 903 0
DWIDTH 40 0
BBX 40 40 0 -6
BITMAP
0300303030
03e0383838
03c0707070
0380606060
0380c0c0c0
0381818180
0380c0c0c0
0380707070
0380383838
0398181818
fffc000000
0380fffff8
0380e06038
0380e07838
0380e07038
0380e0ec38
0380e1c638
0380e38338
039ce60338
03f0c00030
03c0000000
0f80600070
ff807ffff8
ff80707070
7380707070
3380707070
0380707070
03807ffff0
0380707070
0380707070
0380707070
0380707071
03807ffff1
0380e07071
0380e0703b
0781c0703b
ff8180701e
0f0300701f
0e0600700f
0c0c006006
ENDCHAR
STARTCHAR 2346
ENCODING 9030
SWIDTH 903 0
DWIDTH 40 0
BBX 40 40 0 -6
BITMAP
00c0006000
00f0007800
00e1807000
7fffc070c0
00e00071e0
00e01ffff0
ffffe070f0
0e0e0070e0
1c0e0670e0
18ef03f0e0
30e7e1e0e0
60e3e0f0e0
c0e000f8e1
3fff81dce1
00e0039ce3
00e0070ce6
00e00e00ff
ffffdc007f
ffc038003e
7000e00000
3000300000
00003c0004
000038000e
ffffffffff
0000380000
0000380000
0000381e00
03ffffff00
0030001f00
001c003c00
0007007800
0003c1e000
0000f78000
00003e0000
00007fc000
0001f1fe00
000f803fff
00780007ff
07c00000fe
fc0000001e
ENDCHAR
STARTCHAR 2347
ENCODING 9031
SWIDTH 903 0
DWIDTH 40 0
BBX 40 40 0 -6
BITMAP
0300000c00
03c0000f80
0381800f00
6703c00e00
7fffe00e00
7001e00e00
7001c00e00
7001c00e04
7001c00e0e
7fffdfffff
7001c00e00
7001c00e00
7001c00e00
7001c00e00
7fffc00e00
6000000e30
0000000e78
000007fffc
ffffe1003c
1c07010038
1c07018038
1c07008070
38c700c070
30f3e040e0
60e1e060e0
c0e00031c0
00e00031c0
00e1801b80
7fffc01f00
00e0000f00
00e0000f00
00e0001f80
00e0003bc0
00e00071e0
00e000e0f0
00efe1c07c
fffc03803f
ff0007001f
70001c000e
3000700006
ENDCHAR
STARTCHAR 2348
ENCODING 9032
SWIDTH 903 0
DWIDTH 40 0
BBX 40 40 0 -6
BITMAP
006000c000
007800f000
0070c0e004
3fffe0e00e
007001ffff
007001c038
007063e038
7ffff33070
00f0061870
01fc0c0ce0
03f70007c0
0773c007c0
0e71e00ff0
1c70e01c7f
387060703f
e07001c01e
00600f0006
1800000000
1fffffffff
1c000c0000
1c000f0000
1c000e0018
1c000e003c
1c000ffffe
1c000e0000
1c000e0000
1c000e01c0
1cffffffe0
1c0c0003e0
1c06000780
1c03800f00
1800e01c00
3800787000
38001fc000
30000fe000
30003efe00
6000f03fff
6007800fff
c07c0001fe
8fc000001e
ENDCHAR
STARTCHAR 2349
ENCODING 9033
SWIDTH 903 0
DWIDTH 40 0
BBX 40 40 0 -6
BITMAP
006000c000
007c00f800
007820f000
007070e004
fffff8e00e
007001ffff
007001c038
7ffff3c038
7070736038
7070762070
70707c3070
70707018e0
7073f01dc0
60f0600f80
01fc000700
03f7800f80
0771e01de0
0e70f038f8
1c7070e07f
707031c03f
c07007000e
00703c0006
0060000000
000000000c
7ffffffffe
0000070000
0000070000
0000070000
00c0070000
00f8070040
00f00700e0
00e007fff0
00e0070000
00e0070000
00e0070000
00e0070000
00e0070004
00e007000e
ffffffffff
0000000000
ENDCHAR
STARTCHAR 234a
ENCODING 9034
SWIDTH 903 0
DWIDTH 40 0
BBX 40 40 0 -6
BITMAP
0000006000
0000207c00
0000707800
fffff87000
6000007000
6000007000
6003007000
6187807000
61ffc0e004
61c3c0e00e
61c380ffff
61c380e070
61c381c070
61c381c070
61c381c070
61ff834070
6183036070
6000066070
6000042070
60000030e0
66666030e0
67f7f010e0
66767018e0
66666019c0
6666600dc0
6666600f80
6666600f80
6666600700
6666600700
67e7e00f80
6666600f80
6606001dc0
60000038e0
60000070f0
700000e078
7fffe1c03c
3ffff3803f
1ffff7001f
00001c000e
0000700006
ENDCHAR
STARTCHAR 234b
ENCODING 9035
SWIDTH 903 0
DWIDTH 40 0
BBX 40 40 0 -6
BITMAP
0060000c00
0078000f80
0070c00f00
3071e00e00
3ffff00e00
3870f00e00
3870e00e00
3870e00e04
fffff80e0e
3870e00fff
3870e00e00
3870e00e00
3fffe00e00
0070000e00
0070000e00
3070e00e18
3ffff00e3c
3870f3fffe
3870e0803e
3870e08038
3870e08038
3fffe0c070
0070004070
0c600060e0
0f038060e0
0e039031c0
fffff831c0
0e03801b80
0e03801f00
1c07000f00
3807000f00
7f8e001f80
31fc003bc0
003e0071e0
007780e0f0
00e1e1c07c
0380f3803f
070077001f
1c001c000e
f000700006
ENDCHAR
STARTCHAR 234c
ENCODING 9036
SWIDTH 903 0
DWIDTH 40 0
BBX 40 40 0 -6
BITMAP
0060006000
0078007c00
0070c07800
3071e07000
3ffff07000
3870f07000
3870e07000
3870e07000
3870e0e004
3fffe0e00e
007000ffff
007010e070
fffff9c070
007001c070
007001c070
3070e34070
3ffff36070
3870f66070
3870e42070
3870e030e0
3870e030e0
3fffe010e0
00700018e0
0c600019c0
0f03800dc0
0e03900f80
fffff80f80
0e03800700
0e03800700
1c07000f80
3807000f80
7f8e001dc0
31fc0038e0
003e0070f0
007780e078
00e1e1c03c
0380f3803f
070077001f
1c001c000e
f000700006
ENDCHAR
STARTCHAR 234d
ENCODING 9037
SWIDTH 903 0
DWIDTH 40 0
BBX 40 40 0 -6
BITMAP
0001801800
1803c01f00
1fffe01e00
1c71e01c00
1c71c01c00
1c71c01c00
1c71c01c00
fffff81c04
38e3801c0e
38e3801fff
38e3801c00
38e3801c00
3fff801c00
0000001c00
0001801c00
6003c01c18
7fffe01c3c
7001effffe
7001c1003e
7001c10038
7001c18038
7fffc08070
7001c0c070
7001c040e0
7001c060e0
7001c021c0
7fffc031c0
7001c01b80
7001c01f00
7001c00f00
7001c00f00
7fffc01f80
1800003bc0
1e070071e0
1c03c0e0f0
3801e1c07c
3000e3803f
600067001f
c0001c000e
8000700006
ENDCHAR
STARTCHAR 234e
ENCODING 9038
SWIDTH 903 0
DWIDTH 40 0
BBX 40 40 0 -6
BITMAP
0030000c00
003e000f80
003c000f00
0038100e00
0038380e00
003ffc0e00
0038000e00
0038000e04
6038380e0e
7ffffc0fff
61803c0e00
61e0300e00
61c0200e00
61c0000e00
7ffff00e00
61c0000e18
61c0000e3c
61c007fffe
61e000803e
60fff08038
607ff08038
600000c070
6000004070
66007060e0
67fff860e0
671c7831c0
671c7031c0
671c701b80
671c701f00
671c700f00
67fff00f00
671c701f80
671c703bc0
671c7071e0
671c70e0f0
671c71c07c
c7fff3803f
c70067001f
86001c000e
0000700006
ENDCHAR
STARTCHAR 234f
ENCODING 9039
SWIDTH 903 0
DWIDTH 40 0
BBX 40 40 0 -6
BITMAP
0030000300
003c0003e0
00380803c0
00381c0380
003ffe0380
0038000380
3038000380
3ffff80380
3800380386
38033803ff
3b83b80380
38e7380380
387e380380
383c380380
387e380380
38e738038c
39c3b8039e
3f01b8ffff
380038200f
3ffff8200e
003000300e
003c00100e
603818181c
70383c181c
fffffe0c38
70701e0c38
70701c0670
70e01c0770
70c31c03e0
71819c03c0
731fdc03c0
77f1dc07e0
7700dc07e0
73001c0e70
70001c1c78
70001c383c
70001c701f
7003fce01f
700039c00e
6000370006
ENDCHAR
STARTCHAR 2350
ENCODING 9040
SWIDTH 903 0
DWIDTH 40 0
BBX 40 40 0 -6
BITMAP
0000e06000
001ff07c00
07fff87800
fe00007000
0070007000
7070707000
7070707000
7070707000
7ffff0e004
007000e00e
007000ffff
707070e070
707071c070
707071c070
7ffff1c070
0070034070
0070036070
7070766070
7070742070
70707030e0
fffff030e0
60006010e0
00600018e0
007c0019c0
0078000dc0
0070000f80
3070000f80
3c71800700
3870c00700
3870600f80
3870700f80
3070381dc0
70703838e0
60703870f0
607018e078
c07001c03c
807003803f
0ff007001f
00e01c000e
00c0700006
ENDCHAR
STARTCHAR 2351
ENCODING 9041
SWIDTH 903 0
DWIDTH 40 0
BBX 40 40 0 -6
BITMAP
0300600180
03c07801f0
038c7181e0
038e71c1c0
038c7181c0
070c7181c0
070c7181c0
060c7181c0
0e0c7181c6
0c0c7181ff
181fff81c0
300c7181c0
60007001c0
c0007001c0
06007001c0
07c07081c0
079fffc1ce
0700703fff
070070080f
070070080e
070070080e
2780718c0e
27dfffcc1c
676070041c
6770700638
e770f00638
e730f00370
c701fc0370
0701f603e0
0703f301c0
07037381c0
070771c3e0
070e71c7e0
070c70ce70
0718701c78
073070383c
076070701f
070070e01f
070071c00e
0600670006
ENDCHAR
STARTCHAR 2352
ENCODING 9042
SWIDTH 903 0
DWIDTH 40 0
BBX 40 40 0 -6
BITMAP
0030006000
00f8007c00
01c0007800
0703007000
1c07c07000
700f007000
7e3c007000
07f0007000
01c000e004
070300e00e
1c0180ffff
303fc0e070
fff0e1c070
fe00e1c070
706061c070
3078034070
0070036070
0070266070
7ffff42070
00700030e0
00700030e0
00703010e0
fffff818e0
18018019c0
0c01c00dc0
0603800f80
0703000f80
0306000700
7ffff00700
0070000f80
0070000f80
0070001dc0
00703038e0
fffff870f0
007000e078
007001c03c
007003803f
007007001f
00701c000e
0060700006
ENDCHAR
STARTCHAR 2353
ENCODING 9043
SWIDTH 903 0
DWIDTH 40 0
BBX 40 40 0 -6
BITMAP
00c0006000
00f0007c00
00e1807800
7fffc070c0
00e00071e0
00e01ffff0
00e0c070f0
ffffe070e0
0e0e0670e0
1c0e03f0e0
38efe1e0e0
70e7e0f0e0
c0e000f8e1
00e001fce1
3fff81dce3
00e0038ce6
00e00700ff
00e00e007f
00ff9c003e
fff0700000
fe00000000
7000700000
3000380000
00001c0018
00000c003c
7ffffffffe
0030003800
0018007000
000c00e000
000601c000
0003838000
0001c70000
0000fc0000
00007e0000
0001e7c000
000781fe00
001e007fff
00f0000fff
0f800001fe
f80000001e
ENDCHAR
STARTCHAR 2354
ENCODING 9044
SWIDTH 903 0
DWIDTH 40 0
BBX 40 40 0 -6
BITMAP
000e00c000
007f007000
03ff803800
1f80001c00
f000001c00
0003000c04
0603c0000e
c383bfffff
71c70400e0
39c60400e0
38cc0400e0
18180400e0
00000600e0
01800600e0
01f00200e0
01e00301c0
01c00301c0
01c00301c0
01c3018380
ffff818398
01c001871c
01c000c738
01c000ce30
31c000ee6c
3dc8007cce
39cc00799c
39c6003b18
39c7007e36
39c700fe67
39c380eece
31c381cf8c
71c3838798
61c38703f0
61c18e01e0
c1c01c00f0
81c038007c
01c070003f
01c0e0001f
01c380000e
018e000006
ENDCHAR
STARTCHAR 2355
ENCODING 9045
SWIDTH 903 0
DWIDTH 40 0
BBX 40 40 0 -6
BITMAP
0000300030
600078003e
7ffffc003c
70003c0038
7000380038
7000380038
7ffff9ffff
7000000038
7000000038
77fff06038
7000003838
7000001c38
7ffff81c38
701c000c38
761c000038
679c600038
671c300038
ce1c180038
cc1c1c0038
981c0c0ff8
301c000070
0018000060
0000003000
0007003e00
0001c03c00
0000f03800
0000783800
0000383800
01c0003800
0070003800
003c003800
001e003800
000e00380c
000000381e
ffffffffff
0000003800
0000003800
0000003800
0000003800
0000003000
ENDCHAR
STARTCHAR 2356
ENCODING 9046
SWIDTH 903 0
DWIDTH 40 0
BBX 40 40 0 -6
BITMAP
0600000000
0380000004
01c000000e
01c0ffffff
00c601c700
ffff01c700
1c0001c700
1c0001c718
1c0061c73c
1c007ffffe
1c0071c71e
1c0071c71c
1c1871c71c
1c3c71c71c
1ffe71c71c
1c1e71c71c
1c1c7ffffc
1c1c600018
1c1c000000
1c1c000000
1c1c000030
1c1c3ffff8
1c1c000000
1c1c000000
1c1c000000
1c1c000004
1c1c00000e
1c1dffffff
1c1c003800
381c003800
381c183800
381c1e3860
381c1c3838
301c38381c
301c30380e
703c603807
6ff8c03807
60f1803803
c0e3003800
80c0003000
ENDCHAR
STARTCHAR 2357
ENCODING 9047
SWIDTH 903 0
DWIDTH 40 0
BBX 40 40 0 -6
BITMAP
0003018000
000781e004
3fffc1c00e
0003c1ffff
000703e038
070c033070
01d8061ce0
00f00c0fc0
0070e00fe0
fffff01dff
00f8f0707f
01f8c3d81e
03b99e1e06
0739001c00
0e380ffffc
1c3800381c
383800701c
e03800e01c
003801c01c
07f80383fc
00700e0038
0060380030
0000000000
0000000180
06000003c0
07ffffffe0
07000001e0
07000001c0
07000001c0
07000001c0
07000001c0
07ffffffc0
07000001c0
07000001c0
07000001c0
07000001c0
07000001c0
07ffffffc0
07000001c0
0600000180
ENDCHAR
STARTCHAR 2358
ENCODING 9048
SWIDTH 903 0
DWIDTH 40 0
BBX 40 40 0 -6
BITMAP
00c0000600
00f8000780
00f0800704
00e1c0070e
ffffe7ffff
00e0000700
00e0000700
00e1000708
3fff81fffc
00e0000700
00e0000700
00e0000706
ffffe7ffff
fee0000700
70e0000700
30e0000700
00c0000600
07ffffffc0
00000001c0
00000001c4
00000001ce
ffffffffff
00000001c0
00000001c0
00000001c0
07ffffffc0
0000000000
0000000000
06000001c0
07ffffffe0
07000001e0
07000001c0
07000001c0
07ffffffc0
07000001c0
07000001c0
07000001c0
07ffffffc0
07000001c0
0600000180
ENDCHAR
STARTCHAR 2359
ENCODING 9049
SWIDTH 903 0
DWIDTH 40 0
BBX 40 40 0 -6
BITMAP
0006018000
0007c1f000
000781e000
000701c00c
000701c01e
ffffffffff
000701c000
000701c000
000701c060
180701c0f0
1ffffffff8
1c0701c078
1c0701c070
1c0701c070
1c0701c070
1ffffffff0
1c0701c070
1c0701c070
1c0701c070
1c0701c070
1ffffffff0
1800000000
0000000000
0003000060
18078300f0
1fffc3fff8
1c03c38078
1c03838070
1c03838070
1c03838070
1c03838070
1fff83fff0
1c03838070
1c03838070
1c03838070
1c03838070
1c03838070
1fff83fff0
1c03038060
1800030000
ENDCHAR
STARTCHAR 235a
ENCODING 9050
SWIDTH 903 0
DWIDTH 40 0
BBX 40 40 0 -6
BITMAP
0000000180
06000003c0
07ffffffe0
07000001e0
07000001c0
07000001c0
07ffffffc0
07000001c0
07000001c0
07000001c0
07ffffffc0
0600700000
0000380020
0000180070
1ffffffff8
0060000c00
0038001e00
001c003804
000c00600e
ffffffffff
00e0180300
01c03c01c0
03807000f0
0700fc007f
0e01c7803f
380701f01e
e00e307e06
00383c1fc0
00e07807f0
03807001f0
1e00f80070
0001ce0000
0003838000
000701f000
001c007e00
0038001fe0
00e00007ff
03800001ff
1e0000003e
f00000000e
ENDCHAR
STARTCHAR 235b
ENCODING 9051
SWIDTH 903 0
DWIDTH 40 0
BBX 40 40 0 -6
BITMAP
000000e000
0000007000
0000003804
000000180e
6061ffffff
70f0000000
7ff8000600
7078618798
707078c71e
7070706e1c
7070703c1c
7070703c1c
7070707e1c
707070e71c
707071c39c
707077019c
707070001c
707070001c
7ff07ffffc
7070003000
7070003c00
7070c0380c
7070e0381e
7073ffffff
7070e0380f
7070e0380e
7070e0398e
7070e038ce
7070e038ee
7070e03fee
7ff0effc6e
7070efc06e
7060e7000e
6000e3000e
0000e0000e
0000e0001e
0000e00ffe
0000e000fc
0000e00038
0000c00030
ENDCHAR
STARTCHAR 235c
ENCODING 9052
SWIDTH 903 0
DWIDTH 40 0
BBX 40 40 0 -6
BITMAP
0000000180
00000c01e0
00000701c0
0000038380
6060038304
70f001860e
7ff9ffffff
7078003800
7070003800
7070003800
7070003800
7070003800
7070003818
70707ffffc
7070003800
7070003800
7070003800
7070003800
7ff0003804
707000380e
7071ffffff
7070000000
7070000000
7070000018
707060003c
70707ffffe
707071c71e
707071c71c
707071c71c
707071c71c
7ff071c71c
707071c71c
706071c71c
600071c71c
000071c71c
000071c71c
000071c71c
0003ffffff
0000000000
0000000000
ENDCHAR
STARTCHAR 235d
ENCODING 9053
SWIDTH 903 0
DWIDTH 40 0
BBX 40 40 0 -6
BITMAP
0000300000
00003e000c
00003c001e
000038003f
01803806f0
c3c038c780
ffefffe700
e1e0380700
e1c0380700
e1c0380700
e1c638c700
e1c7ffe700
e1c638e706
e1c638c7ff
e1c638c71c
e1c638c71c
e1c638c71c
e1c7ffc71c
ffc638c71c
e1c638c71c
e1c638c71c
e1c638c71c
e1c638c71c
e1c7ffc71c
e1c638c71c
e1c038071c
e1c038071c
e1c038471c
e1cfffe61c
e1c0380e1c
ffc0380e1c
e1c0380e1c
e180380c1c
c000381c1c
000038181c
000038381c
000038301c
000038601c
000038c01c
0000318018
ENDCHAR
STARTCHAR 235e
ENCODING 9054
SWIDTH 903 0
DWIDTH 40 0
BBX 40 40 0 -6
BITMAP
0000000000
000000000c
000000001e
0003ffffff
6060e00000
70f0e00000
7ff8e000c0
7078e0c1e0
7070e0fff0
7070e0e0f0
7070e0e0e0
7070e0e0e0
7070e0e0e0
7070e0e0e0
7070e0e0e0
7070e0ffe0
7070e0e0c0
7070e0c000
7ff0e00000
7070e00000
7070e6318c
7070e7f9fe
7070e6398e
7070e6318c
7070e6318c
7070e6318c
7070e6318c
7070e6318c
7070e6318c
7070e7f1fc
7ff0e6318c
7070e60180
7060e00000
6000e00000
0000f00000
0000fffffe
00007fffff
00003fffff
0000000000
0000000000
ENDCHAR
STARTCHAR 235f
ENCODING 9055
SWIDTH 903 0
DWIDTH 40 0
BBX 40 40 0 -6
BITMAP
0000000000
0000000180
06000003c0
07ffffffe0
07000001e0
07000001c0
07000001c0
07ffffffc0
07000001c0
07000001c0
07000001c0
07ffffffc0
0700300180
06003c0000
0000380010
0000380038
3ffffffffc
0000380000
0060380300
00f83807c0
01e0380f00
0398381ce0
070e383838
1c0738e01c
70633b830c
00f83807c0
01e0380f00
0398381ce0
070e383838
1c0738e01c
70033b800c
0000380000
ffffffffff
0000380000
0000380000
0000380000
0000380000
0000380000
0000380000
0000300000
ENDCHAR
STARTCHAR 2360
ENCODING 9056
SWIDTH 903 0
DWIDTH 40 0
BBX 40 40 0 -6
BITMAP
0000000000
0000000180
06000003c0
07ffffffe0
07000001e0
07000001c0
07000001c0
07ffffffc0
07000001c0
07000001c0
07000001c0
07ffffffc0
0700000000
0600000030
0000300078
00183ffffc
603c38003c
7ffe380038
701e380038
701c380038
701c3ffff8
701c380038
701c380038
7ffc380038
701c380038
701c3ffff8
701c38c018
701c38603e
701c383078
7ffc3818e0
701c380d80
701c380700
701c380380
701c3861e0
701c38c0f8
7ffc3b807f
70183f003f
60003e001e
00001c0006
00000c0000
ENDCHAR
STARTCHAR 2361
ENCODING 9057
SWIDTH 903 0
DWIDTH 40 0
BBX 40 40 0 -6
BITMAP
3000000000
3c00000008
380000001c
3810063ffe
3ff98f01c0
3381ff81c0
7381c781c0
6381c701c0
c381c701c0
8381c701c6
0389c77fff
fffdc701c0
0381c701c0
0381c701c0
0701c701c0
07c1c701c0
0e71ff01c0
0c39c601c0
181d8001c0
301c0001c0
600c000180
c000000000
0300000380
03ffffffc0
03800003c0
0380000380
0380000380
0380000380
0380000380
0380000380
03ffffff80
0380000380
0380000380
0380000380
0380000380
0380000380
0380000380
03ffffff80
0380000380
0300000300
ENDCHAR
STARTCHAR 2362
ENCODING 9058
SWIDTH 903 0
DWIDTH 40 0
BBX 40 40 0 -6
BITMAP
0c0000c030
0e0030603e
0c303c303c
1878383838
7ffc701e38
703c600fb8
7038c00fb8
7039800738
7ffb7ffb38
70381c3838
70381c3838
70381c3838
70381c3838
7ff8183838
7038383838
7038303838
7038607838
7038cff038
7ff980e038
703300c030
6000000000
0000000180
06000003c0
07ffffffe0
07000001e0
07000001c0
07000001c0
07000001c0
07000001c0
07000001c0
07ffffffc0
07000001c0
07000001c0
07000001c0
07000001c0
07000001c0
07000001c0
07ffffffc0
07000001c0
0600000180
ENDCHAR
STARTCHAR 2363
ENCODING 9059
SWIDTH 903 0
DWIDTH 40 0
BBX 40 40 0 -6
BITMAP
00c0000600
00f80007c0
00f0800784
00e1c0070e
ffffe7ffff
00e0000700
00e0000700
00e180070c
7fffc3fffe
00e0000700
00e0000700
00e0000706
ffffe7ffff
ffe0000700
70e0000700
30e0000700
00c0000600
0000000000
07ffffffe0
07000000e0
07000000e0
07000000e0
07000000e0
07ffffffe0
07000000e0
07000000e0
07000000e0
07000000e0
07ffffffe0
0000000300
03000003c0
0180000380
00c0000700
00e0000600
0070000c00
007000180c
003000301e
ffffffffff
0000000000
0000000000
ENDCHAR
STARTCHAR 2364
ENCODING 9060
SWIDTH 903 0
DWIDTH 40 0
BBX 40 40 0 -6
BITMAP
0000003000
0030003e30
3078303c3c
3ffc1c3838
383c0e3870
38380e3860
38380638cc
3838fffffe
3838007000
3838007000
383800e004
383800e00e
3839ffffff
3ff801c300
3838038180
38380700e0
38380e0078
38381c003f
383838001f
383870000e
3838e00006
383b800038
38383ffffc
3ff838383c
3838383838
3838383838
3838383838
3838383838
3838383838
38383ffff8
3838383838
3038383838
7038383838
7038383838
7038383838
6078383838
67f83ffff8
c0f0380038
c0e0380030
80c0300000
ENDCHAR
STARTCHAR 2365
ENCODING 9061
SWIDTH 903 0
DWIDTH 40 0
BBX 40 40 0 -6
BITMAP
0600006000
07c0003800
0780001c00
0700001c04
0700c00c0e
0700ffffff
0700e00000
0700e00000
0730e00180
fff8e061f0
0700e079e0
0718e071c0
0f0ee071c0
0f07e071c0
0f07e071c0
1f83e671c0
1fc0e771c0
1f60e671c6
3f70e671ff
3770e67fc0
3730e671c0
7700e671c0
6701e671c0
6703e671c0
c70ee671c0
c73ce671c0
8738e671c0
0719c671c0
0701c671c0
0701c671c0
0701c671c0
07018671c0
07038671c1
07038671c1
07030671c3
0707067fe6
07067ff9ff
070c7f80ff
071838007e
0600180000
ENDCHAR
STARTCHAR 2366
ENCODING 9062
SWIDTH 903 0
DWIDTH 40 0
BBX 40 40 0 -6
BITMAP
0000c00c00
0180f80f00
00c0f00e00
0060e01c00
0070e01820
0031c03070
1ffffffff8
0003800000
0007000000
000e00000c
7ffffffffe
0038001800
0070c00c00
00e1f00600
01c3c00380
03870061f0
070e0038ff
0e3807fe3f
39ffff0f1e
e1ff800706
00e0000300
0060000000
007ffffe00
0070000e00
0070000e00
0070000e00
0070000e00
007ffffe00
0000380000
000038000c
000038001e
ffffffffff
0000380000
0060380000
00f8381e00
01e03803e0
07803800fc
1c0038003e
f00038000e
0000300000
ENDCHAR
STARTCHAR 2367
ENCODING 9063
SWIDTH 903 0
DWIDTH 40 0
BBX 40 40 0 -6
BITMAP
0000300000
00003c0000
0000380030
0000380078
3ffffffffc
0000380000
0000380000
00003800c0
07ffffffe0
0000000000
100000000c
100000001e
3fffffffff
700000000f
f1c000000c
e1c0000318
c1ffffff90
0180380000
0300380000
0600380018
3ffffffffc
0000380000
07003801c0
07003801e0
07003801c0
0fffffffc0
0600300180
00003c0000
000038000c
000038001e
ffffffffff
0000380000
0060380000
00f8381c00
01e0380780
07803801f0
0e0038007c
380038003e
e00038000e
0000300000
ENDCHAR
STARTCHAR 2368
ENCODING 9064
SWIDTH 903 0
DWIDTH 40 0
BBX 40 40 0 -6
BITMAP
0300006000
03e0003000
03c020380c
038020181e
03807fffff
0380e0000f
0381e0000c
0381c00008
03999ffff0
fffc000070
0380000070
0380000072
0781ffffff
0780000070
07c0000070
0fe0000070
0fb01ffff0
0fb8000000
1f9c20000c
1b9c20001e
1b8c7fffff
3b80e0380f
3381e0380c
3381c03808
6381803800
63803ffff8
c380383838
c380383838
8380383838
0380383838
0380383838
0380383838
0380383838
0380383838
0380383bf8
0380383870
0380303860
0380003800
0380003800
0300003000
ENDCHAR
STARTCHAR 2369
ENCODING 9065
SWIDTH 903 0
DWIDTH 40 0
BBX 40 40 0 -6
BITMAP
0600c00000
07c0f80004
0780f0000e
0700e3ffff
0700e00000
0700e00600
0700e00700
0700e00e18
0720e01c3c
fff0e07ffe
0702f0701e
0702f8701c
0f06ec761c
0f06ee731c
0f0ee6739c
1f8ee6719c
1fcce0701c
1f60e0701c
3f70e0701c
3770e3ffff
3730e0701c
7700e0701c
6700e0761c
6700e0731c
c700e0739c
c700e0719c
8700e0701c
0700e0701c
0700e0701c
0700e0601c
0700e0e01c
0700e0c01c
0700e181fc
0700e30038
0700e60030
0700e00000
0700e00006
0700e3ffff
0700e00000
0600c00000
ENDCHAR
STARTCHAR 236a
ENCODING 9066
SWIDTH 903 0
DWIDTH 40 0
BBX 40 40 0 -6
BITMAP
0300006000
03e0003800
03c0001c00
0380001c04
0380c00c0e
0380ffffff
0380e00000
0388e18060
039ce1e078
fffee1c070
0380e1c070
0380e1c070
0780ffffff
0780e1c070
07c0e1c070
0fe0e1c070
0fb0e1c070
0fb8e1c070
1f9ce1fff0
1b9ce18060
1b8ce00c00
3b80e00f00
3380e00e00
3380ec0e06
6380e70e0f
6380e38e1c
c380e38e38
c380e19d60
8380e01d00
0381c03980
0381c03880
0381c070c0
038180e060
038381c070
0383038038
038607003c
038c0e001f
03981c001f
038070000e
0301c00006
ENDCHAR
STARTCHAR 236b
ENCODING 9067
SWIDTH 903 0
DWIDTH 40 0
BBX 40 40 0 -6
BITMAP
0300006000
03e0003000
03c0003804
038000180e
0381ffffff
03800c0070
03800600e0
03880301c0
039c018380
fffe00e700
0380007e00
0380007f00
078000e7e0
07800381ff
07c00e007f
0fe078001e
0fb3c00006
0fb83ffff8
1f9c380038
1b9c380038
1b8c380038
3b80380038
33803ffff8
3380000000
6380000000
63803ffff8
c380380038
c380380038
838039c038
0380387c38
0380381f38
0380380738
0380380038
03807007b8
038077fc38
0380e7e038
0381c38038
0383818ff8
0387000070
031c000060
ENDCHAR
STARTCHAR 236c
ENCODING 9068
SWIDTH 903 0
DWIDTH 40 0
BBX 40 40 0 -6
BITMAP
0300000000
03e0000004
03c000000e
0381ffffff
038001c700
038001c700
038001c718
038861c73c
039c7ffffe
fffe71c71e
038071c71c
038071c71c
078071c71c
078071c71c
07c071ff1c
0fe060c018
0fb000f000
0fb800e004
1f9c01c00e
1b9dffffff
1b8c038380
3b800701c0
33800e00e0
33801c0078
638038003f
63807fffff
c380ee00ee
c381ce00e6
83870e00e0
03800e00e0
03800e00e0
03800e1fe4
03800e01c4
03800e018c
03800e000c
03800f0018
03800ffffc
038007fffc
038003fff8
0300000000
ENDCHAR
STARTCHAR 236d
ENCODING 9069
SWIDTH 903 0
DWIDTH 40 0
BBX 40 40 0 -6
BITMAP
0c00000180
0f800181f0
0f0603c1e0
0e07ffe1c0
0e0701e1c0
0e0701c1c0
0e0701c1c0
0e0701c1c4
0e6701c1ce
fff701dfff
0e0701c1c0
0e0701c1c0
0e0701c3c0
0e0701c3e0
1e07ffc3e0
1f063987f0
1f803807f0
3ec03807d8
3ee0380fd8
3ee0380ddc
6e66380dcc
6e07b81dce
6e073899ce
ce073fd9c7
ce073831c7
8e073831c6
0e073821c0
0e073801c0
0e073801c0
0e073801c0
0e063801c0
0e0e3801c0
0e0f3801c0
0e0fb801c0
0e1cf801c0
0e187ff1c0
0e303fe1c0
0e600fc1c0
0ec00001c0
0c00000180
ENDCHAR
STARTCHAR 236e
ENCODING 9070
SWIDTH 903 0
DWIDTH 40 0
BBX 40 40 0 -6
BITMAP
0300001800
03e0001e00
03c0001c08
0380001c1c
0380001ffe
0380001c00
0380601c00
03887fffff
039c706007
fffe707806
038070700c
0380707008
07807ffffe
0780707000
07c0707000
0fe0707800
0fb0703ffc
0fb8701ffc
1f9c700000
1b9c730000
1b8c73fffe
3b8073870e
338073870e
338073870e
638073870e
638073fffe
c38073870e
c38073870e
838073870e
038073870e
0380e3fffe
0380e3870c
0380e30700
0380c00700
0381c00700
0381800700
0383000700
0386000700
038c000700
0300000600
ENDCHAR
STARTCHAR 236f
ENCODING 9071
SWIDTH 903 0
DWIDTH 40 0
BBX 40 40 0 -6
BITMAP
0300001800
03e0001e00
03c0001c08
0380001c1c
0380001ffe
0380001c00
0380001c00
0388601c0e
039c7fffff
fffe70600f
038070780c
0380707018
0780707010
07807ffffc
07c0707000
0fe0707000
0fb0707800
0fb8703ffc
1f9c701ffc
1b9c700000
1b8c700078
3b807007fc
3380707ffe
338077e700
6380700718
638071871e
c38070c718
c38070e730
8380706722
0380efffff
0380e00700
0380e00700
0380c00700
0381c00700
0381800700
0383000f00
038603ff00
038c001e00
0398001c00
0300001800
ENDCHAR
STARTCHAR 2370
ENCODING 9072
SWIDTH 903 0
DWIDTH 40 0
BBX 40 40 0 -6
BITMAP
06001800c0
07c01e00f0
07801c00e0
07001c00e2
0703ffcfff
07001c00e0
07001c00e0
07001800c0
0730000000
fff8000300
0700c003e0
07007003c0
0f00380380
0f00380380
0f0018c380
1f8000f398
1fc004e38c
1f6604e38e
3f7384e387
3771cce387
3731ccc387
7700c9c383
6700198380
67001b0380
c70012038c
c70030038f
870030039e
070060031c
0700e00038
0707e00070
0703c000e0
0701c001c0
0700e00380
0700e00700
0700f00e00
0700f01c00
0700f07000
0700f0e000
0700638000
06000e0000
ENDCHAR
STARTCHAR 2371
ENCODING 9073
SWIDTH 903 0
DWIDTH 40 0
BBX 40 40 0 -6
BITMAP
0300300300
03e03c03c0
03c0380380
0380386386
03803ff3ff
0380730730
0380618618
0388c1cc1c
039d80d80c
fffe000000
038000c000
038000f000
078001e000
078001c000
07c00380c0
0fe0070060
0fb00e0030
0fb81c0018
1f9c38000c
1b9c7003fe
1b8dffff8f
3b81ffc007
3380f00007
3380700003
6380000000
6380000018
c38060003c
c3807ffffe
838070001e
038070001c
038070001c
038070001c
038070001c
038070001c
038070001c
038070001c
038070001c
03807ffffc
038070001c
0300600018
ENDCHAR
STARTCHAR 2372
ENCODING 9074
SWIDTH 903 0
DWIDTH 40 0
BBX 40 40 0 -6
BITMAP
0600c00000
07c0f00004
0780e0000e
0701c0ffff
07018071c0
0707fe71c0
07070e71c0
07070e71c0
07270e71c0
fff70e71c0
07070e71c0
0707fe71c0
0f070e71c0
0f070e71c0
0f070e71c0
1f870e71c0
1fc70e71c6
1f67feffff
3f700c6380
3776000380
3737800380
7707000380
6707000380
67070603f8
c707ff0770
c707000770
8707000770
0707010770
0707010e70
0707030e70
0707030e70
0707861c70
0707ff1c71
0703ff3871
0701fe3873
0700007072
070000e07f
070001c07f
070003803e
06000e0000
ENDCHAR
STARTCHAR 2373
ENCODING 9075
SWIDTH 903 0
DWIDTH 40 0
BBX 40 40 0 -6
BITMAP
0600600300
07c07803e0
07807003c0
0700e00380
0700e0c380
0701c0f380
0701c0e380
070380e38c
072300e3fe
fff700e380
070630e380
070c3ce380
0f1838e380
0f0070e380
0f0070e384
1f80e0e38e
1fc0e7ffff
1f61c00380
3f71c00380
3773c00380
3737c00380
7707c18380
670dc1f380
6719c1e38c
c701c1c3fe
c701c1c380
8701c1c380
0701c1c380
0701c1c380
0701c1c380
0701c1c380
0701c3c380
0701c3e380
0701c3b380
0701c31b80
0701c70f80
0701c607ff
0701cc03fe
0701d800fc
0601b00000
ENDCHAR
STARTCHAR 2374
ENCODING 9076
SWIDTH 903 0
DWIDTH 40 0
BBX 40 40 0 -6
BITMAP
0300006000
03e0007c00
03c0007800
038000fc00
038000e600
038001c300
0380038180
03880700e0
039c0e0078
fffe1dff3f
038038001f
038070000e
0780e000e6
07839ffff0
07c00000f0
0fe00001c0
0fb0000180
0fb8000308
1f9c00061c
1b9cfffffe
1b8c01c700
3b8001c700
338001c718
338061c73c
63807ffffe
638071c71e
c38071c71c
c38071871c
838073871c
03807307fc
03807603fc
03807c01fc
038070001c
038070001c
038077ffdc
038070001c
038070001c
038070001c
03807ffffc
0300600018
ENDCHAR
STARTCHAR 2375
ENCODING 9077
SWIDTH 903 0
DWIDTH 40 0
BBX 40 40 0 -6
BITMAP
0600000030
078300003e
070780003c
0fffc07038
0e03c03838
1c03001c38
3806000c38
7ffff00038
dc38700038
1c3871c038
1c3870e038
1ffff07038
1c38703038
1c38700038
1c38700038
1ffff00038
1c0077ffff
1c00700038
1c00700038
1800700038
380ff00038
3000e00038
6000c00038
c000300030
00003c0000
000038000c
000038001e
ffffffffff
0000380000
0000380000
0060380000
0078381c00
00f0380780
01e03801e0
03803800f0
0700380078
0e0038003c
380038001c
e00038000c
0000300000
ENDCHAR
STARTCHAR 2376
ENCODING 9078
SWIDTH 903 0
DWIDTH 40 0
BBX 40 40 0 -6
BITMAP
0060000c00
0078000f80
006c000f00
006e000e00
0066030e00
0066678e00
00607fce00
006063ce06
ffff638c0f
0060639fff
00606399c6
00606399c6
006063b1cc
666663b1c8
7f6763a1c0
67666381c0
66666381c0
66666381c0
66666381c0
66666381c0
66666381e0
66666383a0
66666383a0
666c6383a0
666c6383b0
7e6c638330
666c638730
0078638730
0038638718
07307f8e18
1c70630e18
f072600c1c
e0f2001c1c
61b600181c
033600380e
061c00300e
0c1c00600f
180e00c00f
600e018006
0006030006
ENDCHAR
STARTCHAR 2377
ENCODING 9079
SWIDTH 903 0
DWIDTH 40 0
BBX 40 40 0 -6
BITMAP
0000600c00
00007b0f00
000c73ce00
6006738e00
3807730e0e
1c03760fff
0e037c0dcf
0e00701dce
06007019cc
0007ff31d8
00070761d0
00070701c0
03070701c0
0787c701c0
ffc77701c0
07c73f01c0
07071f01e0
0e070703a0
0e070703a0
1c071f03b0
1c07f703b0
39c7e70330
7fe7670718
71e7070718
61c707061c
01c7070e1c
01c7070c0e
0387070c0e
038707180f
07077f300f
07070e6006
0e060cc006
1c00000000
3f80000000
7ff0000000
f0ff000000
600fffffff
0003fffffe
00007ffffc
0000000000
ENDCHAR
STARTCHAR 2378
ENCODING 9080
SWIDTH 903 0
DWIDTH 40 0
BBX 40 40 0 -6
BITMAP
006000c000
007c00f800
007800f000
007060e000
007ff0e000
007000e000
007000e000
607070e00c
7ffff8c01e
70c079ffff
70f061ce1f
70e0418e1c
70e0018e18
7ffff30e30
70e0030e20
70e0060e00
70e0040e00
70f0000e00
70ffc00e00
707fe00e00
703fe00f00
7000000f00
7000001f00
7066001d80
7077001d80
7066601d80
7c667838c0
76667038c0
77666030e0
7766c07060
7367806070
636700e070
606600c038
606601c03c
606601803c
c067f3001e
dffe06001f
9fc00c000f
0e0018000e
0600300006
ENDCHAR
STARTCHAR 2379
ENCODING 9081
SWIDTH 903 0
DWIDTH 40 0
BBX 40 40 0 -6
BITMAP
018000c000
01e0c0f800
03c1e0f000
07fff0e000
0e00f0e000
1ce1c0e000
383b80e000
e01f00e00c
00ee00c01e
079c01ffff
fc3801ce1f
70e0018e1c
31c0018e18
0700030e30
1c00030e20
f1c0060e00
00e0440e00
0060e00e00
fffff00e00
0000000e00
0000000f00
0001800f00
3fffc01f00
0000001d80
0000001d80
0001801d80
3fffc038c0
00000038c0
00000030e0
0001807060
3003c06070
3fffe0e070
3801e0c038
3801c1c03c
3801c1803c
3801c3001e
3801c6001f
3fffcc000f
380198000e
3000300006
ENDCHAR
STARTCHAR 237a
ENCODING 9082
SWIDTH 903 0
DWIDTH 40 0
BBX 40 40 0 -6
BITMAP
060000c000
0f00c0f800
1f81e0f000
781ff0e000
7000f0e000
7000e0e000
7000e0e000
7000e0e00c
7f9fe0c01e
7000e1ffff
7000e1ce1f
7000e18e1c
7000e18e18
7fffe30e30
6000c30e20
0000060e00
0000040e00
0000600e00
fffff00e00
0003800e00
0003800f00
00c3800f00
31e3801f00
3ff3801d80
38f3801d80
38e3801d80
38e38038c0
38e38038c0
3fe38030e0
38c3807060
3003806070
000380e070
000380c038
000381c03c
000381803c
000783001e
07ff86001f
003f0c000f
000e18000e
000c300006
ENDCHAR
STARTCHAR 237b
ENCODING 9083
SWIDTH 903 0
DWIDTH 40 0
BBX 40 40 0 -6
BITMAP
060000c000
0f00c0f800
1f81e0f000
781ff0e000
7000f0e000
7000e0e000
7000e0e000
7000e0e00c
7f9fe0c01e
7000e1ffff
7000e1ce1f
7000e18e1c
7000e18e18
7fffe30e30
0000c30e20
3000060e00
3c00040e00
3800c00e00
3801e00e00
3ffff00e00
7000f00f00
6000e00f00
c060e01f00
98f0e01d80
1ff8e01d80
1c78e01d80
1c70e038c0
1c70e038c0
1c70e030e0
1c70e07060
1ff0e06070
1860e0e070
0000e0c038
0001e1c03c
0001c1803c
0003c3001e
07ff86001f
003f0c000f
000e18000e
000c300006
ENDCHAR
STARTCHAR 237c
ENCODING 9084
SWIDTH 903 0
DWIDTH 40 0
BBX 40 40 0 -6
BITMAP
00c000c000
00f000f800
01e000f000
01f800e000
038e00e000
070380e000
0e01e0e000
1c00f0e00c
38c070c01e
e06031ffff
007001ce1f
0030618e1c
7ffff18e18
0000030e30
0003030e20
3003c60e00
1803840e00
0c07000e00
0606000e00
070c200e00
0318700f00
fffff80f00
0000001f00
0000001d80
3001c01d80
3fffe01d80
3801e038c0
3801c038c0
3801c030e0
3801c07060
3801c06070
3fffc0e070
3801c0c038
3801c1c03c
3801c1803c
3801c3001e
3801c6001f
3fffcc000f
380198000e
3000300006
ENDCHAR
STARTCHAR 237d
ENCODING 9085
SWIDTH 903 0
DWIDTH 40 0
BBX 40 40 0 -6
BITMAP
006000c000
007800f800
00f000f000
01fc00e000
038f00e000
0703c0e000
0e01e0e000
1c06f0e00c
3fff70c01e
e00031ffff
000001ce1f
0001818e1c
0003c18e18
7fffe30e30
0001e30e20
0003860e00
0003040e00
0006000e00
300ce00e00
3ffff00e00
3800f00f00
3800e00f00
3800e01f00
3fffe01d80
3800e01d80
3800e01d80
3800e038c0
3fffe038c0
3800e030e0
3800e07060
3800e06070
3800e0e070
3fffe0c038
0c0301c03c
0e01c1803c
1c00e3001e
1800e6001f
30006c000f
600018000e
c000300006
ENDCHAR
STARTCHAR 237e
ENCODING 9086
SWIDTH 903 0
DWIDTH 40 0
BBX 40 40 0 -6
BITMAP
0060006000
0078007c00
00f0007800
00fc007000
01c7007000
0381c07000
0700f07000
0e0078700c
1c0038601e
380018ffff
e000c0e70f
1fffe0c70e
000000c70c
0c00018718
0e00618710
0c007b0700
18e6720700
7ff7700700
70f6700700
70e6700700
7ce6700780
76e6700780
76e6700f80
70e6700ec0
70e6700ec0
70f6700ec0
ffe6701c60
70e6701c60
70e6701c70
70e6703830
7ce6703838
76e6703038
76e670701c
76e670601c
70e070e01e
70e070c00e
60e071800f
e7e7f3000f
c1c0e60006
8180cc0006
ENDCHAR
STARTCHAR 2421
ENCODING 9249
SWIDTH 903 0
DWIDTH 40 0
BBX 40 40 0 -6
BITMAP
0180000600
01e00007c0
01c0000780
0380000700
030c000700
361e000700
3fff000700
380f000700
380e000700
380e000700
380e060700
3ffe07c700
380e078700
380e070700
380e070700
380e070708
3ffe07071c
38000707fe
3800070700
3803070700
3fff870700
3800070700
3800070700
3803870700
3fffc70700
3003c70700
0023870700
0133870700
099b870700
2cdb870700
26c3870700
6603870700
6003870700
e007870700
e007070700
c00f070704
07fe07070e
00fc7fffff
0038000000
0030000000
ENDCHAR
STARTCHAR 2422
ENCODING 9250
SWIDTH 903 0
DWIDTH 40 0
BBX 40 40 0 -6
BITMAP
00c000c000
00f080f800
00e1c0f000
ffffe0e000
00e000e00c
00e001c01e
60e1c1ffff
7fffe3c0e0
70e1e340e0
70e1c660e0
7fffcc21c0
70e1d831c0
70e1c01b80
7fffc00f00
60e0000f00
00e0001f80
00e0c039e0
ffffe0e0f8
00e001c07f
00e007003f
00e03c000e
00c0000006
0000180000
00001f0000
00001e0000
01801c0000
01f01c00c0
01e01c01e0
01c01ffff0
01c01c0000
01c01c0000
01c01c0000
01c01c0000
01c01c0000
01c01c0000
01c01c000c
01c01c001e
ffffffffff
0000000000
0000000000
ENDCHAR
STARTCHAR 2423
ENCODING 9251
SWIDTH 903 0
DWIDTH 40 0
BBX 40 40 0 -6
BITMAP
0180000600
01f0000780
01e0000780
01c1030700
01c383e700
01ffc3c708
01c003871c
01c00387fe
01c6038700
61cf038700
7fff838700
7007838700
7007038704
700703870e
70073fffff
7007000e00
7fff000e00
7007000e00
7007000e00
7007030e00
700703ce00
7007038e0c
7fff038e0f
61c6038e1e
01c0030e1c
01c0070e38
01c0060e70
01c30c0ee0
ffff980fc0
01c0300f80
01c0000f00
01c0000e00
01c0001c00
01c0003800
01c0007000
01c001c000
01c0038000
01c00e0000
01c0380000
0181e00000
ENDCHAR
STARTCHAR 2424
ENCODING 9252
SWIDTH 903 0
DWIDTH 40 0
BBX 40 40 0 -6
BITMAP
0060000600
007c0007c0
0078000780
1870000700
1e70000700
1c71800700
1c7fc00700
1c70000700
1c70000700
1c70400700
1c70e30700
fffff3e700
000003c700
0000038700
3003838700
3fffc38708
3803c3871c
38038387fe
3803838700
3fff838700
3803838700
3803838700
3803838700
3fff838700
30c0038700
00f8038700
00f0038700
00e0038700
00e1838700
7fffc38700
00e0038700
00e0038700
00e0038700
00e0038700
00e0038700
00efc38704
fff803870e
ff007fffff
7000000000
3000000000
ENDCHAR
STARTCHAR 2425
ENCODING 9253
SWIDTH 903 0
DWIDTH 40 0
BBX 40 40 0 -6
BITMAP
0060000600
007c0007c0
0078000780
1870000700
1e70000700
1c71800700
1c7fc00700
1c70000700
1c70000700
1c70400700
1c70e30700
fffff3e700
000003c700
0000038700
3003838700
3fffc38708
3803c3871c
38038387fe
3803838700
3fff838700
3803838700
3803838700
3803838700
3fff838700
3180038700
01f0038700
01e0038700
01c0038700
01c1838700
01ffc38700
01c0038700
01c0038700
01c0038700
01c0038700
01c0038700
01cfc38704
fff803870e
ff007fffff
7000000000
3000000000
ENDCHAR
STARTCHAR 2426
ENCODING 9254
SWIDTH 903 0
DWIDTH 40 0
BBX 40 40 0 -6
BITMAP
00000c0000
00000f8000
00c00f0000
00f80e00c0
00f00e01e0
00e00ffff0
00e00e0000
00e00e0000
00e00e0000
00e00e000c
00e00e001e
ffffffffff
0000000000
0000000000
1800000070
1ffffffff8
1c00000078
1c0c00c070
1c0f00f070
1c0e00e070
1c0e00e070
1c1f01f070
1c19c19c70
1c30e30e70
1c60660770
1cc00c0370
1d8c18c070
1c0f00f070
1c0e00e070
1c0e00e070
1c1f01f070
1c19c19c70
1c30e30e70
1c60660770
1cc00c0370
1d80180070
1c00000070
1ffffffff0
1c00000070
1800000060
ENDCHAR
STARTCHAR 2427
ENCODING 9255
SWIDTH 903 0
DWIDTH 40 0
BBX 40 40 0 -6
BITMAP
000000c000
0000007000
0018003800
003c20380c
fffe20181e
0e007fffff
0e00e0000f
0e01e0000c
0e01c00018
0e318c0010
1c780f0000
1ffc0efffe
1c3c0e0700
1c381c0700
38381c0600
38381c0e00
3038380c18
703838183c
6070387ffe
787078701e
ee7078701c
c7f0f8701c
83e0f8701c
01e1b8701c
00e1b8701c
01c338701c
01c238701c
01c0387ffc
038038701c
038038701c
030038701c
070038701c
060038701c
0e0038701c
1c0038701c
180038701c
3000387ffc
600038701c
c000387018
0000306000
ENDCHAR
STARTCHAR 2428
ENCODING 9256
SWIDTH 903 0
DWIDTH 40 0
BBX 40 40 0 -6
BITMAP
0000018300
000001e3e0
001801c3c0
003c01c380
fffe01c384
0e0001c38e
0e00ffffff
0e0001c380
0e0001c380
0e3061c38e
1c787fffff
1ffc71c38f
1c3c71c38e
1c3871c38e
383871c38e
38387ffffe
303871c38e
703871c38e
607071c38e
787071c38e
ee707ffffe
c7f060000c
83e0000000
01e0000030
00e0180078
01c01ffffc
01c01c003c
01c01c0038
03801c0038
03801c0038
03001c0038
07001ffff8
06001c0038
0e001c0038
1c001c0038
18001c0038
30001c0038
60001ffff8
c0001c0038
0000180030
ENDCHAR
STARTCHAR 2429
ENCODING 9257
SWIDTH 903 0
DWIDTH 40 0
BBX 40 40 0 -6
BITMAP
0000000000
000001800c
001803c01e
003dffe7ff
fffe01e00f
0e0001c00e
0e0061c30e
0e0039c1ce
0e0019c0ce
0e3001c00e
1c7807c03e
1ffc1dc0ee
1c3df1c78e
1c39c1c70e
3838c1c30e
38381fd8fe
3038039e1c
7038033c18
6070003e00
7870007300
ee7000e180
c7f001c0e0
83e0038678
01e0070f3f
00e01c1e1f
01c038380e
01c0e07006
01c381c180
03800703e0
03801c0780
0300001e00
0700003830
060000e07c
0e000780f0
1c003c03c0
1800000f00
3000003c00
600001e000
c0000f0000
0000f80000
ENDCHAR
STARTCHAR 242a
ENCODING 9258
SWIDTH 903 0
DWIDTH 40 0
BBX 40 40 0 -6
BITMAP
00000c0600
00030f8780
0023cf0700
00738e070c
fffb8e061e
0e038e0fff
0e038e0e0f
0e038e1f0e
0e038e198e
0e038e30dc
1c738e60fc
1ffb8ec078
1c7b8f8338
1c738e0e70
3877fe7ce0
38730e39c0
30700e3380
70700e0730
60e00e0e3e
78e00e383c
eee30ee038
c7e3fe0038
83c38e0038
01c38effff
01c38e0038
01c38e0038
03838e3038
03838e1c38
03838e0e38
07038e0e38
07038e0638
0e070e0038
0e070e0038
1c070e0038
18060e0038
380e0e0078
300c0e3ff8
600c0e03f0
c0180e00e0
00100c00c0
ENDCHAR
STARTCHAR 242b
ENCODING 9259
SWIDTH 903 0
DWIDTH 40 0
BBX 40 40 0 -6
BITMAP
0000181818
00001e1e1e
00181c1c1c
003c383838
fffe606060
0e00c0c0c0
0e00707070
0e00383838
0e001c1c1c
0e301c1c1c
1c780c0c0c
1ffc000000
1c3c300038
1c383ffffc
383838383c
3838383838
3038383838
7038383838
60703ffff8
7870383838
ee70383838
c7f0383838
83e0383838
01e03ffff8
00e0303830
01c0003800
01c0003806
01c1ffffff
038000fc00
038001fe00
030003bf00
0700073b80
06000e39e0
0e001c38f8
1c0070387f
1800e0383f
300380381e
600e003806
c000003800
0000003000
ENDCHAR
STARTCHAR 242c
ENCODING 9260
SWIDTH 903 0
DWIDTH 40 0
BBX 40 40 0 -6
BITMAP
0000001f80
00001fffc0
001fffffe0
0ffc000000
00006000c0
06003801e0
03801c0380
01c00c0600
00c0300c00
00003c0000
06003801c0
07ffffffe0
07003801e0
07003801c0
07003801c0
3ffffffff8
07003801c0
07003801c0
07003801c0
7ffffffffc
07003801c0
07003801c0
0700383fc0
0700300380
0600000318
000000003c
fffffffffe
038001c000
038001c000
03fff1c010
0700f1c038
07c0e1fffc
0c71c1c000
183b81c002
301e01c002
601c01e002
c07001fffe
01c000fffe
0f00007ffe
f800000000
ENDCHAR
STARTCHAR 242d
ENCODING 9261
SWIDTH 903 0
DWIDTH 40 0
BBX 40 40 0 -6
BITMAP
00c0000000
00f80180c0
00f001c1e0
00e081fff0
00e1c1c0f0
ffffe1c0e0
00e001c0e0
00e001c0e0
00e001c0e0
00e181c0e0
7fffc1c0e0
00000380e0
00000380fe
200183007f
2003c7003f
7fffe60000
e001ec0000
e001980030
c001000078
000007fffc
3fff81007c
00e0018070
00e0008070
00e080c0e0
00e1c040e0
ffffe061c0
00e00031c0
00e0003b80
00e0001f00
30e3801f00
3fffc00f00
3803c01f80
3803803bc0
38038071e0
380380e0f0
380381c07c
380383803f
3fff87001f
38031c000e
3000700006
ENDCHAR
STARTCHAR 242e
ENCODING 9262
SWIDTH 903 0
DWIDTH 40 0
BBX 40 40 0 -6
BITMAP
0060000000
0078018000
007003c000
00ffffe000
00c001e000
0180038180
03000703c0
07ffffffe0
03800001e0
03800001c0
03800001c0
03ffffffc0
07000e0000
07000e0000
07ffcfffc0
07000e0010
07000e0010
0703ce0030
07fe0f0060
07f007fff0
038033fff0
01803c0000
0000380000
3ffffffffc
0000380000
0000380000
07ffffffe0
07003800e0
07003800e0
07003800e0
07ffffffe0
06607000c0
003ce00000
000fc00000
0003f80000
000f7fc000
003c0fffff
01e000ffff
0f00000ffe
f80000007e
ENDCHAR
STARTCHAR 242f
ENCODING 9263
SWIDTH 903 0
DWIDTH 40 0
BBX 40 40 0 -6
BITMAP
0001800000
00c0e00018
61e070007c
7ff07001fe
70f03187c0
70efffddc0
70e00001c0
70c00601c0
71cc0781c0
71860701c0
73030701c0
73038e01c0
7601ce01c0
7301cc01cc
7180dc1ffe
71c0d801c0
71c03001c0
70e02181c0
70efffc1c0
70e00001c0
70e00001c0
70e00001c0
70e00301c0
70e60781c6
70e7ffdfff
70e703c1c0
70e70381c0
70e70381c0
7fe70381c0
71c70381c0
71870381c0
70070381c1
70070381c1
70070381c3
70070381c3
70070381c6
7007ff81ff
70070380ff
700703007e
6006000000
ENDCHAR
STARTCHAR 2430
ENCODING 9264
SWIDTH 903 0
DWIDTH 40 0
BBX 40 40 0 -6
BITMAP
0000000000
0180300038
03c07800fc
ffeffc07fe
01e03c3f80
01c039ee00
31c6380e00
1dc3b80e00
0dc1b80e00
01c0380e00
07c0f80e00
3dc7b80e00
f1de380e08
61cc380e1c
01c03bfffe
01c0380e00
3fc3f80e00
0380700e00
0300600e00
0000000e00
0000600e00
7ffff00e00
0070000e04
0070000e0e
007007ffff
0070c00e00
3070f00e00
1870e00e00
0c71c00e00
0e71800e00
0773000e00
0776000e01
037c000e01
0070000e03
0070000e03
0070200f06
0070700fff
fffff807ff
00000003fe
0000000000
ENDCHAR
STARTCHAR 2431
ENCODING 9265
SWIDTH 903 0
DWIDTH 40 0
BBX 40 40 0 -6
BITMAP
0000000000
0300600038
0780f000fc
ffdff807fe
03c0783f80
038071ee00
738e700e00
3b87700e00
1b83700e00
0380700e00
0380700e00
0f81f00e00
fb9f700e08
e39c700e1c
638c73fffe
0380700e00
7f8ff00e00
0700e00e00
0660c00e00
0078000e00
0070000e00
0060c00e00
30c1e00e04
3ffff00e0e
3800f7ffff
3800e00e00
3800e00e00
3800e00e00
3800e00e00
3800e00e00
3fffe00e00
3800e00e01
3800e00e01
3800e00e03
3800e00e03
3800e00f06
3800e00fff
3fffe007ff
3800e003fe
3000c00000
ENDCHAR
STARTCHAR 2432
ENCODING 9266
SWIDTH 903 0
DWIDTH 40 0
BBX 40 40 0 -6
BITMAP
0060000000
007c000038
60786000fc
78707807fe
7070703f80
707071ee00
7070700e00
fffff00e00
6000700e00
0000600e00
0c60000e00
0f38000e00
0e1c000e08
0e1c200e1c
0e0c73fffe
1ffff80e00
1c1c000e00
1c1c000e00
3c1c000e00
3c1c000e00
7c1c000e00
7c1c600e00
dffff00e04
9c1c000e0e
1c1c07ffff
1c1c000e00
1c1c000e00
1c1c000e00
1c1c600e00
1ffff00e00
1c1c000e00
1c1c000e01
1c1c000e01
1c1c000e03
1c1c100e03
1c1c380f06
1ffffc0fff
1c000007ff
1c000003fe
1800000000
ENDCHAR
STARTCHAR 2433
ENCODING 9267
SWIDTH 903 0
DWIDTH 40 0
BBX 40 40 0 -6
BITMAP
0000000000
001800c018
007c01e03c
03fe7ff7fe
1fc000f01e
f3801ce39c
03800ee1dc
038006e0dc
038000e01c
038003e07c
03803ee7dc
038038e71c
038c18e31c
fffe00e01c
03801fe3fc
038001c038
0380019830
0380001e00
0380001c00
03800c3838
03800ffffc
03840e003c
038e0e0038
ffff0e0038
03800e0038
03800ffff8
03800e0038
03800e0038
03800e0038
03800e0038
03800ffff9
03800e0039
03800c0033
0380000003
0380000006
03c000000e
03ffffffff
01ffffffff
00fffffffe
0000000000
ENDCHAR
STARTCHAR 2434
ENCODING 9268
SWIDTH 903 0
DWIDTH 40 0
BBX 40 40 0 -6
BITMAP
0000003000
0018003c00
007c003860
03fe1838f0
1fc01ffff8
f3801c3878
03801c3870
0380fffffe
03801c3870
03801c3870
03801ffff0
0380003800
038c003800
fffe1ffff0
03801c3870
03801c3870
03801c3870
03801ffff0
0380033000
038003c1c0
03800381cc
0384fffffe
038e0701c0
ffff0e0380
03801c0700
03803ffe00
0380187f80
038000f3f0
038003c07c
03801e001e
0381f0000e
0380000000
0380000001
0380000001
0380000003
03c0000006
03ffffffff
01ffffffff
00fffffffe
0000000000
ENDCHAR
STARTCHAR 2435
ENCODING 9269
SWIDTH 903 0
DWIDTH 40 0
BBX 40 40 0 -6
BITMAP
0000000000
0018001800
007c181e18
03fe1e1c1e
1fc01c1c1c
f3801c1c1c
03801c1c1c
03803ffffc
0380180018
0380060c00
0380078600
0380070708
038c07031c
fffe0ffffe
03800f0700
03801f0700
03801f0700
0380370718
038067fffc
0380c70700
0380070700
0384070700
038e070718
ffff07fffc
0380070700
0380070700
0380070700
0380070700
038007070c
038007fffe
0380070000
0380060001
0380000001
0380000003
0380000003
03c0000006
03ffffffff
01ffffffff
00fffffffe
0000000000
ENDCHAR
STARTCHAR 2436
ENCODING 9270
SWIDTH 903 0
DWIDTH 40 0
BBX 40 40 0 -6
BITMAP
0000180000
00181e0030
007c1c0078
03fe1ffffc
1fc038003c
f380306338
03806e7bb8
0380c77338
0380037638
03801ffff8
0380007038
0380067738
038c0f73b8
fffe1c71b8
0380307038
03800063f8
0380000070
0380000060
0380038180
03800381e0
03800381cc
0384fffffe
038e0701c0
ffff0701c0
03800e0380
03801c0380
03803f8700
038018fe00
0380003f80
03800073e0
038001c0f0
03800f0079
0380780039
0380000003
0380000003
03c0000006
03ffffffff
01ffffffff
00fffffffe
0000000000
ENDCHAR
STARTCHAR 2437
ENCODING 9271
SWIDTH 903 0
DWIDTH 40 0
BBX 40 40 0 -6
BITMAP
0300000000
0380000008
030306001c
660787fffe
7fffc70700
7003c70700
7003870700
7fff8e0e04
70038e0e0e
70039fffff
7fff8c1c00
7000003b80
7000003b81
7fff807381
700000e383
700001c383
701f8383c6
7ff80703ff
7f801c01ff
38007000fe
1800003e00
00001fff00
001fffff80
0ff8700000
0000700000
0000700060
00007000f0
1ffffffff8
0000700000
0000700004
000070000e
ffffffffff
0000700004
0000700004
000070000c
0000780018
00007ffffc
00003ffffc
00001ffff8
0000000000
ENDCHAR
STARTCHAR 2438
ENCODING 9272
SWIDTH 903 0
DWIDTH 40 0
BBX 40 40 0 -6
BITMAP
0060000600
007c000780
0078000704
0070c0070e
3fffe007ff
0070000700
0070000700
007067fffe
7ffff0c01e
00f0006038
01fc003070
03f7001dc0
0773c00f80
0e71e00fe0
1c70e01dff
387060707f
e07001c01e
00600f0006
1800000000
1fffffffff
1c00000000
1c000001e0
1c00007ff0
1c003ffff8
1c3ffe0000
1c000e0000
1c000e0010
1c000e0038
1c7ffffffc
1c000e0000
1c000e0000
18000e0006
39ffffffff
38000e0000
30000e0000
30000e0001
60000f0001
600007ffff
c00003ffff
8000000000
ENDCHAR
STARTCHAR 2439
ENCODING 9273
SWIDTH 903 0
DWIDTH 40 0
BBX 40 40 0 -6
BITMAP
00c180c000
60f9e0f800
30f1c0f000
18e180e004
1ce300e00e
0ce600ffff
c0e0e1c038
fffff1e038
e0e0f32038
e0e0e63070
e6f8ec1870
e7eee00ce0
e6e7e00fc0
ece3e00780
f8e0e00780
e0e0e00fe0
e0e0e01cf8
e0efe0707f
e0c1c1c03f
c0018f001e
0000003e06
00001fff00
001fffff80
0ff8700000
0000700000
0000700060
00007000f0
1ffffffff8
0000700000
0000700004
000070000e
ffffffffff
0000700004
0000700004
000070000c
0000780018
00007ffffc
00003ffffc
00001ffff8
0000000000
ENDCHAR
STARTCHAR 243a
ENCODING 9274
SWIDTH 903 0
DWIDTH 40 0
BBX 40 40 0 -6
BITMAP
0300000000
03c0000000
0380000060
03800000f0
07fffffff8
0700000000
0700000000
0e000000c0
0fffffffe0
1c00000000
1800000000
3000000380
67ffffffc0
c0000003c0
0003000380
0303c18380
01c383c380
00e3870380
00638c0380
0003806380
1ffffff380
0003800380
00c39c0380
01f3870380
03c383c380
070381e380
0e0380e380
3803006380
0000000380
07ffffc1c0
070381c1c0
070381c1c1
070381c0e1
07ffffc0e3
070381c073
070381c07e
070381c03e
07ffffc01f
070001c00f
0600018006
ENDCHAR
STARTCHAR 243b
ENCODING 9275
SWIDTH 903 0
DWIDTH 40 0
BBX 40 40 0 -6
BITMAP
3000000000
3e00000008
3c0000001c
38023ffffe
3807006300
3fff806300
3000006318
700018633c
60001ffffe
c0041c631e
800e1c631c
3fff1c631c
00001c631c
00001ffffc
0000180000
000c000000
001e000030
7fff0ffff8
001f000000
001c000000
003800000c
00703ffffe
00e0001c00
01c0001c00
03800c1c00
07000f1c60
0e000e1c38
1c001c1c1c
3800181c0e
7000301c0e
7000601c06
e000c01c00
e000001801
e000000001
f000000003
f800000006
7fffffffff
3fffffffff
0ffffffffe
0000000000
ENDCHAR
STARTCHAR 243c
ENCODING 9276
SWIDTH 903 0
DWIDTH 40 0
BBX 40 40 0 -6
BITMAP
00000030c0
0000003e70
0000003c38
0000003818
3000003800
3fffffffff
3800003800
3800003800
38000c3800
3bfffe3818
380000381e
380600383c
39878c1c38
38c71e1c70
38e7380ee0
3867600fc0
3807000780
380f800781
381ce00fc1
3038781de3
70703c70f3
60e01ce07e
c38003803f
8e000e000f
0000380006
0001000008
000380001c
7fffc3fffe
0000000000
0000000000
0000000004
000000000e
ffffffffff
0000000000
0000000000
0001000008
000380001c
7fffc3fffe
0000000000
0000000000
ENDCHAR
STARTCHAR 243d
ENCODING 9277
SWIDTH 903 0
DWIDTH 40 0
BBX 40 40 0 -6
BITMAP
0000180000
0c001e0180
07001c03c0
03801fffe0
01c03801e0
01c0300180
00c0600318
0000c0063c
0001fffffe
0008e0001e
0008e0001c
c018e0001c
7010e0001c
3830e0001c
1c30fffffc
1c60380000
0c60380000
0060380004
00c038000e
00c07fffff
01c0700000
0180700000
038070000c
030070001e
0700ffffff
070060000f
0e0000000e
1e0000060e
fe0001838e
3c0260e1ce
1c023871ce
1c061c70ce
0e0e1c300e
0e1e0c001e
0f1c00001c
0f1800003c
0f0001fff8
0f000007f0
06000001e0
00000001c0
ENDCHAR
STARTCHAR 243e
ENCODING 9278
SWIDTH 903 0
DWIDTH 40 0
BBX 40 40 0 -6
BITMAP
0000000004
300000000e
3e007fffff
3c00007000
3800006000
380418c01c
380e1ffffe
3fff1c001e
38001c001c
38001ffffc
38001c001c
38001c001c
38001ffffc
38001c001c
380f1c001c
387c1ffffc
3fe0060000
3f000f8078
1c001e001e
0c0070000f
0001c00007
0000180000
00001f0000
00001e0000
00001c00c0
000c1c01f0
001e1c03c0
7fff1c0700
001f1e0e00
001c1f1800
00381df000
00701cf000
00e01c3c00
01c01c1fc0
03801c07ff
07003c01ff
0e1ffc007e
3801f8000e
e000700000
0000600000
ENDCHAR
STARTCHAR 243f
ENCODING 9279
SWIDTH 903 0
DWIDTH 40 0
BBX 40 40 0 -6
BITMAP
0600c000c0
07c07000f8
07803800f0
07003800e0
070018c0e0
070fffe0e0
07007000e0
07007000e0
0700e000e0
0730c000e6
07398600e7
07330300e6
f76601beec
37cfffc6f8
378fe1c6f0
370700c6e0
37830006f0
37800006f0
37800006f0
37c33306f8
37c3bb86f8
37c33306f8
37633306ec
37633306ec
6763330cec
6773330cee
6773330cee
673b330ce7
673b3318e7
c7333318e6
c7333318e6
c7033310e0
87033300e0
07033300e0
07033300e0
07063300e0
070633c0e0
7f0c33cfe0
0e1831c1c0
0c30000180
ENDCHAR
STARTCHAR 2440
ENCODING 9280
SWIDTH 903 0
DWIDTH 40 0
BBX 40 40 0 -6
BITMAP
06001800c0
07c01f00f8
07801e00f0
07031c00e0
07039c00e0
07031c80e0
07031fc0e0
07031c00e0
07031c00e0
07331c00e6
073b1c1ee7
07331c06e6
f76fffe6ec
37c01c06f8
37801c06f0
37001c06e0
37831c06f0
3783dc06f0
37839c06f0
37c39d86f8
37c39de6f8
37c31dc6f8
37631dc6ec
37661dccec
67641f8cec
67701b8cee
6770070cee
67380718e7
67380e18e7
c7300e30e6
c7301c30e6
c7003860e0
87007040e0
0700e000e0
0701c000e0
07038000e0
07070000e0
7f0e000fe0
0e380001c0
0ce0000180
ENDCHAR
STARTCHAR 2441
ENCODING 9281
SWIDTH 903 0
DWIDTH 40 0
BBX 40 40 0 -6
BITMAP
000000c000
0c00007000
0700003800
038040380c
01c040181e
01c0ffffff
00c1c0000f
0003c6030c
00038783c8
000b070380
000807038c
c019fffffe
7010070380
3830070380
1c30070380
1c60070388
0c60fffffc
0060070380
00c0070380
00c0070380
01c0070386
0183ffffff
0380070300
03000e0180
07001c00e0
0700380078
0e0071c03f
1e00e0701f
fe01c01c0e
3c07000f06
1c1c000780
1c00000380
0e00070000
0e0001e000
0f00007800
0f00001e00
0f00000f80
0f000003c0
06000001c0
00000000c0
ENDCHAR
STARTCHAR 2442
ENCODING 9282
SWIDTH 903 0
DWIDTH 40 0
BBX 40 40 0 -6
BITMAP
0000018000
180000e000
0e00007000
070080700c
070080301e
0301ffffff
000380000f
000780000c
0007300008
00263c7ff8
0020380038
c060380038
7060700038
386073ffff
38c0e00038
18c0e00038
00c1c00038
01c1e07ff8
0183e00030
0183e10000
0386e1000e
030ce3ffff
0318e7000f
0700e7000c
0600e60008
0e00e0fff8
0e00e02038
1e00e03038
fc00e01070
3c00e01870
1c00e00ce0
1c00e007c0
0e00e00380
0e00e007c0
0f00e00ee0
0f00e01c78
0f00e0703f
0f00e0e01f
0600e3800e
0000ce0006
ENDCHAR
STARTCHAR 2443
ENCODING 9283
SWIDTH 903 0
DWIDTH 40 0
BBX 40 40 0 -6
BITMAP
000000c000
0c00006000
0700007010
0380003038
01c1fffffc
01c0180180
00c00c01e0
00000e01c0
0000070380
0008070304
000803060e
c01fffffff
7010006000
3830007800
1c30007030
1c60c07078
0c60fffffc
0060e0703c
00c0e07038
00c0e07038
01c0e07038
0180e07038
0380fffff8
0300c07030
0700007000
0700007000
0e00007030
1e00c06078
fe00fffffc
3c00e0003c
1c00e00038
1c00e00038
0e00e00038
0e00e00038
0f00e00038
0f00e00038
0f00fffff8
0f00e00038
0600e00030
0000c00000
ENDCHAR
STARTCHAR 2444
ENCODING 9284
SWIDTH 903 0
DWIDTH 40 0
BBX 40 40 0 -6
BITMAP
000000c000
0c00007000
0700007004
038000300e
01c7ffffff
01c0000000
00c0600060
0000780078
0000700070
000871cc72
00087fcfff
c018e1cc70
7010e1cc70
3830c1cc70
1c31f38c70
1c61bb8c70
0c631f0c72
00660e1fff
00c01c0c70
00c0380070
01c0700070
0180e06070
0381c07c70
0307007860
0700007004
070000700e
0e07ffffff
1e00007000
fe00007000
3c00607000
1c00787060
1c00707030
0e00e07018
0e00c0700c
0f0180700e
0f03007007
0f06007007
0f0c007003
0600007000
0000006000
ENDCHAR
STARTCHAR 2445
ENCODING 9285
SWIDTH 903 0
DWIDTH 40 0
BBX 40 40 0 -6
BITMAP
0006006000
1803807c00
0e01c07800
0701c07000
0700c47004
03000e700e
007fff7fff
000e007000
000e00e000
000e00c600
c04e018780
704e030700
38ce180706
38ce3dffff
18cffe0e00
018e1e0e00
018e1c1c30
018e1c1818
038e1c300c
030e1c607e
030e1dffe7
070e1dfc07
060e1ce003
060e1c6000
0e0e1c0000
0c0e1c6318
1c0e1c7bde
3c0e1c739c
f81c1c739c
781c1c739c
381c1c739c
381c1c739c
1c181c739c
1c381c739c
1e301c639c
1e303ce39c
1e67f8c39c
1e60f1838f
0cc0e30307
0080c60000
ENDCHAR
STARTCHAR 2446
ENCODING 9286
SWIDTH 903 0
DWIDTH 40 0
BBX 40 40 0 -6
BITMAP
0000000000
180001c000
0e00007000
0700003c00
0700181c00
03001e0c00
00011c0030
00011c001c
00031c000e
00231c000e
00271c004e
c06f1c0046
706e1c00c0
386c1e0180
38c01fffc0
18c00fffc0
00c007ff80
01c0000000
0180000000
01806000c0
0380380070
03001c0038
03000c0018
0701800300
0601e003c0
0e01c00380
0e01c60380
1e01c3038c
fc09c39386
3c09c19387
1c09c19383
1c19c03383
0e19c03380
0e39c27384
0f39c27384
0f31c26384
0f01fe03fc
0f00fe01fc
06007e00fc
0000000000
ENDCHAR
STARTCHAR 2447
ENCODING 9287
SWIDTH 903 0
DWIDTH 40 0
BBX 40 40 0 -6
BITMAP
0000000000
1800000004
0e0000000e
070013ffff
0700380780
037ffc0700
0003800e00
0003800e00
0003801c00
0003803c00
c08380360c
708380630f
388380c30e
398381839c
1983830798
01038607b0
0303800fe0
033ff81dc0
030381b9c0
060380f1c0
060380e1e0
060381f3e0
0e0383bbf0
0c03873ff0
0c039c1ef8
1c03801efc
1c03801cee
3803803eef
f8039c7ee7
7803f0e6e6
387f81c0e0
387e0700e0
1c381c00e0
1c180001e0
1e000001c0
1e000003c0
1e0000ff80
1e00000f00
0c00000e00
0000000c00
ENDCHAR
STARTCHAR 2448
ENCODING 9288
SWIDTH 903 0
DWIDTH 40 0
BBX 40 40 0 -6
BITMAP
0000000000
0c00000018
070000003c
0381fffffe
01c000001e
01c000001c
00c07fff1c
000001c01c
000001c01c
000801c31c
0008ffff9c
c01800001c
701000001c
3831fffffc
1c31c00000
1c61c00000
0c61c7fff0
0061c01c00
00c1c01c00
00c3801c30
01c38ffff8
0183800000
038380000e
0307ffffff
070300000f
070000000e
0e00c00e0e
1e00ffff0e
fe00e00f0e
3c00e00e0e
1c00e00e0e
1c00fffe0e
0e00c00c0e
0e0000001e
0f0000001c
0f0000003c
0f0007fff8
0f00000ff0
06000001e0
00000001c0
ENDCHAR
STARTCHAR 2449
ENCODING 9289
SWIDTH 903 0
DWIDTH 40 0
BBX 40 40 0 -6
BITMAP
0000000000
0c00000018
070000003c
0381fffffe
01c000001e
01c000001c
00c000001c
000060001c
00007ffffc
0008700000
0008700000
c018e0000c
7010e0001e
3831ffffff
1c30c0000f
1c6000000e
0c6300070e
0063ffff8e
00c381878e
00c3bb370e
01c38e670e
01838fc70e
038399e70e
0303b3770e
070386370e
0703ffff0e
0e0303060e
1e0003c00e
fe0003800e
3c01ffff0e
1c0003800e
1c0003800e
0e0003818e
0e07ffffde
0f0000001c
0f0000003c
0f0003fff8
0f00000ff0
06000001e0
00000001c0
ENDCHAR
STARTCHAR 244a
ENCODING 9290
SWIDTH 903 0
DWIDTH 40 0
BBX 40 40 0 -6
BITMAP
0000000000
1800030018
0e3007863c
073fffc7fe
073803c71e
033803871c
003803871c
003803871c
003fff871c
003800071c
c0b800071c
70b803061c
38bfff8e1c
39b8cc0c0f
19b8cc1807
0138cc3000
0338cc0000
0338cc000c
03398c001e
06398d9fff
063b0f040f
063e0e040e
0e3c06040e
0c3800060e
0c3800021c
1c3986031c
1c39ff0338
38398701b8
f8398601f0
78398600f0
38398600e0
38398601e0
1c398661f0
1c3186c3b8
1e3307871c
1e63070e1e
1e66031c0f
1e4c00380f
0c18007006
000001c006
ENDCHAR
STARTCHAR 244b
ENCODING 9291
SWIDTH 903 0
DWIDTH 40 0
BBX 40 40 0 -6
BITMAP
000000000c
0c0180001e
0701ffffff
0381c0000f
01c1c0000e
01c1c0000e
00c1fffffe
0001c00000
0001c00070
0009c007f8
0009c0fffc
c019cfdc00
7011c01c00
3831c01c0c
1c31dffffe
1c61c01c00
0c61c01c00
0061ffffff
00c1c01c00
00c1801c01
01c3801e01
0183000fff
03860007ff
030c006000
0719807c18
0701e0781e
0e01c0701c
1e01c0701c
fe01c0701c
3c03fffffc
1c01807000
1c00007000
0e0300700c
0e03c0700f
0f0380700e
0f0380700e
0f0380700e
0f07fffffe
060300000e
000000000c
ENDCHAR
STARTCHAR 244c
ENCODING 9292
SWIDTH 903 0
DWIDTH 40 0
BBX 40 40 0 -6
BITMAP
0000006000
0c00007800
0700007004
038000700e
01c7ffffff
01c0007000
00c0007000
000180701c
0001fffffe
0009c0701e
0009c0701c
c019c0701c
7011c0701c
3831fffffc
1c31c0701c
1c61c0701c
0c61c0701c
0061c0701c
00c1fffffc
00c0007018
01c1807000
0181e07000
0381c0700c
0301c0701e
0701ffffff
070380000f
0e0300000e
1e0600c30e
fe0c3071ce
3c191c38ee
1c010e38ee
1c030e186e
0e0706000e
0e0700001e
0f0600001c
0f0000003c
0f0000fff8
0f000007f0
06000001e0
00000001c0
ENDCHAR
STARTCHAR 244d
ENCODING 9293
SWIDTH 903 0
DWIDTH 40 0
BBX 40 40 0 -6
BITMAP
0000000000
1800020018
0e000700fc
073fff87fe
070e1c3dc0
030e1c01c0
000e1c01c0
000e1c01c0
000e1c01c0
000e1c01c0
c04e1c01c0
704e1c01c0
38cffc01c6
38ce1c7fff
18ce1c01c0
018e1c01c0
018e1c01c0
018e1c01c0
038e1c01c0
030e1c01c0
030e1c01c0
070ffc01cc
060e1c31de
060e1c3fff
0e0e1c380f
0c0e1c380e
1c0e1c380e
3c0e1c380e
f80e1c380e
780efc380e
387f9c380e
387e1c380e
1c381c380e
1c181c380e
1e001c380e
1e001c380e
1e001c3ffe
1e001c380e
0c001c380c
0000183000
ENDCHAR
STARTCHAR 244e
ENCODING 9294
SWIDTH 903 0
DWIDTH 40 0
BBX 40 40 0 -6
BITMAP
0000000000
0c00000004
070000000e
0387ffffff
01c0070700
01c0070700
00c0070700
0000070700
0000070718
000987073c
0009ff0ffe
c019c6061e
7011c0001c
3831c0001c
1c31c0001c
1c61c0001c
0c61c7061c
0063ff07fc
00c1870718
00c0070700
01c0070700
0180070704
038007070e
0307ffffff
0700000000
070000e000
0e00007800
1e00003c00
fe00301c00
3c003e0c00
1c023c0018
1c0238004c
0e06380046
0e0e3800c7
0f1e3800c7
0f1c3c0183
0f183fffc0
0f001fffc0
06000fff80
0000000000
ENDCHAR
STARTCHAR 244f
ENCODING 9295
SWIDTH 903 0
DWIDTH 40 0
BBX 40 40 0 -6
BITMAP
0000600000
18007c000c
0e00780c1e
0700700fff
0700700e0f
0300718e0e
001fffce0e
0000700e0e
0000700e0e
0000700e0e
c04c738e0e
704fffcf8e
38ce03ceee
38ce038e7e
18ce038e3e
018e038e0e
018e038e0e
018fff8e0e
038e038e0e
030e038e0e
030e038e0e
070e038f8e
060e038eee
060fff8e7e
0e0e730e3e
0c0c700e0e
1c00700e0e
3c00701c0e
f800719c0e
781fffdc0e
3800701c0e
380070180e
1c0070380e
1c0070380e
1e0070300e
1e0070701e
1e007063fe
1e0070c03c
0c00718038
0000630030
ENDCHAR
STARTCHAR 2450
ENCODING 9296
SWIDTH 903 0
DWIDTH 40 0
BBX 40 40 0 -6
BITMAP
0000000000
0c0000000c
070000001e
0387ffffff
01c01c01c0
01c01c01c0
00c01c01c0
00001c01c0
00001fffc0
00081c01c0
00081c01c0
c0181c01c0
70101c01c0
38301fffc0
1c301c01c0
1c601c01c0
0c601c01c0
00631c01ce
00c3ffffff
00c380000f
01c380000e
01838c018e
03838703ce
030383870e
0703818c0e
07039fffce
0e0380700e
1e0380700e
fe0380700e
3c038070ce
1c03bfffee
1c0380700e
0e0380700e
0e0380700e
0f0380700e
0f0380701e
0f038073fe
0f0380603c
0603800038
0003000030
ENDCHAR
STARTCHAR 2451
ENCODING 9297
SWIDTH 903 0
DWIDTH 40 0
BBX 40 40 0 -6
BITMAP
00001800c0
0c001f00f8
07001e00f0
03801c00e0
01c01c80e2
01c3ffdfff
00c01c00e0
00003f01e0
00003dc1f8
00087ce3ee
0008dc66e7
c0199c0ce7
70131c18e3
38361c30e0
1c301800c0
1c60000000
0c60000030
0060600078
00c07ffffc
00c070003c
01c0700038
0180738038
038070f038
0300703e38
0700700f38
0700700738
0e00700038
1e00700038
fe007001f8
3c00701f38
1c0077f838
1c0077e038
0e00738038
0e00618038
0f00e00038
0f00c00078
0f01803ff8
0f030003f0
06060000e0
000c0000c0
ENDCHAR
STARTCHAR 2452
ENCODING 9298
SWIDTH 903 0
DWIDTH 40 0
BBX 40 40 0 -6
BITMAP
0000000000
180000000c
0e1800001e
071fffffff
071c000000
031c0c000c
001c0f000f
001c0e000e
001f0e300e
001d8e7b0e
c09ccee3ce
709cef838e
389c6e038e
399c0e038e
199c1c038e
011c1f038e
031c39838e
031c31c38e
031c60e38e
061cc0e38e
061d80638e
061f00038e
0e1c0c038e
0c1c0f838e
0c1c0f038e
1c1f0e338e
1c1d8e7b8e
381ccee38e
f81cef838e
781c6e038e
381c0e030e
38181c000e
1c381f000e
1c3839800e
1e3030c00e
1e3060e01e
1e60c073fe
1e4180703c
0c03003038
0002000030
ENDCHAR
STARTCHAR 2453
ENCODING 9299
SWIDTH 903 0
DWIDTH 40 0
BBX 40 40 0 -6
BITMAP
0000000600
0c000007b0
070000071c
038000070e
01c1800706
01c1ffffff
00c1c00700
0001c00700
0001c0370c
0009ffff0f
0009c0071e
c019c0039c
7011dff3b8
3831dc73f0
1c31dc71e1
1c61dc71e1
0c61dff3f3
006198677b
00c3800e3e
00c3001c1f
01c600700f
018c01c006
03800c00c0
03000f00f0
07000e00e0
07000e00e6
0e07ffffff
1e000e00e0
fe001c01c0
3c001c01c0
1c00380380
1c00700700
0e01ff8e00
0e00c1fe00
0f00003fc0
0f000073f0
0f0001c0fc
0f0007003e
06003c001e
0003e0000e
ENDCHAR
STARTCHAR 2454
ENCODING 9300
SWIDTH 903 0
DWIDTH 40 0
BBX 40 40 0 -6
BITMAP
0000000000
0c0000000c
070000001e
0387ffffff
01c000e000
01c000c000
00c0018018
000183003c
0001fffffe
0009c38e1e
0009c38e1c
c019c38e1c
7011c38e1c
3831c38e1c
1c31c38e1c
1c61c38e1c
0c61c38e1c
0061c38efc
00c1c30c38
00c1800030
01c0000000
0180000006
0387ffffff
030000e000
070000c000
0700018018
0e0183003c
1e01fffffe
fe01c38e1e
3c01c38e1c
1c01c38e1c
1c01c38e1c
0e01c38e1c
0e01c38e1c
0f01c38e1c
0f01c38e1c
0f01c38e1c
0f01c38efc
0601c30c38
0001800030
ENDCHAR
STARTCHAR 2455
ENCODING 9301
SWIDTH 903 0
DWIDTH 40 0
BBX 40 40 0 -6
BITMAP
0000000c00
1800000f80
0e00000f00
0700000e04
0700000e0e
03181fffff
000e000e00
00070c1f06
000387398f
000383f0dc
c08181e070
708001c03f
388003801f
398007000e
19839c0006
017fc3fff8
0303c00e00
0303800e00
0307000e00
0606000e00
060c000e08
0618000e1c
0e3fcffffe
0c19c00e00
0c01c00e00
1c01c00e00
1c01c00e00
3801c00e00
f803800e00
7803800e00
3807000e00
3807000e00
1c0e000e00
1c1f000c00
1e3fc00000
1e78fc0000
1e303fffff
1e000ffffe
0c0001fffc
0000000000
ENDCHAR
STARTCHAR 2456
ENCODING 9302
SWIDTH 903 0
DWIDTH 40 0
BBX 40 40 0 -6
BITMAP
0000000c00
1800000f80
0e00000f00
0700000e04
0700000e0e
03181fffff
000e001f00
0007003980
00038070e0
000380e078
c08181cc3f
7080038f9f
3880070f0e
39801c0e06
1983800e30
017fc3fff8
0303c00e00
0303800e00
0307000e00
0606000e00
060c018c60
061801e078
0e3fc1c070
0c19c1c072
0c01dfffff
1c01c1c070
1c01c1c070
3801c1c070
f80381c070
7803838070
3807070070
38070e0070
1c0e380060
1c1f000000
1e3fc00000
1e78fc0000
1e303fffff
1e000ffffe
0c0001fffc
0000000000
ENDCHAR
STARTCHAR 2457
ENCODING 9303
SWIDTH 903 0
DWIDTH 40 0
BBX 40 40 0 -6
BITMAP
0000000000
0c0003000c
070007801e
0387ffdfff
01c003c00f
01c183860e
00c0e3838e
000063818e
000003800e
00080f803e
00083b80ee
c01be38f8e
7013838e0e
383183860e
1c303fe0fe
1c6007781c
0c60067018
006000f800
00c001cc00
00c0038600
01c0070380
01800ec1e0
03801cf8f8
030038f07f
070070e01f
0700e0e00e
0e0380e006
1e0e00e000
fe0020e630
3c0020e318
1c0060e18c
1c00e0e1ce
0e01e0e1ce
0e01c0e0c6
0f0180e000
0f0001e000
0f003fe000
0f0003c000
0600038000
0000030000
ENDCHAR
STARTCHAR 2458
ENCODING 9304
SWIDTH 903 0
DWIDTH 40 0
BBX 40 40 0 -6
BITMAP
0000000018
0c0300003c
0703fffffe
038380001e
01c380001c
01c380001c
00c3fffffc
000380001c
000380001c
000b80001c
000bfffffc
c018000018
7010c00180
3830f001e0
1c30e0c1c0
1c60e1e1c0
0c60fff1f0
0061c0f1dc
00c181c1ce
00c3c381c7
01c66701c3
018c3e01c0
03981e01c0
03003f8180
070073ffff
0701c0fffe
0e07003ffc
1e3c000000
fe01800000
3c01fffff8
1c01c00038
1c01c00038
0e01c00038
0e01c00038
0f01c00038
0f01c00038
0f01c00038
0f01fffff8
0601c00038
0001800030
ENDCHAR
STARTCHAR 2459
ENCODING 9305
SWIDTH 903 0
DWIDTH 40 0
BBX 40 40 0 -6
BITMAP
0000000180
18000181f0
0e1803c1e0
071fffe1c0
071c71e1c0
031c71c1c0
001c71c1c0
001c71c1c6
001c71c1ff
001fffc1c0
c01c71c1c0
709c71c1c0
389c71c1c0
389c71c1c0
199c71c1c0
019fffc1ce
011801bfff
030000080f
030000080e
030000c80e
023fffec0e
06038e0c1c
06038e041c
06038e061c
0c038e0638
0c038e0338
1c038e0370
3c038e03f0
f8038e01e0
78038e01c0
38070e03e0
38070e03e0
1c070e0770
1c060e0e38
1e0e0e0c3c
1e0c0e181e
1e180e301f
1e300e600f
0c600ec00e
00c00d8006
ENDCHAR
STARTCHAR 245a
ENCODING 9306
SWIDTH 903 0
DWIDTH 40 0
BBX 40 40 0 -6
BITMAP
0000600180
18007801e0
0e007001c0
07007201c6
071fff1fff
03007001c0
00007001c0
00007001c0
0000600180
0000008000
c04001c00c
705fffe01e
38c7073fff
38c707080f
18c707080e
018707080e
0187070c0e
0187070c0e
0387ff041c
030707061c
030707061c
0707070638
0607070338
0607070338
0e07070370
0c07ff01f0
1c070701e0
3c070700e0
f8070701e0
78070701e0
38070703f0
38070703f0
1c073f0738
1c3fe70638
1e3f070e1c
1e1c070c1e
1e0c07180f
1e0007300f
0c00076006
000006c006
ENDCHAR
STARTCHAR 245b
ENCODING 9307
SWIDTH 903 0
DWIDTH 40 0
BBX 40 40 0 -6
BITMAP
0000000018
0c0300003c
0703fffffe
038380001e
01c380001c
01c380001c
00c3fffffc
000380001c
000380001c
000b80001c
000bfffffc
c018000018
7010c000c0
3830f000f8
1c30e0c0f0
1c60e1e0e0
0c60fff0e0
0061c0f1f0
00c181c198
00c3c3830c
01c6670606
018c3e0c07
03981e1803
03003f8000
070073ffff
0701c0fffe
0e07003ffc
1e3c000000
fe01800000
3c01fffff8
1c01c00038
1c01c00038
0e01c00038
0e01c00038
0f01c00038
0f01c00038
0f01c00038
0f01fffff8
0601c00038
0001800030
ENDCHAR
STARTCHAR 245c
ENCODING 9308
SWIDTH 903 0
DWIDTH 40 0
BBX 40 40 0 -6
BITMAP
0000003000
1800003e00
0e00003c00
0700603810
07007c3838
0300783ffc
0000703800
0000703800
0000703804
002070380e
002fffffff
c060000000
7060600000
3860700018
38c063001f
18c0c7801e
00c3ffc61c
01c383c79c
018383871c
0183e3871c
0383b3871c
0303bb871c
03039b871c
070383871c
060383e71c
0e0fff871c
0e0f83871c
1e0383871c
fc03e3871c
3c03b3871c
1c03bb871c
1c039b871c
0e0383861c
0e0703801c
0f0703801c
0f0603803c
0f0e0387fc
0f0c7f8078
0618070070
0030060060
ENDCHAR
STARTCHAR 245d
ENCODING 9309
SWIDTH 903 0
DWIDTH 40 0
BBX 40 40 0 -6
BITMAP
0000000000
180006000c
0e060f0c1e
0707ff8fff
0707078e0f
0307070e0e
0007070e0e
0007ff0ffe
0007070e0e
0027070e0e
0027070e0e
c067ff0ffe
7067060c0e
386700000e
38c700000e
18c700030e
00c71fff8e
01c700000e
018700000e
018700008e
03870001ce
03077fffee
0307039c0e
0707039c0e
0607039c0e
0e07039c2e
0e07071c2e
1e07071c6e
fc070e1e4e
3c071c1fee
1c07380fee
1c077007ce
0e07c0000e
0e0700000e
0f0700000e
0f0700001e
0f07000ffe
0f070000fc
0607000038
0006000030
ENDCHAR
STARTCHAR 245e
ENCODING 9310
SWIDTH 903 0
DWIDTH 40 0
BBX 40 40 0 -6
BITMAP
0000000000
0c00000060
0700c000f0
0380fffff8
01c0e39c78
01c0e39c70
00c0e39c70
0000e39c70
0000e31c70
0008e60ff0
0008ec07f0
c018f80070
7010e3fc70
3830e30c70
1c30e30c70
1c60e30c70
0c60e30c70
0060e30c70
00c0fffff0
00c0e00060
01c0c00000
0180000000
0380000018
030300003c
0703fffffe
0703870e1e
0e03870e1c
1e03870e1c
fe03870e1c
3c03870e1c
1c03870e1c
1c03870e1c
0e03870e1c
0e03870e1c
0f03870e1c
0f03870e1c
0f03870e1c
0f1fffffff
0600000000
0000000000
ENDCHAR
STARTCHAR 245f
ENCODING 9311
SWIDTH 903 0
DWIDTH 40 0
BBX 40 40 0 -6
BITMAP
000000c000
180300f830
0e03e0f03e
0703c0e03c
070380e038
030380e038
000380e038
000380e038
0007fffff8
0023000030
0020000000
c060060818
70600f083c
386fff8ffe
38c007841e
18c6070638
00c38e0230
01c1ce0360
0180dc01c0
018038c0e0
038070f878
0300e0f03f
0301c0e01f
070380e00e
060e00e036
0e3bfffff8
0e0001f000
1e0003f800
fc0007fc00
3c000eee00
1c001ce700
1c0038e380
0e0070e1e0
0e00e0e0fc
0f01dfff7c
0f0700e038
0f1c00e018
0f0000e000
060000e000
000000c000
ENDCHAR
STARTCHAR 2460
ENCODING 9312
SWIDTH 903 0
DWIDTH 40 0
BBX 40 40 0 -6
BITMAP
000000c018
0c0000f01f
070000e01e
038000e01c
01c001f01c
01c0039c1c
00c0070e1c
00000e071c
000038c31c
000800f01c
000800e01c
c01800e01c
701001f01c
3830039c1c
1c30070e1c
1c600e071c
0c6038031c
006300001c
00c3fffffc
00c3800000
01c3800000
01838c001c
03838ffffe
03038e001e
07038e001c
07038e001c
0e038e001c
1e038ffffc
fe038e001c
3c038e001c
1c038e001c
1c070e001c
0e070ffffc
0e070e001c
0f060e001c
0f0e0e001c
0f0c0e001c
0f180ffffc
06300e001c
00000c0018
ENDCHAR
STARTCHAR 2461
ENCODING 9313
SWIDTH 903 0
DWIDTH 40 0
BBX 40 40 0 -6
BITMAP
0000030000
0c0003c000
0700070180
03800e00e0
01c01c0070
01c0383ff8
00c07ff838
0000700018
0000300000
0000c00180
0010e001c0
c011c6038c
7031830306
3833018603
1c660f8c3f
1c67f98fe3
0c6380e703
00c180e300
00c001f000
00c0039800
0180070e00
01800e0780
03801cc1f0
030038f8ff
070070f03f
0700e0e01e
0e0380e006
1e0e00e000
fe0020e000
3c0020e618
1c0060e30c
1c00e0e186
0e01e0e1c7
0e01c0e1c7
0f0180e0c3
0f0001e000
0f003fe000
0f0003c000
0600038000
0000030000
ENDCHAR
STARTCHAR 2462
ENCODING 9314
SWIDTH 903 0
DWIDTH 40 0
BBX 40 40 0 -6
BITMAP
0000180000
0c001e0000
07001c0180
03801c03c0
01c03fffe0
01c03001e0
00c0600380
0000c00304
000180060e
000bffffff
0009c1c1c0
c019c1c1c0
7011c381c0
3831c301e0
1c31c600ff
1c61cc007f
0c61d80000
0061f00000
00c1cffffe
00c1c00e00
01c1c00e00
0181c00e00
0381c00e00
0301c00e04
0701c00e0e
0701dfffff
0e03800000
1e03800000
fe038c001c
3c038ffffe
1c070e001e
1c070e001c
0e060e001c
0e0e0e001c
0f0c0e001c
0f180e001c
0f300e001c
0f600ffffc
06000e001c
00000c0018
ENDCHAR
STARTCHAR 2463
ENCODING 9315
SWIDTH 903 0
DWIDTH 40 0
BBX 40 40 0 -6
BITMAP
0000018000
0c0001e000
070001c000
0380038018
01c183003c
01c1fffffe
00c1c0001e
0001c0001c
0001c0001c
0009fffffc
0009c0001c
c019c0001c
7011c0001c
3831fffffc
1c31c0001c
1c61c0001c
0c61c0001c
0061fffffc
00c1806018
00c0007c00
01c0007800
01800c700c
0383fe73fe
0300007000
0700007000
0700007000
0e000c700c
1e03fe73fe
fe00007000
3c00007000
1c00007004
1c0000700e
0e07ffffff
0e00007000
0f00007000
0f00007000
0f00007000
0f00007000
0600007000
0000006000
ENDCHAR
STARTCHAR 2464
ENCODING 9316
SWIDTH 903 0
DWIDTH 40 0
BBX 40 40 0 -6
BITMAP
0003001800
1803c01f00
0e03801e00
07030c1c00
07061e1c04
030fff1c0e
000e0f1fff
000e0e39c0
000e0e31c0
000e0e61c0
c04e0ec1c0
704ffe01c0
38ce0e01c0
38ce0e01c0
18ce0e01c0
018e0e01c0
018e0e01c0
018ffe01c6
038e0e7fff
030e0e01c0
030e0e01c0
070e0f01c0
060e0f81c0
060e7f83a0
0e7fcf03a0
0c7e1e03a0
1c383e03b0
3c187e0730
f800ee0730
7801ce0738
38038e0e18
38070e0e18
1c0e0e0c1c
1c1c0e1c1c
1e380e181e
1ee01e380e
1e07fe300f
1e003c600f
0c0038c006
0000318006
ENDCHAR
STARTCHAR 2465
ENCODING 9317
SWIDTH 903 0
DWIDTH 40 0
BBX 40 40 0 -6
BITMAP
0000301800
18183e1f30
0e1e3c1e1c
071c381c0e
071c381c06
031c3bffff
001c381c00
001c381c00
001c381c0c
001c380e1e
c05c380e38
705c380771
38dff807e1
38dc3803c3
18dc3007e3
019c001cfe
019c00387f
019c00e01f
039c038006
031c300000
031c781800
071ffc1f30
061c3c1e1c
061c381c0e
0e1c381c06
0c1c3bffff
1c1c381c00
3c1c381c0c
f81c381c1e
781c381c38
381c380e70
381c380ee0
1c1c3807c1
1c1c380781
1e183807c3
1e18380ee3
1e3838387e
1e3038703f
0c3039c01f
0020370006
ENDCHAR
STARTCHAR 2466
ENCODING 9318
SWIDTH 903 0
DWIDTH 40 0
BBX 40 40 0 -6
BITMAP
000000001c
18060001fe
0e07c01fff
070781f800
070700000c
030700000f
0007000c0e
000739861c
000738c718
000738e330
c0873e6060
70bff80000
38bf380008
399f38001c
198738fffe
0107380380
0307380380
030e380380
030e380380
060e380380
060c380380
061c380386
0e1c71ffff
0c18700380
0c38700380
1c30700380
1c3ee0c38c
3807e0f38f
f801e0e38e
7803f0e38e
3803b8e38e
38071ce38e
1c061ce38e
1c0c0ce38e
1e1800e38e
1e3000e38e
1e6000e38e
1ec001fffe
0c0000c00e
000000000c
ENDCHAR
STARTCHAR 2467
ENCODING 9319
SWIDTH 903 0
DWIDTH 40 0
BBX 40 40 0 -6
BITMAP
0006000000
30078c3000
1c070f3c06
0e070e38ff
0e0e0e3800
060e0e3800
000c0e3800
001c0e3800
00180e3800
003b8e3800
c133ffff00
71638e3800
39438e3802
39070e39ff
1b070e381c
03060e381c
030e0e381c
020e0e381c
061e0e381c
061e0e381c
063e0e381c
063e0e381c
0c6e7fff1c
0c4e00001c
0c0e00001c
1c0e0c101c
1c0e0f181c
380e0e0c1c
f80e0e0c1c
780e1c0e1c
380e1c061c
380e18071c
1c0e38071c
1c0e30071c
1e0e60071c
1e0ec0031c
1e0e80001c
1e0e0001fc
0c0e000038
000c000030
ENDCHAR
STARTCHAR 2468
ENCODING 9320
SWIDTH 903 0
DWIDTH 40 0
BBX 40 40 0 -6
BITMAP
000030180c
0c00381c0e
070070381c
0380603018
01c0c06030
01c180c060
00c0c06030
000070381c
0000381c0e
0008180c06
0008000000
c01980000e
7011ffffff
3831c0380f
1c31c0380e
1c61c0380e
0c61c0380e
0061c0380e
00c1fffffe
00c1c00000
01c1c00000
0181cc000e
0381cfffff
0301ce000f
0701ce000e
0701ce000e
0e01ce000e
1e01cffffe
fe038e000e
3c038e000e
1c038e000e
1c038e000e
0e070ffffe
0e070e000e
0f060e000e
0f0e0e000e
0f0c0e000e
0f180ffffe
06300e000e
00000c000c
ENDCHAR
STARTCHAR 2469
ENCODING 9321
SWIDTH 903 0
DWIDTH 40 0
BBX 40 40 0 -6
BITMAP
0000600000
0c007c000c
0f8078001e
0f0070007f
0e00700df0
0e00718f80
0e1fffce00
0e00700e00
0e00700e00
0e60700e00
8e70738e00
ce6fffce04
cece73ce0e
6f8e738fff
6f0e738e1c
6e0e738e1c
0e0e738e1c
0e0fff8e1c
0e0e738e1c
0e0e738e1c
0e0e738e1c
0e0e738e1c
0e0e738e1c
0e0fff8e1c
0e0c730e1c
0e00700e1c
0e00700e1c
0e00718e1c
1f1fffcc1c
1d80701c1c
1cc0701c1c
18e0701c1c
387070181c
307070381c
703070301c
600070701c
c00070601c
800070c01c
000071801c
0000630018
ENDCHAR
STARTCHAR 246a
ENCODING 9322
SWIDTH 903 0
DWIDTH 40 0
BBX 40 40 0 -6
BITMAP
0000000000
030000000c
03e0c0001e
03c0ffffff
0380e1c70f
0380e1c70e
0380e1c70e
0380e1c70e
0380e1c70e
838cfffffe
c38ec0000c
639c003000
7398003e00
3bb0003c00
3be0003810
1bc0003838
1b807ffffc
0380003800
0380003800
0380003800
0380003800
0380003804
038000380e
0381ffffff
0700003000
0780003e00
07c0003c00
0760003800
0e30003810
0e38003838
0c1c7ffffc
1c1e003800
180e003800
380e003800
3006003800
6000003804
c00000380e
8001ffffff
0000000000
0000000000
ENDCHAR
STARTCHAR 246b
ENCODING 9323
SWIDTH 903 0
DWIDTH 40 0
BBX 40 40 0 -6
BITMAP
0000018000
030001e000
03e0038180
03c00700e0
03800e0070
03801c1ff8
03803ffc38
0380380018
0380180000
0398600180
839e7801e0
c39c7001c0
63b8e3038c
73b0c18306
3be180c603
3bc307cc3f
1b83fccfe3
0381c07703
0380c07300
038000f800
038001cc00
0380038700
03800703c0
03800e19f8
07001c3cff
070070783f
0780e0e19e
07c383c3e6
0e6e070780
0e701c1e00
0c38703818
1c3c00e03e
181c0380f8
381c0e01e0
300cf80780
7000001e00
6000007800
c00003c000
80001e0000
0001f00000
ENDCHAR
STARTCHAR 246c
ENCODING 9324
SWIDTH 903 0
DWIDTH 40 0
BBX 40 40 0 -6
BITMAP
0000700000
100038000c
100018001e
3fffffffff
700000000f
f00000000c
e3ffffff88
c000000000
0000000030
1ffffffff8
001c00e002
003800e002
007000e006
00e000f00c
0380007ffe
0700003ffe
1c00000000
77ffffffc0
07000001c0
07000001c0
07000001c0
07ffffffc0
07000001c0
07000001c0
07000001c0
07ffffffc0
0000300000
00003e0000
0c003c00c0
07007801f0
03c07003c0
01c0f80700
00c1ce0c00
0003838000
000e01f800
001c007fc0
0070001fff
01c00003ff
0f0000007e
f80000000e
ENDCHAR
STARTCHAR 246d
ENCODING 9325
SWIDTH 903 0
DWIDTH 40 0
BBX 40 40 0 -6
BITMAP
0300000004
03e000000e
03c1ffffff
038001c700
038001c700
038c61c71c
fffe7ffffe
038071c71e
078071c71c
078071871c
0fe073071c
1fb87603fc
1b9e7c01fc
3b8e70001c
338670031c
638073ff9c
c38070001c
838070001c
038070001c
03807ffffc
038060001c
0300000018
0000300000
00003e0000
00003c0000
0000380180
06003803c0
03803807e0
01e0700f00
00e0781c00
0060ec3000
0001c60000
0003838000
000701e000
001c007c00
0038003f80
00e0000fff
03800003ff
1e0000007e
f00000000e
ENDCHAR
STARTCHAR 246e
ENCODING 9326
SWIDTH 903 0
DWIDTH 40 0
BBX 40 40 0 -6
BITMAP
0060001800
0078001e00
0070801c0c
0071c01c1e
ffffefffff
0070003c00
00f0007c00
01fc00ff00
03f701dde0
0773839c78
0e71871c1e
1c700e1c0f
3870381c07
e070e01c03
0066001800
0007800000
000f00000c
000e00001e
ffffffffff
0038001800
0070300c00
00e03e0600
01c03c0380
03803801f0
07003800ff
0ec038067f
3870780f9e
e0387c1e06
0038e63800
0019c36000
000381c000
000700e000
000e007000
001c003c00
0038001f00
00e00007e0
01c00003ff
07000000ff
1c0000003e
f00000000e
ENDCHAR
STARTCHAR 246f
ENCODING 9327
SWIDTH 903 0
DWIDTH 40 0
BBX 40 40 0 -6
BITMAP
00c1806000
60f9e07c00
30f1c07800
18e3807000
1ce3007004
0ce600e00e
c0e0e0ffff
fffff1c038
e0e0f1e038
e0e0e32038
e6f8e63070
e7eeec1870
e6e7e00ce0
ece3e00fc0
f8e0e00780
e0e0e00780
e0e0e00fe0
e0e0e01cf8
e0e0e0707f
e0efe0e03f
e0c1c3801e
c0019e0006
0000300000
00003e0000
00003c0000
0000380180
06003803c0
03803807e0
01e0700f00
00e0781c00
0060ec3000
0001c60000
0003838000
000701e000
001c007c00
0038003f80
00e0000fff
03800003ff
1e0000007e
f00000000e
ENDCHAR
STARTCHAR 2470
ENCODING 9328
SWIDTH 903 0
DWIDTH 40 0
BBX 40 40 0 -6
BITMAP
0060000000
00f0180060
1b803c00f0
1e00701ff8
1c00e30078
1c03c78070
1c03ce0070
1c60fc0070
1ff0381ff0
1c00700070
1c00e60070
1c01c30070
1c679f8070
1ff7f1dff0
1c0381c070
1c0180c070
1c00000070
1c00000072
ffffffffff
0000000000
0000300000
00003e0000
00003c0000
0000380180
06003801e0
03803803c0
01e0780700
00f07c0e00
0070e61800
0031c30000
000381c000
000700e000
000e007000
001c003c00
0038001f00
00e00007e0
01c00003ff
07000000ff
1c0000003e
f00000000e
ENDCHAR
STARTCHAR 2471
ENCODING 9329
SWIDTH 903 0
DWIDTH 40 0
BBX 40 40 0 -6
BITMAP
0c00000008
0f8000001c
0f018ffffe
0e03c00e00
0fffe00e00
1c01e00e00
1b81c00e00
30e3800e04
6077000e0e
c03e1fffff
039c000e00
0e38000e00
f870000e00
e0e0000e00
61c0000e00
0380000e00
0700000e00
0e00000e00
3800000c00
e000000000
0180000c00
01f0000f80
01e0000f0c
01c30c0e0f
c1c3c70e0e
71c3838e1c
39c7038e18
39c6018e30
19cc000e00
01c0000f00
01c0001d00
0380001d80
03b00038c0
071c0070e0
060f00e070
0c0781c03c
180383803f
300187001f
60001c000e
c000700006
ENDCHAR
STARTCHAR 2472
ENCODING 9330
SWIDTH 903 0
DWIDTH 40 0
BBX 40 40 0 -6
BITMAP
0000300000
00003c0000
0c00780180
07007003e0
03c0e00700
01c1c00e00
00c38e1800
000703c000
000e007800
0038001f00
00700007c0
01c00001f0
070000007c
1c0000001e
f00000000e
1ffffffff0
1c0701c070
1c0701c070
1c0701c070
1c0701c070
1c0701c070
1ffffffff0
1800000060
0000000000
00c0000600
00f0000780
60e183070c
78e1e3c70f
70e1c3870e
70e1c3870e
70e1c3870e
70e1c3870e
ffffc7fffe
60e1c3070e
01c180070c
0380000700
0700000700
0e00000700
3800000700
e000000600
ENDCHAR
STARTCHAR 2473
ENCODING 9331
SWIDTH 903 0
DWIDTH 40 0
BBX 40 40 0 -6
BITMAP
0060000c00
007c000f80
0078000f0c
3070660e1e
1c70f38e38
0e71c1ce60
0e7301cec0
06e000dc00
00ee001c00
01c38039c0
0381e07070
0700f0e03c
0e0071c01e
1c0033800e
70000e0006
1000000000
1fffffffff
300000000f
701800300c
f01f003e18
e01e003c10
c01c003800
001c003830
1ffffffff8
001c003800
001c303800
001c1c3800
001c0e3800
001c06380c
001c00381e
ffffffffff
0038003800
0038003800
0070003800
00e0003800
01c0003800
0380003800
0700003800
0e00003800
3800003000
ENDCHAR
STARTCHAR 2474
ENCODING 9332
SWIDTH 903 0
DWIDTH 40 0
BBX 40 40 0 -6
BITMAP
0060000c00
007c000f80
0078000f0c
3070660e1e
1c70f38e38
0e71c1ce60
0e7301cec0
06e000dc00
00ee001c00
01c38039c0
0381e07070
0700f0e03c
0e0071c01e
1c0033800e
70000e0006
0000000000
100000000e
1fffffffff
300000000f
700000000c
f0000000c8
e6000001e0
c7fffffff0
07000000f0
07000000e0
070000c0e0
070601e0e0
0707fff0e0
070700f0e0
070700e0e0
070700e0e0
070700e0e0
0707ffe0e0
070700e0e0
070600c0e0
07000000e0
07000000e0
0700001fe0
07000001c0
0600000180
ENDCHAR
STARTCHAR 2475
ENCODING 9333
SWIDTH 903 0
DWIDTH 40 0
BBX 40 40 0 -6
BITMAP
06000180c0
07c381c0f8
0781c180f0
0700e300e0
07006600e0
c733ffd8e6
67381c0ce7
77301c0ee6
37601c06ec
37401c06e8
07001c60e0
0707fff0e0
07001c00e0
0e001c01c0
0ec01c01c0
0e601c0198
0c701c038c
1c381c030e
18381c0607
30181c0c07
6000181803
c000003000
0000000600
0000000f00
03ffffff80
0060000f80
0030001e00
0018003800
000c007000
000600e000
0003838000
0000ef0000
00007c0000
0000ff0000
0003c7f000
000f01ff00
003c003fff
01e00007ff
0f000000fe
f80000001e
ENDCHAR
STARTCHAR 2476
ENCODING 9334
SWIDTH 903 0
DWIDTH 40 0
BBX 40 40 0 -6
BITMAP
0000300600
0c003807c0
0f88318780
0f0c31e700
0e0631c700
0e06318700
0e03338600
0e03330e00
0e03b30e04
0e61b60e0e
8e71b60fff
ce60340c38
cecc301c38
6f8fffd838
6f0e31dc38
6e0e31f438
0e0e31e438
0e0e31c438
0e0e31c438
0e0e79c638
0e0e79c670
0e0efdc670
0e0efdc370
0e0ef7c370
0e0fb7c370
0e0fb7c3e0
0e0f37c1e0
0e0f31c1e0
1f0e31c1c0
1d8e31c1e0
1cce31c3e0
18ee31c3f0
387e31c370
307e31c738
703e31c63c
600e31ce1e
c00e31cc1f
800e3fd80f
000e03b00e
000c036006
ENDCHAR
STARTCHAR 2477
ENCODING 9335
SWIDTH 903 0
DWIDTH 40 0
BBX 40 40 0 -6
BITMAP
0001800000
000fc00000
307fe60006
3fe387ffff
38e3860187
38e38601b6
38e386019e
38e3860186
38e387fffe
38e3860186
38e3860186
38e386cdb6
38e386fdbe
38e386cdb6
38e386cdb6
38e386cdb6
38e386cdb6
38e386fdb6
38e386cde6
38e38601e6
38e38601c6
38e3861d96
38e387f1d6
38e387c3d6
38e386c676
38e1c60c36
38e1c61816
38e1c60006
30e0e7fffe
30e0e60006
30e0760006
30e0780000
30e03c0000
60e01e0000
60e00f8000
60e007f000
c0e001ffff
c0e0007ffe
80c0001ffc
0000000000
ENDCHAR
STARTCHAR 2478
ENCODING 9336
SWIDTH 903 0
DWIDTH 40 0
BBX 40 40 0 -6
BITMAP
0000000780
000001ffc0
00007fffe0
003ff80000
0ff8000300
0000c003c0
0600700380
0380380700
01c0380600
01c0180c00
00c0001800
07ffffffc0
07000001c0
07000001c0
07000001c0
07000001c0
07ffffffc0
0000380000
0000380000
3000380038
3ffffffffc
380038003c
3800380038
383ffff838
3838003838
3838003838
3838003838
383ffff838
3800000038
3800000038
381ffff038
380600f038
380381c038
3800e70038
38007e0038
38007f8038
3801e7fc38
380781fdf8
383c007870
31e0001860
ENDCHAR
STARTCHAR 2479
ENCODING 9337
SWIDTH 903 0
DWIDTH 40 0
BBX 40 40 0 -6
BITMAP
00000007e0
000007fff0
000ffffff8
1fff000180
00006001e0
06003801c0
03801c0380
01c01c0300
01c00c0600
00c0000c00
0600180060
0f003c00f0
1c007001c0
3860e18386
70f1c3c70f
e1c3870e1c
f383ce0f38
3f00fc03f0
0e003800e0
1cc07301cc
3860e18386
fff3ffcfff
fc73f1cfc7
7071c1c707
3030c0c303
0000000000
0000000f00
07ffffff80
0060001f80
0038003c00
000e00f000
0003c3c000
0000ff0000
00003f0000
0000ffe000
0003e3ff00
001f007fff
0078000fff
07c00001fe
fc0000001e
ENDCHAR
STARTCHAR 247a
ENCODING 9338
SWIDTH 903 0
DWIDTH 40 0
BBX 40 40 0 -6
BITMAP
0003800000
003fc00008
07ffe0001c
fe0007fffe
0001803800
c301e03800
71c1c03800
38e3803800
1863003800
0006003804
000000380e
7fffcfffff
0001c07000
0001c07000
0001c07000
0001c07000
7fffc0e000
000000e018
c000e0e03c
fffff1fffe
e080f0c01e
e1c0e0001c
e398e0001c
e70ce0001c
effee0001c
e606e0001c
e000e0001c
effce0001c
e61ce0001c
e338e0001c
e1f0e0001c
e0e0e0001c
e1f0e0001c
e3b8e0003c
e71ce00038
fc0ce00078
e000e0fff0
e03fe007e0
e001c001c0
c001800180
ENDCHAR
STARTCHAR 247b
ENCODING 9339
SWIDTH 903 0
DWIDTH 40 0
BBX 40 40 0 -6
BITMAP
0003000018
600783003c
7fffc3fffe
7003c3801e
700383801c
700383801c
700383801c
700383801c
700383801c
7fff83fffc
6003030018
0000000000
001000c000
001000f000
001000e006
001800ee0f
000801c39c
006801c0f0
7ffc0380f8
07040381de
070607070f
0702071c03
07030e0000
07018e0006
0701dc0e0f
0700f8039c
0700f800f0
07307000f8
fff8f801de
0001dc070f
00038e1c03
0007078000
000e03e000
001c00f800
0038007f00
00e0001fe0
01c00007ff
07000001ff
1c0000007e
f00000000e
ENDCHAR
STARTCHAR 247c
ENCODING 9340
SWIDTH 903 0
DWIDTH 40 0
BBX 40 40 0 -6
BITMAP
0000300000
00007c0000
0000f80000
0001ce0000
0007038000
000e00f000
0038303f00
00e03e0fff
03803c03ff
1e60380c7e
f038381f0e
001c383c00
000e387060
180638c0f0
1ffffffff8
1c00380078
1c00380070
1c01b80370
1f83ff07f0
1ce739ce70
1c3c387c70
1c3e387c70
1c73b8e770
1ce1f9c3f0
1f80ff01f0
1c00380070
1c00380070
1c01b80370
1f83ff07f0
1ce739ce70
1c3c387c70
1c3e387c70
1c73b8e770
1ce1f9c3f0
1f80ff01f0
1c00380070
1c00380070
1c00380ff0
1c003000e0
18000000c0
ENDCHAR
STARTCHAR 247d
ENCODING 9341
SWIDTH 903 0
DWIDTH 40 0
BBX 40 40 0 -6
BITMAP
0030003000
303e003e00
3e3c003c00
3c38003804
383800380e
3839ffffff
3838003800
3838003800
3838003800
3838003818
38387ffffc
3838003800
3838003800
3838003804
7ff800380e
3039ffffff
0038000000
0038000000
0038300038
00383ffffc
303838003c
3ff8380038
3838380038
38383ffff8
3838380038
3838380038
3838380038
38383ffff8
3838380038
3838380038
3838380038
3838380038
38383ffff8
3038060000
70380f80e0
70381e0038
603838001e
603870000f
c039c00007
8037000003
ENDCHAR
STARTCHAR 247e
ENCODING 9342
SWIDTH 903 0
DWIDTH 40 0
BBX 40 40 0 -6
BITMAP
003000c000
303e00f000
3e3c01e00c
3c3801c01e
383803ffff
383807000f
38380ee01c
38381c3838
3838700e70
38380077e0
383803c380
38387e0700
3838381c00
3838187000
7ff801c000
30380f0000
0038780004
003800000e
0039ffffff
003801c700
303801c700
3ff801c718
383861c73c
38387ffffe
383871c71e
383871c71c
383871871c
383873871c
38387303fc
38387601fc
38387c001c
383870001c
383870019c
303877ffdc
703870001c
703870001c
603870001c
60387ffffc
c03870001c
8030600018
ENDCHAR
STARTCHAR 2521
ENCODING 9505
SWIDTH 903 0
DWIDTH 40 0
BBX 40 40 0 -6
BITMAP
00300c0000
303e0f000c
3e3c0e001e
3c380fffff
38381e0070
38381b00e0
38383181c0
383860e380
3838c07e00
3838003f80
383800f3ff
383803c0ff
38381e003e
3839f0000e
7ff80c0000
30380f0000
00380e0006
00380fffff
00381e0070
00381b00e0
30383181c0
3ff860e380
3838c07e00
3838003f00
383800f7ff
383803c0ff
38381e003e
3839f0000e
3838000000
383801800c
3838ffc7fe
3838000000
3838000000
303801800c
7038ffc7fe
7038000000
6038000000
6038000006
c039ffffff
8030000000
ENDCHAR
STARTCHAR 2522
ENCODING 9506
SWIDTH 903 0
DWIDTH 40 0
BBX 40 40 0 -6
BITMAP
0030003000
303e003e00
3e3c003c00
3c38003804
383800380e
3839ffffff
3838003800
3838003800
3838003800
3838003818
38387ffffc
3838003800
3ff8003800
3838003804
383000380e
3801ffffff
3800000000
3800000000
3800300038
38303ffffc
387838003c
3ffc380038
383c380038
38383ffff8
3838380038
3838380038
3838380038
38383ffff8
3838380038
3038380038
7038380038
7038380038
70383ffff8
7038060000
60380f80e0
60381e0038
e03838001e
c03870000f
c039c00007
8037000003
ENDCHAR
STARTCHAR 2523
ENCODING 9507
SWIDTH 903 0
DWIDTH 40 0
BBX 40 40 0 -6
BITMAP
0030000018
303e60003c
3e3c7ffffe
3c3870001e
383870001c
383870001c
383870001c
38387ffffc
383870001c
383870001c
383870001c
383870001c
3ff87ffffc
3838603030
3830003c1c
380000380e
3800003806
3801ffffff
3800003800
3830003800
387860381c
3ffc7ffffe
383c70381e
383870381c
383870381c
383870381c
38387ffffc
383870381c
383870381c
303870381c
703870381c
70387ffffc
703870381c
703870381c
603870381c
603870381c
e03870381c
c0387039fc
c038703038
8030600030
ENDCHAR
STARTCHAR 2524
ENCODING 9508
SWIDTH 903 0
DWIDTH 40 0
BBX 40 40 0 -6
BITMAP
0030001800
303e001e00
3e3c001c08
3c38001c1c
3838001ffe
3838001c00
3838001c00
3838601c0e
38387fffff
383870600f
383870780c
3838707018
3ff8707010
38387ffff8
3830707000
3800707000
3800707800
3800703ffc
3800701ffc
3830700000
3878700078
3ffc7007fc
383c707ffe
383877e700
3838700718
383871871e
383870c718
383870e730
3838706722
30387fffff
7038700700
7038700700
7038600700
7038e00700
6038e00700
6038c00f00
e038c3ff00
c039801e00
c039001c00
8030001800
ENDCHAR
ENDFONT
